<svg width="1366" height="531" viewBox="0 0 1366 531" fill="none" xmlns="http://www.w3.org/2000/svg">
<rect x="-0.5" width="1366" height="531" fill="#F9F9F9"/>
<mask id="mask0_269_3325" style="mask-type:alpha" maskUnits="userSpaceOnUse" x="-1" y="0" width="1367" height="531">
<rect x="-0.5" width="1366" height="531" fill="white"/>
</mask>
<g mask="url(#mask0_269_3325)">
<g opacity="0.349279">
<path d="M-26.5 426.521C52.3038 419.308 209.905 378.165 367.503 390.459C525.108 402.753 603.909 498.481 761.507 487.99C919.111 477.499 997.912 337.022 1155.51 338.005C1313.11 338.989 1491.35 489.137 1549.51 492.908C1607.67 496.678 1466.96 384.066 1446.31 356.856" stroke="#3379C2" stroke-opacity="0.58" stroke-width="2"/>
<path d="M-232.5 505C-153.728 469.365 3.80771 338.485 161.34 326.825C318.879 315.166 397.647 430.61 555.179 446.703C712.719 462.796 791.487 403.843 949.019 407.291C1106.56 410.74 1243.36 464.11 1342.86 463.946C1442.36 463.782 1425.77 417.965 1446.5 406.47" stroke="#3379C2" stroke-opacity="0.58" stroke-width="2"/>
<path d="M-400.5 445.117C-321.708 430.698 -164.125 361.06 -6.54166 373.022C151.042 384.983 229.834 508.527 387.417 504.923C545 501.318 623.792 366.631 781.375 354.998C938.959 343.364 1042.31 437.088 1175.33 446.755C1308.36 456.422 1392.27 412.018 1446.5 403.334" stroke="#3379C2" stroke-opacity="0.58" stroke-width="2"/>
</g>
</g>
</svg>
