<svg width="500" height="401" viewBox="0 0 500 401" fill="none" xmlns="http://www.w3.org/2000/svg">
<g id="ilustrasi joven 2">
<path id="Path" d="M294.372 324.483C334.6 280.495 365.768 226.908 386.235 166.544L457.607 207.411C433.945 277.206 397.906 339.164 351.395 390.024C332.389 368.179 313.381 346.332 294.372 324.483Z" fill="#006A3D"/>
<path id="Path_2" d="M398.256 178.278L442.67 204.169C440.47 210.5 442.848 218.167 448.129 221.417C426.699 278.814 396.639 330.5 359.077 374.53C354.68 369.758 347.832 369.784 343.629 374.453L307.785 333.827C311.641 329.529 311.111 322.08 306.716 317.313C339.703 278.65 366.101 233.263 384.918 182.86C390.196 186.105 396.229 184.093 398.256 178.278Z" fill="#79C74E"/>
<path id="Path_3" d="M364.335 307.102C352.497 295.964 349.624 277.22 357.124 264.547C364.623 251.873 380.451 248.853 393.228 258.408C406.006 267.963 410.204 287.818 401.744 302.056C393.284 316.293 376.149 318.221 364.335 307.102Z" fill="#50BFA5"/>
<path id="Path_4" d="M361.751 266.558L365.832 269.803C366.909 268.04 368.224 266.435 369.74 265.032C370.864 264.014 372.586 264.253 373.68 265.592L373.814 265.754C375.018 267.229 374.985 269.466 373.711 270.577C372.282 271.823 371.078 273.307 370.152 274.962C368.695 277.586 368.613 280.12 370.321 281.515C371.939 282.831 373.814 282.198 376.808 279.595C381.125 275.827 385.12 273.996 389.339 277.224C393.158 280.144 394.578 285.478 392.619 291.382L396.707 294.613C395.826 296.208 394.938 297.796 394.041 299.378L390.274 296.346C389.408 297.764 388.379 299.076 387.207 300.255C386.015 301.427 384.176 301.193 383.096 299.737V299.737C381.976 298.243 382.081 296.051 383.33 294.89C384.489 293.804 385.47 292.543 386.237 291.152C387.98 288.05 387.32 286.085 386.116 285.136C384.691 284.01 382.88 284.981 379.251 287.867C374.277 291.992 370.62 292.222 366.834 289.04C363.049 285.858 361.556 280.383 363.653 274.502L359.295 270.985C360.119 269.511 360.937 268.035 361.751 266.558Z" fill="#3C8F7C"/>
<path id="Path_5" d="M333.236 345.518C342.306 334.867 350.901 323.748 359.021 312.162L365.037 317.864C356.808 329.599 348.093 340.873 338.892 351.687L333.236 345.518Z" fill="#50BFA5"/>
<path id="Path_6" d="M300.763 303.413C357.421 286.906 411.063 258.553 458.863 219.846L500 285.44C444.734 330.195 382.711 362.977 317.2 382.064C311.72 355.852 306.241 329.635 300.763 303.413Z" fill="#006A3D"/>
<path id="Path_7" d="M463.368 234.77C471.822 248.498 480.279 262.227 488.738 275.956C483.685 279.984 481.897 287.211 484.83 292.243C437.682 328.139 385.944 355.486 331.564 373.254C330.158 367.416 324.228 364.267 318.28 366.054L307.66 317.071C313.133 315.43 316.396 309.235 314.988 303.401C362.744 287.797 408.177 263.775 449.581 232.261C452.509 237.291 458.725 238.475 463.368 234.77Z" fill="#79C74E"/>
<path id="Path_8" d="M369.774 321.883C365.126 307.526 372.014 291.241 384.81 284.601C397.606 277.961 412.764 282.859 419.015 296.388C425.265 309.917 418.965 327.7 404.557 335.152C390.149 342.604 374.408 336.216 369.774 321.883Z" fill="#006A3D"/>
<path id="Path_9" d="M387.797 288.339L389.695 292.815C391.518 291.902 393.451 291.23 395.447 290.815C396.925 290.522 398.291 291.518 398.565 293.085C398.565 293.146 398.588 293.209 398.598 293.272C398.902 295.007 397.752 296.773 396.1 297.073C394.259 297.404 392.484 298.031 390.843 298.93C388.266 300.337 386.935 302.337 387.713 304.234C388.453 306.032 390.386 306.394 394.273 305.702C399.879 304.689 404.239 305.076 406.263 309.601C408.098 313.697 406.659 318.607 402.02 322.413L403.932 326.882C402.37 327.748 400.808 328.608 399.247 329.461C398.669 328.073 398.091 326.687 397.513 325.302C396.048 326.036 394.506 326.606 392.916 327.002C392.168 327.191 391.375 327.044 390.745 326.6C390.114 326.155 389.709 325.456 389.636 324.687V324.687C389.441 322.954 390.565 321.347 392.258 320.936C393.789 320.607 395.263 320.054 396.632 319.294C399.678 317.625 400.097 315.752 399.532 314.438C398.867 312.882 396.822 312.818 392.249 313.444C385.9 314.436 382.643 312.931 380.942 308.64C379.242 304.349 380.708 299.294 385.464 295.563C384.799 293.955 384.134 292.345 383.47 290.735C384.91 289.941 386.353 289.142 387.797 288.339Z" fill="#79C74E"/>
<path id="Path_10" d="M318.025 322.982C366.366 333.768 417.86 334.022 469.799 323.763C469.852 346.567 469.907 369.369 469.963 392.169C409.911 404.034 350.369 403.727 294.489 391.267C302.333 368.504 310.178 345.742 318.025 322.982Z" fill="#006A3D"/>
<path id="Path_11" d="M466.334 337.293C466.259 351.546 466.181 365.8 466.1 380.054C460.637 381.086 456.094 385.984 455.944 391.14C405.741 399.476 356.074 399.22 308.818 390.383C310.43 385.224 307.569 380.3 302.469 379.21C307.267 364.985 312.063 350.76 316.858 336.535C321.544 337.537 326.698 334.066 328.305 328.922C369.81 336.683 413.425 336.908 457.511 329.585C457.361 334.728 461.302 338.245 466.334 337.293Z" fill="#79C74E"/>
<path id="Path_12" d="M359.536 366.227C362.648 353.073 374.952 343.234 387.181 343.389C399.411 343.544 408.147 353.706 406.563 366.881C404.979 380.056 392.424 391.311 378.672 391.107C364.92 390.903 356.428 379.355 359.536 366.227Z" fill="#006A3D"/>
<path id="Path_13" d="M387.652 347.561C387.436 348.991 387.222 350.42 387.008 351.849C388.723 351.893 390.424 352.176 392.061 352.689C393.261 353.078 393.802 354.419 393.291 355.763C393.272 355.816 393.251 355.87 393.23 355.924C392.668 357.406 391.042 358.304 389.716 357.849C388.226 357.336 386.66 357.083 385.084 357.101C382.592 357.137 380.727 358.133 380.436 359.939C380.16 361.65 381.392 362.752 384.508 363.821C389.011 365.371 391.984 367.496 391.407 371.873C390.89 375.841 387.638 379.074 382.575 380.108C382.364 381.539 382.154 382.968 381.945 384.397C380.432 384.422 378.92 384.439 377.409 384.448C377.616 383.124 377.822 381.8 378.03 380.476C376.65 380.439 375.279 380.24 373.944 379.883C372.607 379.51 372.021 378.082 372.614 376.704V376.704C373.225 375.278 374.846 374.446 376.198 374.863C377.461 375.248 378.777 375.432 380.097 375.409C383.051 375.381 384.192 374.089 384.374 372.83C384.595 371.339 383.147 370.434 379.565 369.013C374.532 367.137 372.853 364.595 373.563 360.539C374.272 356.482 377.609 353.146 382.718 352.217C382.962 350.681 383.206 349.146 383.451 347.612C384.851 347.601 386.251 347.584 387.652 347.561Z" fill="#79C74E"/>
<path id="Path_14" d="M309.619 359.725C321.047 361.849 332.614 363.438 344.32 364.492C343.784 366.726 343.247 368.96 342.708 371.196C330.849 370.123 319.12 368.512 307.522 366.361C308.22 364.15 308.919 361.939 309.619 359.725Z" fill="#50BFA5"/>
<path id="Path_15" d="M419.062 364.583C430.566 362.925 442.031 360.717 453.456 357.959C453.665 360.248 453.873 362.536 454.079 364.825C442.501 367.62 430.875 369.859 419.202 371.543L419.062 364.583Z" fill="#006A3D"/>
<path id="Path_16" d="M426.125 291.797C436.193 285.982 446.019 279.672 455.604 272.866C456.644 274.915 457.685 276.963 458.727 279.009C449.015 285.904 439.052 292.303 428.836 298.206C427.931 296.07 427.028 293.934 426.125 291.797Z" fill="#006A3D"/>
<path id="Path_17" d="M388.294 242.63C394.338 232.693 399.933 222.436 405.078 211.859L410.764 215.749C405.552 226.465 399.879 236.865 393.746 246.949L388.294 242.63Z" fill="#006A3D"/>
<path id="Path_18" d="M171.247 0.561053C186.394 -1.85171 199.872 3.74055 201.354 13.0516C202.095 17.7083 199.696 22.4119 195.219 26.255L203.55 39.0035L188.917 30.3935C185.038 32.312 180.888 33.6239 176.612 34.2835C161.469 36.6962 147.988 31.104 146.508 21.7929C145.027 12.4818 156.101 2.97616 171.247 0.561053Z" fill="#FAE0B2"/>
<path id="Path_19" d="M184.578 17.4341C184.014 22.7537 179.248 26.6084 173.933 26.0437C168.618 25.4791 164.766 20.709 165.33 15.3894C165.894 10.0698 170.66 6.21498 175.975 6.77949C178.528 7.04998 180.869 8.32467 182.482 10.323C184.096 12.3212 184.85 14.8793 184.578 17.4341Z" fill="#FFB93E"/>
<path id="Path_20" d="M169.65 17.3896C169.454 19.2292 170.254 21.0335 171.748 22.1227C173.242 23.2119 175.204 23.4206 176.893 22.6702C178.583 21.9198 179.744 20.3243 179.939 18.4847L169.65 17.3896Z" fill="#EFEFEF"/>
<path id="Path_21" d="M154.965 131.657L156.518 128.803L155.056 125.9C154.979 125.749 154.995 125.566 155.097 125.43C155.199 125.294 155.37 125.228 155.537 125.26L158.721 125.86L161.016 123.57C161.137 123.449 161.315 123.408 161.476 123.463C161.637 123.519 161.752 123.661 161.773 123.83L162.188 127.054L165.069 128.538C165.22 128.617 165.314 128.774 165.311 128.944C165.308 129.113 165.209 129.267 165.055 129.34L162.129 130.733L161.612 133.943C161.585 134.111 161.465 134.248 161.303 134.298C161.14 134.348 160.964 134.301 160.848 134.177L158.615 131.814L155.415 132.311C155.249 132.333 155.085 132.26 154.99 132.122C154.895 131.984 154.885 131.804 154.965 131.657V131.657Z" fill="#F9482B"/>
<path id="Path_22" d="M53.9473 71.9078C53.7551 69.0215 55.9357 66.5252 58.8194 66.3304C61.703 66.1357 64.199 68.3163 64.3958 71.2022C64.5926 74.0882 62.4159 76.588 59.5325 76.7872C56.645 76.9803 54.1463 74.7973 53.9473 71.9078V71.9078Z" fill="#FFB537"/>
<path id="Path_23" d="M62.8262 86.7572C62.5123 85.2331 62.3225 83.6011 61.8048 82.131C61.3596 80.8671 59.3964 81.254 59.4948 82.5999C59.6166 84.2623 60.1344 85.9482 60.4811 87.5755C60.6217 88.2344 61.4908 88.5392 62.0648 88.3375C62.7676 88.089 62.9621 87.3996 62.8262 86.7478V86.7572Z" fill="#FFB537"/>
<path id="Path_24" d="M71.7966 80.2361C70.0629 79.2091 68.5495 77.9382 66.9494 76.7189C65.6983 75.781 64.3489 77.4036 65.3774 78.5291C66.8557 80.1493 68.7955 81.4155 70.6674 82.5152C71.2601 82.8669 72.073 82.5152 72.3729 81.9384C72.6723 81.3049 72.4178 80.5478 71.7966 80.2243V80.2361Z" fill="#FFB537"/>
<path id="Path_25" d="M68.512 70.8292C68.1265 71.1091 68.024 71.6403 68.2777 72.0438C68.8657 73.1106 70.3534 73.0591 71.4123 73.0215C72.5207 72.9756 73.6163 72.767 74.6641 72.4025C76.2056 71.8726 75.3669 69.4692 73.8207 69.9991C70.7985 71.0473 69.6505 69.9124 68.512 70.8292Z" fill="#FFB537"/>
<path id="Path_26" d="M66.8442 60.6129C65.3214 62.8498 64.0751 63.6048 64.2672 64.8334C64.3796 65.5533 64.9466 65.8956 65.64 65.7385C66.4577 65.5533 66.9051 64.681 67.3948 64.069C67.8844 63.4571 68.3319 62.8967 68.7465 62.2706C69.1284 61.7055 69.1823 60.9716 68.6224 60.4839C68.1538 60.0736 67.2167 60.0384 66.8419 60.6082L66.8442 60.6129Z" fill="#FFB537"/>
<path id="Path_27" d="M60.9076 60.2236C60.4203 58.8683 60.3149 58.3759 59.6823 57.7451C59.1317 57.1965 57.9721 57.5458 57.8971 58.3524C57.8057 59.2903 58.0025 59.6444 58.5156 61.07C58.6667 61.4977 59.0342 61.8122 59.4798 61.895C59.9254 61.9779 60.3813 61.8166 60.6758 61.4718C60.9703 61.127 61.0587 60.6512 60.9076 60.2236V60.2236Z" fill="#FFB537"/>
<path id="Path_28" d="M54.4951 63.5061C52.3 61.8319 51.8525 61.3583 50.981 61.4497C50.4749 61.5037 49.9057 61.9914 50.0158 62.5612C50.2219 63.621 50.8357 63.9094 52.8552 65.3866C53.3964 65.7852 54.1414 65.804 54.6076 65.2647C55.027 64.7817 55.0223 63.9164 54.4858 63.5061H54.4951Z" fill="#FFB537"/>
<path id="Path_29" d="M45.6725 71.1853C44.808 71.6543 45.1548 73.1479 46.0919 73.2698C46.9915 73.3871 47.3382 73.244 51.6981 72.4445C52.3729 72.3202 52.9257 71.8278 52.8695 71.0869C52.825 70.4585 52.1948 69.7832 51.5154 69.9145C46.9938 70.7258 46.5417 70.7211 45.6725 71.1853Z" fill="#FFB537"/>
<path id="Path_30" d="M52.5041 78.3439C50.1144 80.6652 49.7654 80.2572 48.8212 81.6758C48.3902 82.3253 49.1 83.3594 49.8521 83.221C50.8173 83.0428 51.075 82.881 52.3331 81.8822C53.064 81.3007 53.7621 80.6769 54.4416 80.0298C54.9406 79.5468 54.8047 78.6464 54.3174 78.2196C53.7598 77.7319 53.0125 77.8609 52.5135 78.3439H52.5041Z" fill="#FFB537"/>
<path id="Path_31" d="M166.037 73.6286L175.577 77.0168L173.103 68.4561L166.037 73.6286V73.6286Z" fill="#355389"/>
<path id="Path_32" d="M119.329 60.4604L111.422 60.2892L108.484 52.7602L110.448 51.9888L112.875 58.2024L121.042 58.3783L122.958 67.354L128.403 66.7983L128.44 68.9227L121.292 69.6495L119.329 60.4604V60.4604Z" fill="#79C74E"/>
<path id="Shape" fill-rule="evenodd" clip-rule="evenodd" d="M414.744 250.422L420.304 290.334C420.874 294.475 418.66 298.5 414.859 300.231L398.928 307.538C395.543 309.091 392.827 311.808 391.274 315.196C385.138 328.549 376.208 340.606 365.141 350.78C360.236 355.302 356.646 361.069 354.75 367.468L346.909 393.844C345.986 396.95 343.133 399.08 339.895 399.08H298.011C295.149 399.091 292.543 397.432 291.341 394.833L287.976 387.504C287.073 385.534 285.062 384.315 282.9 384.425C280.529 384.548 278.142 384.61 275.738 384.61C273.183 384.609 270.656 384.541 268.157 384.406C265.992 384.292 263.977 385.513 263.073 387.485L259.402 395.485C258.39 397.689 256.188 399.101 253.765 399.101H209.843C207.389 399.1 205.227 397.487 204.527 395.133L197.733 372.244C194.914 362.861 189.796 354.334 182.844 347.436C162.954 327.585 150.849 301.322 150.849 272.521C150.846 260.023 153.15 247.632 157.643 235.971C157.624 235.966 157.604 235.961 157.584 235.956C157.55 235.947 157.516 235.939 157.484 235.929C155.72 235.415 154.036 234.66 152.48 233.685C151.061 232.804 149.712 231.816 148.445 230.728C147.825 230.191 147.225 229.647 146.639 229.087C146.346 228.805 146.06 228.521 145.775 228.228L145.346 227.783L144.945 227.349L144.823 227.244C144.713 227.138 144.619 227.039 144.524 226.939C144.487 226.901 144.451 226.863 144.413 226.824C144.405 226.815 144.397 226.807 144.389 226.798C144.363 226.771 144.339 226.745 144.317 226.718C144.053 226.77 143.788 226.817 143.523 226.854C142.538 226.997 141.542 227.042 140.548 226.988C139.559 226.93 138.578 226.773 137.619 226.519C137.151 226.404 136.668 226.271 136.214 226.081C136.103 226.034 135.991 225.989 135.88 225.944C135.537 225.805 135.194 225.667 134.867 225.49C133.132 224.624 131.565 223.455 130.24 222.038C128.936 220.656 127.807 219.119 126.878 217.461C125.958 215.822 125.162 214.117 124.498 212.359C125.289 214.05 126.207 215.679 127.243 217.231C128.266 218.769 129.474 220.176 130.839 221.419C132.176 222.644 133.719 223.622 135.396 224.308C135.804 224.486 136.225 224.641 136.657 224.749C136.733 224.768 136.809 224.787 136.885 224.806C137.239 224.897 137.591 224.986 137.95 225.044C139.642 225.348 141.377 225.318 143.057 224.955C142.959 224.791 142.865 224.629 142.771 224.465C142.232 223.488 141.775 222.469 141.403 221.417C140.677 219.393 140.217 217.284 140.033 215.142C139.837 212.964 139.989 210.768 140.485 208.638C140.74 207.549 141.106 206.489 141.579 205.475C141.77 205.039 142.003 204.622 142.235 204.206C142.276 204.132 142.318 204.058 142.359 203.984C142.648 203.504 142.96 203.039 143.296 202.591C143.57 202.209 143.878 201.86 144.185 201.512C144.246 201.443 144.306 201.375 144.367 201.306C144.506 201.156 144.651 201.014 144.797 200.872C144.849 200.821 144.902 200.769 144.955 200.717L145.25 200.426C145.372 200.323 145.519 200.199 145.653 200.089C146.715 199.237 147.984 198.682 149.331 198.48C150.566 198.288 151.827 198.344 153.04 198.644C154.251 198.935 155.388 199.479 156.376 200.239C157.39 201.028 158.195 202.055 158.718 203.228C159.202 204.338 159.452 205.535 159.454 206.746C159.459 207.843 159.326 208.936 159.058 210C158.809 211.005 158.474 211.986 158.058 212.933C157.854 213.4 157.641 213.86 157.407 214.308C157.294 214.535 157.182 214.751 157.06 214.962C157.004 215.059 156.95 215.158 156.896 215.256C156.833 215.371 156.77 215.486 156.704 215.599C156.226 216.446 155.706 217.276 155.157 218.087C154.609 218.899 154.024 219.686 153.393 220.444C152.768 221.207 152.099 221.933 151.39 222.62C151.175 222.833 150.94 223.044 150.706 223.25C150.917 223.433 151.133 223.619 151.35 223.797C151.868 224.221 152.398 224.632 152.934 225.021C153.974 225.783 155.07 226.464 156.214 227.058C156.748 227.325 157.295 227.564 157.854 227.773C158.349 227.959 158.86 228.103 159.379 228.203C159.799 228.291 160.228 228.322 160.656 228.294C160.764 228.285 160.864 228.273 160.961 228.257C180.087 188.353 224.286 160.413 275.757 160.413C329.701 160.413 375.653 191.097 393.13 234.076C393.713 235.521 394.812 236.698 396.213 237.378L410.141 244.091C412.638 245.296 414.367 247.673 414.744 250.422ZM148.818 221.438L148.886 221.529C149.111 221.297 149.333 221.063 149.544 220.812C150.13 220.149 150.678 219.453 151.184 218.727C151.697 218.003 152.17 217.248 152.613 216.472C153.056 215.696 153.471 214.903 153.85 214.089C153.951 213.888 154.042 213.684 154.134 213.477C154.155 213.429 154.177 213.38 154.199 213.331C154.269 213.175 154.338 213.02 154.398 212.87C154.576 212.474 154.726 212.071 154.867 211.667C155.425 210.059 155.731 208.375 155.598 206.914C155.549 206.247 155.361 205.597 155.047 205.006C154.76 204.487 154.349 204.048 153.85 203.728C152.77 203.061 151.47 202.851 150.235 203.144C149.727 203.256 149.26 203.507 148.886 203.869L148.759 203.993L148.572 204.211C148.52 204.273 148.465 204.335 148.411 204.397C148.339 204.479 148.268 204.561 148.199 204.645C148.127 204.748 148.053 204.849 147.979 204.95C147.827 205.158 147.676 205.363 147.548 205.583C145.925 208.115 145.519 211.294 146.042 214.446C146.306 216.024 146.77 217.562 147.424 219.023C147.734 219.717 148.1 220.384 148.518 221.018C148.542 221.054 148.567 221.089 148.591 221.124C148.666 221.235 148.74 221.344 148.818 221.438Z" fill="#0C6EE5"/>
<path id="Path_33" d="M380.277 241.129C380.924 244.97 380.312 248.272 378.916 248.506C377.52 248.741 375.87 245.821 375.219 241.981C374.568 238.14 375.184 234.838 376.58 234.604C377.976 234.37 379.633 237.291 380.277 241.129Z" fill="#184655"/>
<path id="Path_34" d="M324.016 177.012C327.366 173.518 347.774 153.92 385.035 152.697C385.667 152.679 386.263 152.991 386.607 153.522C386.952 154.052 386.995 154.724 386.722 155.295C382.334 164.439 368.032 195.301 363.868 217.196C363.702 218.084 362.909 218.713 362.008 218.674C354.53 218.345 323.228 214.788 323.514 178.247C323.517 177.787 323.697 177.344 324.016 177.012V177.012Z" fill="#143E47"/>
<path id="Path_35" d="M347.078 190.274C347.078 189.481 347.113 188.696 347.176 187.929C347.788 180.386 351.232 173.377 356.611 168.059C362.901 161.839 372.497 155.325 386.167 153.053C385.841 152.805 385.44 152.678 385.031 152.694C347.764 153.92 327.359 173.513 324.016 177.014C323.697 177.344 323.518 177.784 323.514 178.243C323.228 214.784 354.53 218.338 362.008 218.669C362.909 218.709 363.702 218.079 363.868 217.192C363.983 216.598 364.103 215.996 364.232 215.391C354.151 212.174 348.308 207.7 347.078 190.274Z" fill="#184655"/>
<path id="Shape_2" fill-rule="evenodd" clip-rule="evenodd" d="M338.43 318.26C380.591 312.816 395.386 309.639 395.635 309.585C393.769 311.094 392.276 313.014 391.274 315.196C385.138 328.549 376.208 340.606 365.14 350.78C360.236 355.303 356.646 361.069 354.75 367.468L346.909 393.844C345.986 396.95 343.133 399.08 339.895 399.08H298.01C295.147 399.085 292.543 397.417 291.348 394.812L287.983 387.483C287.08 385.513 285.069 384.294 282.907 384.404C280.536 384.527 278.148 384.589 275.745 384.589C273.189 384.588 270.662 384.52 268.163 384.385C265.998 384.271 263.983 385.492 263.08 387.464L259.408 395.464C258.396 397.668 256.195 399.08 253.772 399.08H209.849C207.396 399.079 205.234 397.466 204.534 395.112L197.74 372.223C194.921 362.84 189.803 354.313 182.851 347.415C162.961 327.564 150.856 301.301 150.856 272.5C150.853 260.002 153.157 247.611 157.65 235.95C157.631 235.945 157.611 235.94 157.591 235.935C157.557 235.926 157.523 235.918 157.491 235.908C155.727 235.394 154.043 234.639 152.487 233.664C151.068 232.783 149.719 231.795 148.452 230.707C147.831 230.17 147.232 229.626 146.646 229.066C146.353 228.784 146.067 228.5 145.781 228.207L145.353 227.762L144.952 227.328L144.83 227.223C144.72 227.117 144.626 227.018 144.531 226.918C144.494 226.88 144.458 226.842 144.42 226.803C144.412 226.794 144.404 226.786 144.396 226.777C144.37 226.75 144.346 226.724 144.324 226.697C144.06 226.749 143.795 226.796 143.53 226.833C142.545 226.976 141.549 227.021 140.555 226.967C139.565 226.909 138.584 226.752 137.626 226.498C137.158 226.383 136.675 226.25 136.221 226.06C136.11 226.013 135.998 225.968 135.887 225.923C135.543 225.784 135.201 225.646 134.874 225.469C133.139 224.603 131.572 223.434 130.247 222.017C128.943 220.635 127.814 219.098 126.885 217.44C125.965 215.801 125.169 214.096 124.504 212.338C125.296 214.029 126.214 215.658 127.25 217.21C128.273 218.748 129.481 220.155 130.846 221.398C132.183 222.623 133.725 223.601 135.403 224.287C135.811 224.465 136.232 224.62 136.663 224.728C136.74 224.747 136.816 224.766 136.892 224.785C137.245 224.876 137.598 224.965 137.957 225.023C139.649 225.327 141.384 225.297 143.064 224.934C142.965 224.77 142.872 224.608 142.778 224.444C142.239 223.467 141.782 222.448 141.41 221.396C140.684 219.372 140.224 217.263 140.039 215.121C139.844 212.943 139.996 210.747 140.491 208.617C140.746 207.528 141.113 206.468 141.586 205.454C141.776 205.018 142.009 204.601 142.242 204.185C142.283 204.111 142.325 204.037 142.366 203.963C142.655 203.483 142.967 203.018 143.303 202.57C143.577 202.188 143.885 201.839 144.192 201.491C144.252 201.422 144.313 201.354 144.373 201.285C144.513 201.135 144.658 200.993 144.804 200.851C144.856 200.8 144.909 200.748 144.962 200.696L145.257 200.406C145.379 200.302 145.526 200.178 145.66 200.068C146.722 199.216 147.991 198.661 149.338 198.459C150.573 198.267 151.833 198.323 153.046 198.623C154.258 198.914 155.395 199.458 156.383 200.218C157.397 201.007 158.202 202.034 158.725 203.207C159.208 204.317 159.459 205.514 159.461 206.725C159.466 207.822 159.333 208.915 159.065 209.979C158.816 210.984 158.481 211.965 158.065 212.912C157.861 213.379 157.648 213.839 157.413 214.287C157.301 214.514 157.188 214.73 157.067 214.941C157.01 215.038 156.957 215.137 156.903 215.235C156.84 215.35 156.777 215.465 156.711 215.578C156.233 216.425 155.713 217.255 155.164 218.066C154.616 218.878 154.03 219.665 153.4 220.423C152.775 221.186 152.106 221.912 151.397 222.599C151.182 222.812 150.947 223.023 150.713 223.229C150.924 223.412 151.139 223.598 151.357 223.776C151.875 224.2 152.405 224.611 152.941 225C153.981 225.762 155.077 226.443 156.221 227.037C156.755 227.304 157.302 227.543 157.861 227.752C158.356 227.938 158.866 228.082 159.386 228.182C159.805 228.27 160.235 228.301 160.663 228.273C160.771 228.264 160.871 228.252 160.967 228.236C180.094 188.332 224.293 160.392 275.763 160.392C276.08 160.392 276.397 160.396 276.713 160.4C277.029 160.404 277.344 160.409 277.659 160.409C258.624 175.059 240.732 199.646 235.974 230.986C227.509 286.716 276.398 326.284 338.43 318.26ZM395.635 309.585C395.638 309.585 395.639 309.585 395.639 309.585H395.636M148.818 221.438L148.886 221.529C149.111 221.297 149.333 221.063 149.544 220.812C150.13 220.149 150.677 219.453 151.184 218.727C151.697 218.003 152.17 217.248 152.613 216.472C153.056 215.696 153.47 214.903 153.85 214.09C153.951 213.888 154.042 213.684 154.133 213.478C154.155 213.429 154.177 213.38 154.199 213.331C154.268 213.175 154.337 213.021 154.398 212.87C154.576 212.474 154.726 212.071 154.867 211.667C155.424 210.059 155.731 208.375 155.598 206.915C155.549 206.247 155.361 205.597 155.047 205.006C154.76 204.487 154.349 204.048 153.85 203.728C152.77 203.061 151.47 202.851 150.235 203.144C149.727 203.256 149.26 203.507 148.886 203.869L148.759 203.993L148.572 204.211C148.519 204.274 148.465 204.335 148.411 204.397C148.339 204.479 148.267 204.561 148.199 204.645C148.127 204.749 148.053 204.85 147.979 204.95C147.826 205.158 147.676 205.363 147.548 205.583C145.924 208.115 145.519 211.295 146.042 214.446C146.305 216.024 146.77 217.562 147.424 219.023C147.734 219.717 148.1 220.384 148.518 221.018C148.542 221.054 148.566 221.089 148.591 221.125C148.666 221.235 148.74 221.344 148.818 221.438Z" fill="#0C6EE5"/>
<path id="Path_36" d="M221.097 189.627C224.778 195.357 219.429 205.365 209.149 211.979C198.869 218.594 187.551 219.311 183.871 213.581C180.19 207.85 185.539 197.84 195.819 191.228C206.099 184.616 217.419 183.896 221.097 189.627Z" fill="#184655"/>
<path id="Path_37" d="M306.21 176.927C269.982 165.072 238.09 176.761 237.771 176.88L235.414 172.287C235.765 172.156 244.162 169.042 257.357 167.466C269.506 166.017 288.211 165.668 308.305 172.242L306.21 176.927Z" fill="#184655"/>
<path id="Path_38" d="M195.584 179.769C195.584 179.769 194.279 181.9 194.396 182.531C194.514 183.162 196.083 189.844 196.95 190.288C197.817 190.731 199.996 190.642 199.511 191.509C199.141 192.166 195.228 193.038 192.616 193.549C191.855 193.697 189.395 187.936 188.868 187.129C188.113 185.957 186.33 183.338 186.499 182.346C186.579 181.863 187.27 180.735 188.35 179.574C189.486 178.353 190.29 176.057 190.29 176.057L195.584 179.769Z" fill="#FFB27D"/>
<path id="Path_39" d="M214.533 179.162C214.533 179.162 214.092 183.938 214.092 183.95C214.153 184.674 214.132 186.505 214.294 187.136C214.894 189.509 224.473 182.414 221.812 181.978C221.577 181.936 220.699 181.349 220.422 180.559C219.998 179.342 220.612 177.527 220.612 177.527L214.533 179.162Z" fill="#FFB27D"/>
<path id="Path_40" d="M210.648 93.2637C210.648 93.2637 213.415 100.926 213.446 101.044C216.662 113.759 225.464 137.957 225.591 140.468C225.895 146.595 220.847 179.528 220.847 179.528L213.844 180.437L213.692 142.579L206.806 129.071L195.027 101.906L210.648 93.2637Z" fill="#262626"/>
<path id="Path_41" d="M189.596 105.996L190.191 113.774L194.46 145.318L188.753 178.651C188.753 178.651 191.724 182.538 194.636 182.452L207.989 146.326L211.18 103.639L208.517 94.999L189.596 105.996Z" fill="#353535"/>
<path id="Path_42" d="M267.428 66.1606C265.085 67.7831 265.43 68.1278 265.125 68.3271C264.762 68.5616 259.081 68.4444 259.081 68.4444C259.081 68.4444 242.327 68.2099 241.423 68.1653L225.766 60.4956L219.879 67.5745C219.879 67.5745 237.126 75.4318 238.099 75.678C239.071 75.9242 261.761 73.4762 263.771 73.3332C263.771 73.3332 266.217 74.0812 267.77 74.5056C269.323 74.93 270.975 74.5923 271.429 74.6392C272.603 74.6649 273.774 74.5388 274.915 74.2641C276.555 73.8795 274.838 73.4598 274.838 73.4598C274.838 73.4598 271.689 73.6028 271.722 73.3402C271.748 73.1386 273.472 73.1667 275.286 72.7634L276.633 72.4539C277.741 72.1936 277.907 71.4081 276.71 71.4879C276.165 71.5184 275.623 71.5898 275.089 71.7012C274.555 71.8325 274.023 71.7716 273.559 71.8091C272.636 71.8841 271.964 71.9521 271.982 71.9099C272.001 71.8677 271.811 71.7341 272.303 71.6098C272.896 71.4574 274.217 71.4246 275.072 71.1291C275.555 70.9626 276.586 70.6789 276.586 70.6789C276.586 70.6789 278.345 70.0365 278.244 69.7949C278.024 69.2674 276.839 69.4737 276.223 69.7949C275.724 69.7809 274.646 70.1115 274.646 70.1115C274.646 70.1115 272.329 70.2709 272.303 69.9286C272.303 69.7903 273.559 69.4057 274.854 68.8946C276.223 68.3529 277.183 67.8957 277.132 67.6049C277.05 67.136 275.92 67.4924 275.92 67.4924C275.92 67.4924 274.927 67.7995 274.59 67.8746C274.194 67.9637 272.99 68.1348 272.99 68.1348C272.99 68.1348 268.773 68.5264 268.773 68.2005C268.773 67.8746 269.105 67.0281 269.358 66.9156C269.611 66.803 270.185 66.8335 270.438 66.7139C270.691 66.5943 271.214 66.2872 271.099 65.9495C270.984 65.6119 269.267 65.6236 269.267 65.6236C269.267 65.6236 268.103 65.6916 267.428 66.1606Z" fill="#FFB27D"/>
<path id="Path_43" d="M236.213 64.8918C236.213 64.8918 234.828 68.2753 234.16 69.4922C233.605 70.5028 230.433 74.4467 230.433 74.4467C230.433 74.4467 223.353 70.1253 220.064 67.8321C216.081 65.0489 211.864 60.0944 212.309 59.6911C213.546 58.5727 215.402 57.3628 217.632 57.3299C225.354 57.2127 236.213 64.8918 236.213 64.8918Z" fill="#004CA5"/>
<path id="Path_44" d="M266.617 70.5781C267.789 70.2311 268.798 69.4949 268.805 68.2686C269.475 69.3917 267.964 70.829 266.617 70.5781Z" fill="#FE875E"/>
<path id="Path_45" d="M223.979 58.5329C220.425 57.0463 213.617 55.7661 213.617 55.7661C213.617 55.7661 209.381 54.6289 207.954 54.7907C205.846 55.0251 197.292 51.433 188.683 107.351L215.275 107.395C213.511 102.16 219.762 87.6994 220.472 85.2187C222.067 79.6757 227.355 59.9398 223.979 58.5329Z" fill="#0058D9"/>
<path id="Path_46" d="M217.965 49.4141L213.099 56.5844C213.099 56.5844 215.653 62.4463 218.572 62.8847C221.02 63.2576 220.992 59.5716 220.992 59.5716C220.992 59.5716 221.845 54.8961 223.236 52.9031C224.628 50.91 217.965 49.4141 217.965 49.4141Z" fill="#FFB27D"/>
<path id="Path_47" d="M218.04 51.555C219.11 52.9432 220.405 54.1423 221.87 55.1027C222.231 53.942 222.69 52.7579 223.234 51.9748C223.873 51.0556 222.8 50.242 221.458 49.63C219.647 48.9453 217.963 48.4834 217.963 48.4834L217.025 49.8621C217.185 50.3873 217.766 51.1939 218.04 51.555Z" fill="#F47458"/>
<path id="Path_48" d="M216.763 37.8332C216.583 37.7465 214.326 47.299 216.552 50.2136C218.778 53.1281 223.538 54.4881 225.483 52.5583C227.631 50.4293 228.552 40.0092 224.953 36.8812C221.355 33.7533 216.763 37.8332 216.763 37.8332Z" fill="#FFB27D"/>
<path id="Path_49" d="M221.8 31.8216C218.74 31.6269 214.612 33.1206 212.401 36.0703C209.681 39.6953 211.131 44.8655 213.652 47.2384C216.173 49.6113 215.657 51.8787 215.657 51.8787L217.044 49.8387C217.044 49.8387 217.332 47.5502 216.81 46.0871C216.288 44.624 218.45 43.8948 219.139 42.788C219.673 41.9345 219.895 39.8829 220.741 38.469C220.741 38.469 223.679 36.5932 225.623 36.7292C228.943 36.9449 226.179 32.0982 221.8 31.8216Z" fill="#1C140D"/>
<path id="Path_50" d="M218.138 44.6895C218.649 45.7188 218.565 46.7998 217.946 47.1069C217.328 47.4141 216.416 46.8279 215.906 45.8009C215.395 44.7739 215.479 43.6906 216.095 43.3834C216.712 43.0763 217.628 43.6625 218.138 44.6895Z" fill="#FFB27D"/>
<path id="Path_51" d="M60.3804 380.165V396.282C60.3804 398.887 89.4308 401 125.25 401C161.068 401 190.116 398.89 190.116 396.282V380.165H60.3804Z" fill="#FF8200"/>
<path id="Path_52" d="M107.325 400.817V380.165H60.3804V396.282C60.3804 398.435 80.2167 400.252 107.325 400.817Z" fill="#FFB537"/>
<path id="Path_53" d="M109.508 400.859C114.548 400.951 119.817 401 125.249 401C133.337 401 141.08 400.892 148.209 400.695V380.165H109.508V400.859Z" fill="#FFB537"/>
<path id="Path_54" d="M150.818 400.62C173.93 399.898 190.116 398.229 190.116 396.282V380.165H150.818V400.62Z" fill="#FFB537"/>
<ellipse id="Oval" cx="125.25" cy="379.993" rx="64.8691" ry="4.71767" fill="#FF8200"/>
<ellipse id="Oval_2" cx="125.25" cy="379.993" rx="53.4176" ry="3.27095" fill="#F7CC7F"/>
<path id="Path_55" d="M49.2827 363.111V379.226C49.2827 381.834 78.3331 383.944 114.15 383.944C149.966 383.944 179.019 381.834 179.019 379.226V363.111H49.2827Z" fill="#FF8200"/>
<path id="Path_56" d="M96.2273 383.764V363.111H49.2827V379.226C49.2827 381.381 69.1213 383.196 96.2273 383.764Z" fill="#FFB537"/>
<path id="Path_57" d="M98.4058 383.806C103.445 383.897 108.714 383.944 114.145 383.944C122.234 383.944 129.975 383.839 137.104 383.642V363.111H98.4058V383.806Z" fill="#FFB537"/>
<path id="Path_58" d="M139.721 383.564C162.832 382.842 179.018 381.173 179.018 379.226V363.111H139.721V383.564Z" fill="#FFB537"/>
<ellipse id="Oval_3" cx="114.149" cy="362.94" rx="64.8691" ry="4.71767" fill="#FF8200"/>
<ellipse id="Oval_4" cx="114.15" cy="362.94" rx="53.4176" ry="3.27095" fill="#F7CC7F"/>
<path id="Path_59" d="M56.6763 345.603V361.718C56.6763 364.325 85.7267 366.436 121.545 366.436C157.364 366.436 186.412 364.325 186.412 361.718V345.603H56.6763Z" fill="#FF8200"/>
<path id="Path_60" d="M103.621 366.253V345.6H56.6763V361.716C56.6763 363.873 76.5126 365.688 103.621 366.253Z" fill="#FFB537"/>
<path id="Path_61" d="M105.805 366.297C110.844 366.389 116.113 366.436 121.546 366.436C129.633 366.436 137.376 366.33 144.517 366.133V345.603H105.805V366.297Z" fill="#FFB537"/>
<path id="Path_62" d="M147.115 366.056C170.226 365.334 186.412 363.664 186.412 361.718V345.603H147.115V366.056Z" fill="#FFB537"/>
<ellipse id="Oval_5" cx="121.545" cy="345.432" rx="64.8691" ry="4.71767" fill="#FF8200"/>
<ellipse id="Oval_6" cx="121.546" cy="345.432" rx="53.4176" ry="3.27095" fill="#F7CC7F"/>
<path id="Path_63" d="M49.2827 328.333V344.447C49.2827 347.052 78.3331 349.164 114.15 349.164C149.966 349.164 179.019 347.054 179.019 344.447V328.329L49.2827 328.333Z" fill="#FF8200"/>
<path id="Path_64" d="M96.2273 348.986V328.333H49.2827V344.447C49.2827 346.604 69.1213 348.433 96.2273 348.986Z" fill="#FFB537"/>
<path id="Path_65" d="M98.4058 349.028C103.445 349.12 108.714 349.169 114.145 349.169C122.234 349.169 129.975 349.061 137.104 348.864V328.333H98.4058V349.028Z" fill="#FFB537"/>
<path id="Path_66" d="M139.721 348.787C162.832 348.067 179.018 346.395 179.018 344.451V328.333H139.721V348.787Z" fill="#FFB537"/>
<ellipse id="Oval_7" cx="114.149" cy="328.162" rx="64.8691" ry="4.71767" fill="#FF8200"/>
<ellipse id="Oval_8" cx="114.15" cy="328.162" rx="53.4176" ry="3.27095" fill="#FFA412"/>
<rect id="Rectangle" x="149.704" y="358.154" width="113.641" height="41.3945" fill="#006A3D"/>
<rect id="Rectangle_2" x="149.704" y="364.187" width="113.641" height="5.32496" fill="#79C74E"/>
<rect id="Rectangle_3" x="149.704" y="374.588" width="113.641" height="5.32496" fill="#79C74E"/>
<rect id="Rectangle_4" x="149.704" y="384.99" width="113.641" height="5.32496" fill="#79C74E"/>
<rect id="Rectangle_5" x="149.704" y="394.224" width="113.641" height="5.32496" fill="#79C74E"/>
<rect id="Rectangle_6" x="197.407" y="358.154" width="23.6339" height="41.3945" fill="#F4BB60"/>
<rect id="Rectangle_7" x="133.922" y="358.154" width="17.1608" height="41.3945" fill="#006A3D"/>
<path id="Path_67" d="M268.534 281.975C268.424 282.403 268.255 282.813 268.033 283.194C266.587 285.825 263.235 289.581 263.235 289.581L260.641 283.733C260.641 283.733 261.065 281.897 261.798 279.278C264.303 279.925 266.688 280.305 268.534 281.975Z" fill="#F8A492"/>
<path id="Path_68" d="M253.664 276.903C253.664 276.903 268.131 283.138 268.597 283.018C268.899 282.941 274.531 273.506 274.592 264.633C274.62 260.534 270.375 255.606 265.622 256.581C263.234 257.071 263.279 257.737 259.737 262.874C256.194 268.012 253.664 276.903 253.664 276.903Z" fill="#D35500"/>
<path id="Path_69" d="M241.315 388.683C241.315 388.683 241.66 394.369 241.662 394.381C241.788 395.103 242.285 396.887 242.285 397.542C242.285 400.008 230.588 395.45 233.209 394.357C233.443 394.259 234.69 393.511 234.767 392.672C234.887 391.377 235.191 388.763 235.191 388.763L241.315 388.683Z" fill="#FFB27D"/>
<path id="Path_70" d="M265.244 388.683C265.244 388.683 265.589 394.369 265.589 394.381C265.715 395.103 266.212 396.887 266.212 397.542C266.212 400.008 254.514 395.45 257.136 394.357C257.37 394.259 258.987 392.951 259.064 392.113C259.183 390.819 259.12 388.763 259.12 388.763L265.244 388.683Z" fill="#FFB27D"/>
<path id="Path_71" d="M261.669 285.124L251.361 270.68C251.317 270.554 251.223 270.296 251.08 269.899C250.562 268.467 249.482 265.484 248.543 262.516L248.531 262.485C248.236 261.449 247.61 259.639 247.004 257.89C246.331 255.943 245.495 253.528 245.464 253.118C245.49 253.048 245.539 252.921 245.605 252.755C245.982 251.772 246.493 249.434 246.673 248.419C246.788 247.772 246.908 246.199 246.135 246.199C244.926 246.199 245.502 247.77 244.944 248.75C244.591 247.676 244.312 246.579 244.108 245.467L243.907 242.398C243.867 242.163 244.113 240.473 243.265 240.473H243.225C242.463 240.529 242.48 242.33 242.164 245.376C242.065 245.026 241.964 244.602 241.889 244.203C241.841 243.662 241.755 243.124 241.632 242.595C241.784 241.746 241.695 240.407 240.791 240.534C240.338 240.597 240.376 242.466 240.376 242.466C240.376 242.721 240.406 244.698 240.395 245.087C240.301 244.424 239.938 241.598 239.223 241.598C238.635 241.598 238.588 242.358 238.6 242.96C238.6 243.317 238.977 246.379 238.998 246.736C238.722 246.267 238.392 243.572 238.118 243.572C236.972 243.572 237.387 247.408 237.808 248.41C237.863 248.585 237.906 248.763 237.937 248.944C238.111 249.943 238.443 250.907 238.921 251.8C239.64 253.031 240.634 254.991 240.795 255.292C240.908 255.904 241.264 258.105 241.686 260.87C241.871 262.042 242.074 263.353 242.285 264.699V264.699C242.325 264.99 242.538 265.916 243.354 269.388C244.469 274.139 244.586 274.345 244.635 274.432C245.118 275.29 256.227 290.376 256.698 291.03L256.977 291.408L261.669 285.124Z" fill="#FFB27D"/>
<path id="Path_72" d="M242.508 251.439C242.508 251.439 243.344 249.299 244.832 249.294C244.305 249.127 243.73 249.226 243.288 249.559C242.576 250.124 242.508 251.439 242.508 251.439Z" fill="#FFB27D"/>
<path id="Path_73" d="M264.16 247.303L265.486 255.697C265.486 255.697 260.432 259.759 257.485 258.903C255.014 258.183 256.71 254.949 256.71 254.949C256.71 254.949 258.026 250.469 257.621 248.119C257.216 245.77 264.16 247.303 264.16 247.303Z" fill="#FFB27D"/>
<path id="Path_74" d="M263.206 249.84C261.388 250.653 259.462 251.196 257.487 251.453C257.675 250.281 257.78 249.036 257.621 248.119C257.436 247.036 258.813 246.778 260.353 246.815C262.365 246.989 264.16 247.303 264.16 247.303L264.413 248.916C264.07 249.296 263.661 249.609 263.206 249.84V249.84Z" fill="#F47458"/>
<path id="Path_75" d="M270.537 237.621C270.745 237.621 268.538 247 265.125 248.611C261.711 250.222 256.618 249.385 255.665 246.857C254.606 244.065 258.462 234.498 263.262 233.284C268.063 232.069 270.537 237.621 270.537 237.621Z" fill="#FFB27D"/>
<path id="Path_76" d="M266.584 229.005C268.522 230.127 270.061 231.829 270.984 233.87C272.266 234.477 273.814 235.793 274.557 239.336C275.471 243.692 272.214 247.05 268.775 248.058C265.336 249.066 264.792 251.341 264.792 251.341L264.401 248.886C264.401 248.886 265.167 246.747 266.32 245.678C267.472 244.609 265.774 243.047 265.617 241.776C265.502 240.796 266.224 238.895 266.067 237.289C266.067 237.289 264.153 234.383 262.264 233.666C259.062 232.451 263.087 226.974 266.584 229.005Z" fill="#1C140D"/>
<path id="Path_77" d="M265.134 243.418C264.687 244.501 264.869 245.577 265.542 245.819C266.214 246.06 267.118 245.383 267.564 244.299C268.009 243.216 267.828 242.14 267.158 241.898C266.488 241.657 265.579 242.335 265.134 243.418Z" fill="#F7A491"/>
<path id="Path_78" d="M252.418 285.359L232.544 282.116C232.544 282.116 234.807 276.42 235.613 276.42C236.419 276.42 250.64 282.632 250.64 282.632L251.771 284.904L252.418 285.359Z" fill="#FFB27D"/>
<path id="Path_79" d="M262.595 298.996C262.595 298.996 264.579 308.588 263.766 315.859C262.953 323.13 262.895 348.967 262.895 348.967L265.978 390.306L258.664 390.465C258.664 390.465 249.995 349.148 250.15 350.208C250.305 351.268 247.243 321.116 247.243 321.116L257.584 298.086L262.595 298.996Z" fill="#262626"/>
<path id="Path_80" d="M260.657 298.541C260.657 298.541 261.951 307.176 260.334 310.968C258.718 314.759 246.477 351.922 246.315 354.951C246.153 357.98 242.082 391.478 242.082 391.478L233.577 391.243L231.736 354.006L235.59 307.202L239.338 295.368L260.657 298.541Z" fill="#353535"/>
<path id="Path_81" d="M265.486 255.697C265.486 255.697 263.378 257.076 261.431 256.916C259.484 256.757 256.71 254.949 256.71 254.949L257.094 253.645C257.094 253.645 262.155 252.907 262.283 252.986C262.412 253.066 265.486 255.697 265.486 255.697Z" fill="#FFB27D"/>
<path id="Path_82" d="M243.131 276.139C243.131 276.139 235.613 283.237 232.221 282.025C228.828 280.812 227.425 276.669 235.702 270.608C243.112 265.194 243.131 276.139 243.131 276.139Z" fill="#FFB27D"/>
<path id="Path_83" d="M238.035 284.904C239.153 278.824 247.245 259.904 247.892 256.419C248.205 254.724 252.577 254.687 256.728 254.907C261.119 255.142 265.483 255.697 265.483 255.697C265.483 255.697 269.37 256.337 271.08 257.941C272.791 259.545 273.245 263.981 270.787 272.404C268.845 279.051 266.439 282.702 265.249 287.544C265.015 289.169 264.802 290.77 264.528 292.644C264.089 299.884 264.528 309.451 264.528 309.451C264.528 309.451 243.363 313.845 235.444 307.177C235.458 307.177 236.895 291.134 238.035 284.904Z" fill="#FF7708"/>
<path id="Path_84" d="M232.647 271.832C232.647 271.832 240.952 278.692 241.437 278.692C241.749 278.692 253.289 270.197 255.962 263.217C257.434 259.357 254.346 255.041 250.808 255.055C248.362 255.055 247.275 255.695 242.428 259.786C237.581 263.878 232.647 271.832 232.647 271.832Z" fill="#D65803"/>
<path id="Path_85" d="M104.966 149.156C104.966 149.156 104.202 152.907 103.595 154.298C103.277 155.025 101.873 157.827 101.873 157.827L101.217 165.44L95.4683 164.676C95.4683 164.676 97.4128 159.189 96.7544 157.541C96.2343 156.244 95.9134 153.524 95.9462 152.851C96.0633 150.534 104.966 149.156 104.966 149.156Z" fill="#FFB27D"/>
<path id="Path_86" d="M33.2769 153.801C33.2769 153.801 39.1057 157.567 40.2255 158.587C40.8136 159.124 43.2407 161.121 43.2407 161.121L46.9493 167.82L51.8949 164.812C51.8949 164.812 47.863 160.577 47.8021 158.807C47.7482 157.412 46.9306 154.795 46.6307 154.188C45.5624 152.113 33.2769 153.801 33.2769 153.801Z" fill="#FFB27D"/>
<path id="Path_87" d="M79.7737 177.082C79.7737 177.082 76.7773 173.952 74.3689 177.759C74.3689 177.759 72.5134 176.728 71.2109 178.568C71.2109 178.568 67.856 177.567 67.0431 182.538C67.0431 182.538 65.3164 182.215 65.0892 184.25C64.9446 185.441 65.2332 186.645 65.9021 187.64C65.9021 187.64 64.9322 188.36 65.3727 190.22C65.7475 191.809 67.0759 192.051 67.0759 192.051C67.0759 192.051 67.432 194.731 68.6057 195.537C69.7794 196.344 71.3725 195.957 71.3725 195.957C71.3725 195.957 71.7965 197.411 73.1624 197.282C74.5282 197.153 76.2244 195.861 77.7542 196.443C79.2841 197.024 83.2574 196.41 83.2574 196.41C83.2574 196.41 87.7087 194.44 86.3827 189.919C86.3827 189.919 88.7255 187.821 86.6755 185.303C86.6755 185.303 88.1726 181.363 85.2113 179.04C82.25 176.716 79.7737 177.082 79.7737 177.082Z" fill="#1C140D"/>
<path id="Path_88" d="M46.4832 287.689C46.4832 287.689 41.3173 287.105 40.4622 286.688C39.6071 286.27 35.273 290.376 36.1328 292.435C36.6154 293.607 38.1476 293.448 38.1476 293.448L39.3869 292.25L45.9467 293.602L46.4832 287.689Z" fill="#FFB27D"/>
<path id="Path_89" d="M75.9574 309.275C75.9574 309.275 73.2374 313.669 72.4947 314.26C71.7521 314.851 73.6661 320.486 75.9152 320.591C77.1803 320.647 77.6934 319.208 77.6934 319.208L77.1217 317.588L81.1326 312.274L75.9574 309.275Z" fill="#FFB27D"/>
<path id="Path_90" d="M95.6649 247.179C95.3721 246.368 95.091 245.615 94.8192 244.909C91.4667 245.636 87.6784 246.433 83.7847 247.254L83.3162 261.412C83.3162 260.319 86.2446 283.994 86.2446 283.994C86.2446 283.994 78.2815 299.662 73.104 309.353C75.2289 311.984 76.8524 313.135 79.9379 314.926C87.9736 305.374 98.2443 288.534 98.6801 285.628C98.9331 283.952 99.158 256.928 95.6649 247.179Z" fill="#262626"/>
<path id="Path_91" d="M65.9748 251.275C66.8861 261.088 68.3925 275.947 68.6666 280.946C62.2685 281.86 47.1506 286.369 44.3299 286.365C43.2639 288.733 42.6735 291.61 43.4138 293.973C43.5591 294.442 73.2374 295.38 80.8983 290.531C82.8966 289.265 83.5128 275.71 83.5432 261.414L84.0118 247.256C77.5293 248.628 71.5599 249.974 65.9748 251.275Z" fill="#353535"/>
<path id="Path_92" d="M87.0529 200.987L79.7715 202.075C79.7715 202.075 74.2824 202.159 72.8158 202.173C72.6893 202.173 66.9753 229.809 65.586 240.21C64.1968 250.611 65.2744 252.45 65.2744 252.45C65.2744 252.45 74.9595 254.612 82.126 253.981C89.5784 253.327 97.9632 249.336 97.9632 249.336C97.9632 249.336 91.1199 229.068 89.8548 222.84C88.5897 216.612 87.0529 200.987 87.0529 200.987Z" fill="#004CA5"/>
<path id="Path_93" d="M102.026 162.425C102.026 162.425 101.388 188.025 100.603 189.601C99.4649 191.894 91.3167 208.237 91.3167 208.237C91.3167 208.237 97.4454 233.668 100.022 242.45C100.282 243.333 101.428 249.045 101.428 249.603C101.428 250.839 96.0069 252.417 95.3627 252.314C94.7863 252.23 90.0563 228.041 87.0364 216.205C86.0108 212.19 84.2548 208.398 81.8565 205.02L79.748 202.063L92.2069 187.113C92.2069 187.113 94.8918 163.485 94.8918 162.008C94.8918 161.621 101.245 160.971 102.026 162.425Z" fill="#0058D9"/>
<path id="Path_94" d="M72.8157 202.173L60.3451 183.525C60.3451 183.525 52.2508 163.933 52.0517 163.21C51.8525 162.488 45.4919 163.311 43.4818 163.117C42.8375 163.056 51.9556 183.685 52.9185 187.122C54.0547 191.186 60.1413 207.079 60.1413 207.079C60.1413 207.079 64.3583 216.596 63.6906 223.949C62.6012 236.163 60.4411 253.763 60.9659 254.29C64.2318 256.33 74.5119 256.255 75.3037 254.994C84.0657 240.998 72.8157 202.173 72.8157 202.173Z" fill="#0058D9"/>
<path id="Path_95" d="M79.2679 198.344L79.8091 202.331C79.8091 202.331 81.025 208.078 79.4624 209.187C77.8997 210.296 72.8159 202.166 72.8159 202.166L73.3524 192.058L79.2679 198.344Z" fill="#FFB27D"/>
<path id="Path_96" d="M73.1792 195.336C74.4701 198.785 77.5438 200.905 79.7273 201.726L79.2587 198.345L73.3432 192.061L73.1792 195.336Z" fill="#F47458"/>
<path id="Path_97" d="M65.0356 185.193C65.0356 186.731 65.9189 187.978 67.0083 187.978C68.0977 187.978 68.9809 186.731 68.9809 185.193C68.9809 183.655 68.0977 182.405 67.0083 182.405C65.9189 182.405 65.0356 183.652 65.0356 185.193Z" fill="#1C140D"/>
<path id="Path_98" d="M70.9512 179.199C70.9512 180.085 72.0265 180.803 73.3502 180.803C74.6738 180.803 75.7515 180.085 75.7515 179.199C75.7515 178.313 74.6762 177.598 73.3502 177.598C72.0242 177.598 70.9512 178.315 70.9512 179.199Z" fill="#1C140D"/>
<path id="Path_99" d="M76.9647 181.441C78.4637 180.939 80.1073 181.121 81.4603 181.939C82.8134 182.757 83.7393 184.128 83.993 185.69C84.2482 187.385 84.3938 189.094 84.4288 190.808C84.5131 195.467 82.086 200.002 79.947 200.002C77.8081 200.002 71.9324 196.984 71.7122 190.372C71.5786 186.287 73.6356 182.578 76.9647 181.441Z" fill="#FFB27D"/>
<path id="Path_100" d="M73.2844 190.895C73.2844 191.922 72.5956 192.754 71.7499 192.754C70.9041 192.754 70.2153 191.922 70.2153 190.895C70.2153 189.868 70.9018 189.033 71.7499 189.033C72.5979 189.033 73.2844 189.866 73.2844 190.895Z" fill="#FFB27D"/>
<path id="Path_101" d="M86.207 179.124C88.4116 180.855 89.1824 183.486 87.9313 185C86.6803 186.515 83.8807 186.337 81.6761 184.606C79.4716 182.876 78.7008 180.243 79.9518 178.73C81.2029 177.218 84.0025 177.392 86.207 179.124Z" fill="#1C140D"/>
<path id="Path_102" d="M80.4463 180.547C80.4463 181.3 79.5303 181.91 78.3988 181.91C77.2672 181.91 76.3535 181.3 76.3535 180.547C76.3535 179.795 77.2695 179.185 78.3988 179.185C79.528 179.185 80.4463 179.79 80.4463 180.547Z" fill="#1C140D"/>
<ellipse id="Oval_9" cx="84.7873" cy="186.332" rx="1.74771" ry="1.75154" fill="#1C140D"/>
<path id="Path_103" d="M38.1382 155.996C38.1382 155.996 39.6516 157.691 41.472 157.951C43.2923 158.211 44.8901 156.343 44.8901 156.343L38.1382 155.996Z" fill="#F47458"/>
<path id="Path_104" d="M96.4614 152.811L96.7847 153.304C96.7847 153.304 101.66 153.475 103.696 151.702L96.4614 152.811Z" fill="#F47458"/>
<path id="Path_105" d="M8.52068 103.857C47.6872 108.753 87.7979 105.865 126.754 95.3389C130.063 111.815 133.376 128.293 136.692 144.774C91.6611 156.941 45.2835 160.284 0 154.622C2.84101 137.702 5.68123 120.78 8.52068 103.857Z" fill="#006A3D"/>
<path id="Path_106" d="M125.99 105.328C127.977 115.632 129.964 125.938 131.952 136.246C127.85 137.32 125.018 141.132 125.641 144.867C87.7698 153.897 49.0812 156.685 11.0321 153.126C11.5476 149.308 8.61206 145.913 4.48877 145.43C6.17713 134.86 7.86705 124.291 9.55854 113.722C13.3538 114.163 16.8563 111.347 17.3717 107.534C50.7867 110.66 84.7593 108.212 118.015 100.282C118.638 104.01 122.216 106.315 125.99 105.328Z" fill="#79C74E"/>
<path id="Path_107" d="M47.0338 132.63C47.5656 122.939 55.7278 115.091 65.2699 114.47C74.8121 113.849 83.075 120.672 83.7263 130.288C84.3776 139.904 76.2294 148.793 65.4995 149.473C54.7696 150.153 46.4996 142.307 47.0338 132.63Z" fill="#006A3D"/>
<path id="Path_108" d="M66.2348 117.457L66.3472 120.594C67.7057 120.526 69.0673 120.628 70.4002 120.899C70.8738 120.993 71.2899 121.273 71.5544 121.677C71.8189 122.081 71.9095 122.575 71.8059 123.047C71.8059 123.087 71.7895 123.129 71.7825 123.169C71.5401 124.288 70.4426 125.002 69.3226 124.77C68.1054 124.489 66.8516 124.4 65.6069 124.508C63.6718 124.681 62.3645 125.511 62.3973 126.836C62.4278 128.091 63.5453 128.803 66.1223 129.397C69.8497 130.25 72.4689 131.605 72.6493 134.806C72.8156 137.702 70.7493 140.234 66.9587 141.285C66.9977 142.33 67.0391 143.376 67.0829 144.422C65.9099 144.533 64.7385 144.636 63.5687 144.731C63.5406 143.761 63.5117 142.791 63.482 141.821C62.3908 141.878 61.2966 141.817 60.2185 141.639C59.7129 141.57 59.2608 141.288 58.9758 140.864C58.6907 140.441 58.5999 139.915 58.7262 139.42V139.42C59.0381 138.332 60.1283 137.66 61.24 137.873C62.264 138.075 63.3117 138.13 64.3512 138.035C66.6471 137.838 67.3499 136.837 67.3101 135.913C67.2679 134.82 66.0122 134.255 63.0181 133.441C58.8339 132.386 57.1612 130.651 57.1331 127.676C57.105 124.7 59.2182 122.09 63.0603 121.11C63.0291 119.988 62.9994 118.864 62.9713 117.738C64.0583 117.652 65.1462 117.559 66.2348 117.457Z" fill="#79C74E"/>
<path id="Path_109" d="M89.0161 128.705C98.2591 127.454 107.474 125.807 116.661 123.764C116.909 125.373 117.159 126.982 117.411 128.592C108.11 130.659 98.7699 132.329 89.391 133.603C89.2644 131.971 89.1395 130.338 89.0161 128.705Z" fill="#006A3D"/>
<path id="Path_110" d="M14.5461 130.37C23.7438 131.22 32.9736 131.676 42.2354 131.739C42.1385 133.385 42.0417 135.032 41.9449 136.679C32.5613 136.617 23.2019 136.154 13.8667 135.291C14.0947 133.645 14.3212 132.005 14.5461 130.37Z" fill="#006A3D"/>
<path id="Path_111" d="M43.9272 157.517C43.9272 157.517 45.3329 156.289 45.4196 154.404C45.4313 154.169 44.7824 152.059 45.5976 151.92C46.9541 151.686 47.5421 157.977 47.5421 157.977C47.5421 157.977 45.6468 157.309 43.9272 157.517Z" fill="#F7A491"/>
<path id="Path_112" d="M98.5957 155.06C98.5957 155.06 102.419 151.578 103.281 149.901C103.387 149.69 103.654 147.507 104.453 147.704C105.79 148.033 104.122 152.776 104.122 152.776C104.122 152.776 100.254 155.562 98.5957 155.06Z" fill="#FFB27D"/>
<path id="Path_113" d="M139.367 256.865C137.898 253.327 136.404 249.784 132.594 247.993C129.511 246.544 126.29 247.09 123.551 249.151C115.787 254.994 122.551 261.43 113.711 272.509C110.966 275.952 107.641 278.73 105.997 282.763C103.694 288.409 106.437 291.122 110.832 293.826C131.866 306.766 142.891 280.198 142.495 274.13C142.216 269.6 140.311 259.142 139.367 256.865Z" fill="#1C140D"/>
<path id="Path_114" d="M161.192 325.721C160.307 325.583 158.147 324.038 157.392 323.897C156.804 323.789 155.53 323.597 154.986 323.515C154.321 321.03 150.943 307.474 150.566 303.502C150.156 299.197 147.115 280.578 147.115 280.578L139.238 282.01C139.238 282.01 142.518 296.334 143.413 303.28C144.191 309.247 150.73 322.659 151.561 324.075C151.561 324.111 151.561 324.143 151.561 324.179C151.688 326.289 152.702 325.585 152.702 325.585L154.342 326.005C154.342 326.005 160.169 326.568 160.548 326.709C160.928 326.849 162.08 325.862 161.192 325.721Z" fill="#FFB27D"/>
<path id="Path_115" d="M140.248 269.693C145.814 271.569 148.979 286.728 148.979 286.728C148.979 286.728 140.245 289.169 138.008 287.9C138.008 287.9 135.468 276.646 134.557 277.025L140.248 269.693Z" fill="#FF7708"/>
<path id="Path_116" d="M183.308 351.891C184.45 354.93 185.341 358.058 185.974 361.242C186.014 361.495 185.658 362.717 185.691 362.977C189.111 367.646 194.024 368.668 198.236 368.966C196.09 366.855 192.937 364.879 192.787 364.215C191.752 360.179 191.024 356.07 190.611 351.924C187.991 353.136 186.213 352.184 183.308 351.891Z" fill="#FFB27D"/>
<path id="Path_117" d="M134.862 301.591L127.337 322.8C127.337 322.8 139.428 325.076 143.947 325.907C148.466 326.737 173.719 327.839 174.359 328.289C174.827 328.622 180.052 345.506 182.38 354.82C185.025 355.401 189.549 354.703 191.958 353.882C190.655 340.559 185.958 319.451 184.461 317.154C182.003 313.402 134.862 301.591 134.862 301.591Z" fill="#262626"/>
<path id="Path_118" d="M164.25 361.188C164.803 364.388 165.094 367.628 165.119 370.875C165.119 371.128 164.531 372.263 164.514 372.516C167 377.743 171.636 379.668 175.717 380.749C174 378.287 171.266 375.742 171.252 375.062C170.991 370.904 171.046 366.732 171.416 362.581C168.616 363.289 167.049 362.011 164.25 361.188Z" fill="#FFB27D"/>
<path id="Path_119" d="M126.079 302.693L123.16 307.681C121.048 311.296 120.626 315.655 122.004 319.609C123.382 323.563 126.422 326.714 130.321 328.23L130.45 328.279C134.735 329.942 159.334 335.764 159.878 336.324C160.283 336.739 162.246 354.306 162.79 363.889C165.278 364.956 169.853 365.118 172.374 364.755C173.59 351.425 172.929 329.818 171.882 327.271C170.174 323.135 126.079 302.693 126.079 302.693Z" fill="#353535"/>
<path id="Path_120" d="M188.427 179.511C188.427 179.511 195.268 189.753 196.969 189.901C197.421 189.941 199.506 189.8 200.104 190.588C200.284 190.822 200.666 192.011 200.666 192.011L192.084 194.483C192.084 194.483 189.765 189.158 188.804 187.085C188.804 187.085 185.253 182.318 185.375 181.774C185.496 181.23 188.427 179.511 188.427 179.511Z" fill="#004CA5"/>
<path id="Path_121" d="M213.867 188.351L214.127 183.896C214.127 183.896 216.974 184.332 218.213 183.826C219.452 183.319 221.779 181.95 221.779 181.95C227.338 182.339 231.75 182.095 231.328 183.647V183.647L213.867 188.351Z" fill="#004CA5"/>
<path id="Path_122" d="M233.238 394.334C233.238 394.334 235.983 395.089 237.391 395.272C238.799 395.455 240.652 393.865 241.646 394.301C242.742 394.77 242.698 399.021 242.698 399.021C242.698 399.021 227.971 400.231 223.831 398.981C222.189 398.489 227.624 396.09 233.238 394.334Z" fill="#004CA5"/>
<path id="Path_123" d="M257.166 394.334C257.166 394.334 259.912 395.089 261.318 395.272C262.724 395.455 264.579 393.865 265.575 394.301C266.669 394.77 266.713 399.021 266.713 399.021C266.713 399.021 251.919 400.428 247.758 398.981C246.144 398.421 251.551 396.09 257.166 394.334Z" fill="#004CA5"/>
<path id="Path_124" d="M72.659 314.082C72.659 314.082 74.2217 316.056 75.0721 316.842C75.8711 317.557 76.7095 318.227 77.5835 318.849C77.5835 318.849 79.179 321.721 79.6147 322.725C80.587 324.957 81.6764 327.443 81.5194 328.692C81.4679 329.093 80.5612 329.518 79.8022 329.285C76.6511 328.324 68.592 321.016 67.5729 319.053C66.3991 316.779 72.659 314.082 72.659 314.082Z" fill="#004CA5"/>
<path id="Path_125" d="M40.6896 286.765C40.6896 286.765 39.5463 289.007 39.1878 290.104C38.8723 291.124 38.6142 292.16 38.4147 293.209C38.4147 293.209 36.4655 295.856 35.7346 296.674C34.1064 298.489 32.115 300.639 30.9061 301.026C30.5172 301.15 29.4161 300.824 29.4278 299.976C29.4677 296.707 32.6327 286.045 33.9962 284.301C35.5682 282.284 40.6896 286.765 40.6896 286.765Z" fill="#004CA5"/>
<path id="Path_126" d="M165.496 371.02C164.84 370.297 162.436 374.281 161.837 375.13C161.16 376.087 161.352 376.809 161.434 376.957C161.647 377.353 174.319 384.819 177.419 385.351C177.749 385.37 178.078 385.283 178.356 385.102C179.565 384.031 174 376.127 171.503 375.088C169.877 374.415 168.455 374.277 165.496 371.02Z" fill="#004CA5"/>
<path id="Path_127" d="M186.379 361.385C185.602 360.797 183.985 365.163 183.554 366.11C183.069 367.177 183.392 367.848 183.5 367.986C183.784 368.333 197.636 373.287 200.773 373.231C201.097 373.186 201.399 373.04 201.635 372.814C202.624 371.536 195.678 364.813 193.03 364.26C191.32 363.908 189.884 364.033 186.379 361.385Z" fill="#004CA5"/>
<path id="Path_128" d="M134.968 269.649V269.649C135.159 269.637 135.347 269.598 135.528 269.534C136.561 269.349 138.821 269.065 140.581 269.82C142.72 270.723 146.035 279.164 145.838 287.825C145.758 289.15 145.679 290.337 145.604 291.162C145.063 297.706 143.186 309.986 143.085 310.049C140.534 311.69 125.137 305.322 124.081 303.922C123.024 302.522 122.399 285.513 121.883 284.665L120.883 269.883C122.668 269.339 132.231 269.63 134.968 269.649Z" fill="#FF7708"/>
<path id="Path_129" d="M128.729 264.202C128.729 264.202 129.72 269.332 129.523 271.358C129.326 273.384 130.277 279.905 134.56 279.926C138.842 279.947 135.373 271.632 134.967 269.649C134.562 267.665 134.471 261.526 134.471 261.526L128.729 264.202Z" fill="#FFB27D"/>
<path id="Path_130" d="M134.557 264.605C134.492 262.926 134.471 261.526 134.471 261.526L128.729 264.202C128.729 264.202 128.932 265.25 129.136 266.589C131.648 267.093 133.468 266.162 134.557 264.605Z" fill="#F47458"/>
<path id="Path_131" d="M126.632 250.04C125.194 250.935 124.122 252.314 123.609 253.929C122.801 256.591 123.722 263.461 129.436 265.119C135.15 266.776 137.636 261.337 136.448 257.083C135.26 252.83 132.711 247.446 126.632 250.04Z" fill="#FFB27D"/>
<path id="Path_132" d="M137.163 255.435C137.052 256.577 136.422 257.451 135.757 257.386C135.092 257.32 134.644 256.342 134.757 255.2C134.869 254.059 135.497 253.184 136.162 253.25C136.828 253.315 137.275 254.293 137.163 255.435Z" fill="#FFB27D"/>
<path id="Path_133" d="M127.302 249.692C127.302 249.692 126.264 257.355 123.788 258.738C121.311 260.122 122.347 263.519 122.347 263.519C122.347 263.519 120.102 255.627 122.061 253.092C124.019 250.558 127.302 249.692 127.302 249.692Z" fill="#1C140D"/>
<path id="Path_134" d="M125.254 259.838C125.926 260.837 125.924 262.014 125.254 262.469C124.584 262.924 123.49 262.469 122.817 261.482C122.145 260.495 122.15 259.306 122.817 258.854C123.485 258.401 124.584 258.839 125.254 259.838Z" fill="#FFB27D"/>
<path id="Path_135" d="M95.8288 324.192C95.8991 324.01 96.0631 324.005 96.2247 324C97.8188 323.975 99.4099 323.856 100.99 323.644C101.252 323.608 101.509 323.543 101.756 323.449C102.177 323.284 102.641 323.267 103.073 323.4C103.312 323.46 103.559 323.486 103.806 323.477C104.607 323.477 106.894 322.697 108.067 322.49C108.334 322.439 108.547 322.239 108.616 321.977C109.771 317.404 112.249 307.144 112.57 303.77C112.98 299.458 115.958 280.005 115.958 280.005L123.923 282.228C123.923 282.228 120.643 296.585 119.739 303.549C119.036 308.923 113.671 320.333 111.989 323.613C111.167 326.054 109.323 326.122 108.894 326.174C108.649 326.204 108.424 326.324 108.262 326.511C107.973 326.853 107.634 327.148 107.257 327.388C106.984 327.566 106.751 327.798 106.573 328.071C106.233 328.565 105.931 329.081 105.636 329.599C105.437 329.944 105.23 330.052 104.933 329.97C104.635 329.888 104.464 329.651 104.464 329.267C104.48 328.712 104.642 328.171 104.933 327.698C105.2 327.243 105.179 326.978 104.867 326.558C104.697 326.313 104.496 326.09 104.27 325.895C104.055 325.68 103.757 325.571 103.455 325.597C102.884 325.744 102.304 325.852 101.719 325.921L101.236 326.019L100.974 326.075C100.934 326.075 100.086 326.178 99.8022 326.178C99.5679 326.178 99.193 326.195 98.8651 326.209C98.5491 326.193 98.2354 326.148 97.9279 326.073C97.652 326.068 97.3876 325.961 97.1853 325.773C97.0986 325.695 97.0143 325.609 97.0588 325.477C97.098 325.367 97.1994 325.29 97.3165 325.283C97.5086 325.248 98.4879 325.126 98.4879 325.086C98.195 325.086 97.2766 325.062 96.9815 325.055C96.5967 325.055 96.2298 324.893 95.9694 324.61C95.8827 324.493 95.7585 324.378 95.8288 324.192Z" fill="#FFB27D"/>
<path id="Path_136" d="M120.784 269.841C116.853 269.137 113.61 286.723 113.61 286.723C113.61 286.723 122.344 289.164 124.582 287.896C124.582 287.896 127.121 276.641 128.032 277.021L120.784 269.841Z" fill="#FF7708"/>
<path id="Path_137" d="M476.912 147.05L473.421 153.576L465.891 153.154L462.494 160.746L454.613 157.82L450.394 166.235L442.803 164.439L437.422 171.872L440.233 173.91L444.258 168.352L452.266 170.249L456.321 162.16L464.336 165.133L468.082 156.755L475.436 157.168L478.671 151.121L483.443 152.401L484.343 149.046L476.912 147.05V147.05Z" fill="#FFB537"/>
<circle id="Oval_10" cx="277.564" cy="61.333" r="28.5284" transform="rotate(-45 277.564 61.333)" fill="#E2810E"/>
<circle id="Oval_11" cx="280.034" cy="61.644" r="28.5284" transform="rotate(-45 280.034 61.644)" fill="#FFB93E"/>
<path id="Shape_3" fill-rule="evenodd" clip-rule="evenodd" d="M260.352 44.939C252.234 54.3155 251.864 68.1262 259.469 77.9242C263.683 83.3844 269.903 86.9305 276.745 87.7722C289.045 89.3211 300.725 81.958 304.641 70.1863C308.558 58.4145 303.621 45.5131 292.849 39.3724C282.077 33.2318 268.471 35.5625 260.352 44.939ZM276.939 86.2446C263.552 84.5577 254.066 72.3295 255.751 58.9316V58.9246C257.454 45.5361 269.663 36.0532 283.045 37.7256C296.431 39.4137 305.916 51.6428 304.229 65.0405C302.543 78.4383 290.325 87.9315 276.939 86.2446Z" fill="#FFA412"/>
<path id="Path_138" d="M284.385 69.0188C284.39 68.5108 284.305 68.006 284.134 67.5275C283.965 67.0812 283.695 66.68 283.345 66.3552C282.925 65.9694 282.452 65.6464 281.939 65.3961C281.258 65.062 280.553 64.7775 279.831 64.545C278.514 64.0997 277.222 63.5871 275.958 63.0092C274.883 62.5264 273.879 61.8993 272.973 61.1451C272.161 60.4602 271.501 59.6128 271.036 58.6573C270.138 56.5801 270.093 54.2323 270.912 52.1224C271.305 51.1868 271.891 50.3447 272.631 49.651C273.417 48.9199 274.327 48.3361 275.319 47.9276C276.44 47.4642 277.625 47.1733 278.833 47.0648L278.802 42.7481L282.274 42.7246L282.305 47.0999C283.486 47.2325 284.637 47.5598 285.711 48.0683C287.707 49.0028 289.241 50.7051 289.963 52.7883C290.369 53.9575 290.572 55.1875 290.563 56.4251L284.294 56.4696C284.284 54.8564 283.918 53.652 283.195 52.8563C282.472 52.0607 281.511 51.6699 280.313 51.684C279.741 51.6752 279.171 51.7722 278.634 51.97C278.198 52.1322 277.803 52.3893 277.479 52.7227C277.175 53.0431 276.948 53.4277 276.813 53.8482C276.669 54.2981 276.6 54.7686 276.607 55.241C276.606 55.7014 276.685 56.1584 276.841 56.5915C277.005 57.0161 277.264 57.3972 277.598 57.7053C278.022 58.0912 278.499 58.4135 279.015 58.662C279.726 59.0138 280.456 59.3223 281.204 59.5858C282.609 60.0985 283.889 60.6269 285.043 61.1709C286.114 61.6599 287.114 62.2908 288.016 63.0467C289.757 64.4975 290.73 66.6712 290.654 68.9367C290.678 70.0304 290.475 71.1171 290.057 72.128C289.66 73.0586 289.071 73.8946 288.328 74.5806C287.535 75.2995 286.616 75.8662 285.617 76.2524C284.483 76.6956 283.291 76.9758 282.077 77.0848L282.106 81.099L278.657 81.1225L278.629 77.1364C277.44 77.0265 276.268 76.7713 275.141 76.3767C274.043 75.9955 273.028 75.4108 272.146 74.6533C271.245 73.8639 270.525 72.8878 270.038 71.7927C269.477 70.4832 269.201 69.0693 269.227 67.6448L275.497 67.6002C275.477 68.4158 275.62 69.2271 275.916 69.9872C276.152 70.5739 276.524 71.0962 277.001 71.5113C277.446 71.8882 277.971 72.1606 278.535 72.3085C279.106 72.4584 279.693 72.5317 280.283 72.5266C280.89 72.5333 281.494 72.4406 282.07 72.2522C282.544 72.0962 282.982 71.8458 283.357 71.516C283.696 71.212 283.96 70.8342 284.13 70.4116C284.306 69.9687 284.392 69.4954 284.385 69.0188V69.0188Z" fill="#FFA412"/>
<path id="Path_139" d="M254.615 87.6786C253.369 86.9564 252.308 85.5683 250.728 84.8649C250.049 84.5961 249.342 84.4026 248.62 84.288C242.365 83.7558 226.108 82.4474 225.34 82.1098C224.428 81.7111 208.847 71.3942 208.847 71.3942L215.805 65.8887L229.861 75.7367C230.74 75.9407 247.123 79.1272 247.123 79.1272C247.123 79.1272 250.429 79.8635 252.167 80.1167C252.925 80.1714 253.686 80.1518 254.439 80.0581C255.269 79.969 256.946 79.9971 257.335 80.1073C257.785 80.2363 258.708 80.5317 259.261 80.717C259.814 80.9022 260.47 81.0968 260.751 81.2305C261.043 81.3125 261.345 81.3497 261.648 81.3407C261.854 81.3442 262.036 81.4735 262.107 81.6663C262.179 81.8592 262.125 82.0761 261.971 82.2129C261.651 82.4943 261.034 82.5013 260.657 82.5037C259.584 82.5037 257.982 81.9058 257.991 82.0675C258 82.2293 260.221 84.1005 260.463 84.3302C260.704 84.56 263.274 86.7454 263.635 87.3339C263.996 87.9224 263.691 88.246 263.305 88.1499C262.972 88.0701 259.195 85.315 259.195 85.315C259.195 85.315 258.713 84.9633 258.741 85.2822C258.769 85.6011 262.194 88.11 262.637 88.579C263.08 89.0479 263.152 89.5708 262.548 89.62C261.812 89.681 258.331 86.7758 258.331 86.7758C258.331 86.7758 257.888 86.4194 257.811 86.6539C257.733 86.8884 260.685 88.9752 260.856 89.2941C261.027 89.613 260.889 90.0773 260.327 89.9975C259.666 89.9155 256.578 87.2964 256.578 87.2964C256.578 87.2964 256.288 87.1651 256.302 87.348C256.316 87.5309 258.706 89.4887 258.792 89.8991C258.819 89.9855 258.809 90.0791 258.765 90.158C258.72 90.2368 258.646 90.2941 258.558 90.3164C257.921 90.6283 255.862 88.3984 254.615 87.6786Z" fill="#FFB27D"/>
<path id="Path_140" d="M214.608 78.0088C214.608 78.0088 216.765 75.9853 218.042 74.4588C218.897 73.4388 222.533 68.7915 222.533 68.7915C222.533 68.7915 216.348 61.0937 213.476 58.6363C202.934 49.6184 200.891 60.2777 200.98 62.4911C201.184 67.448 214.608 78.0088 214.608 78.0088Z" fill="#004CA5"/>
<path id="Shape_4" fill-rule="evenodd" clip-rule="evenodd" d="M468.935 186.184C468.935 187.3 469.736 188.208 470.722 188.208C471.706 188.208 472.507 187.3 472.507 186.184C472.507 185.068 471.708 184.161 470.722 184.161C469.736 184.161 468.935 185.068 468.935 186.184ZM469.527 186.184C469.527 185.394 470.064 184.754 470.722 184.754C471.376 184.754 471.917 185.396 471.917 186.184C471.917 186.972 471.38 187.614 470.722 187.614C470.064 187.614 469.527 186.974 469.527 186.184Z" fill="white"/>
</g>
</svg>
