<svg width="80" height="50" viewBox="0 0 80 50" fill="none" xmlns="http://www.w3.org/2000/svg">
<path d="M23.4821 15.4427C24.8162 15.4427 25.5172 18.4283 22.7133 18.6342C23.8439 18.7829 23.5161 21.2423 22.035 21.2423H18.1345C15.4252 22.0717 12.534 22.0717 9.8247 21.2423C9.27072 21.0936 8.69412 20.922 8.0836 20.7161L7.81227 20.6246H6.45557V10.6726H7.81227L9.37247 10.2722C9.80209 10.1578 10.1978 10.0549 10.5596 9.94048H10.6613C12.6463 9.31351 14.5752 8.51756 16.4273 7.56115C18.7406 7.06893 21.1421 7.21511 23.3804 7.9844C25.5285 8.87664 25.8564 10.7298 23.9457 11.5076C25.4267 11.1988 26.399 15.0194 23.4821 15.4427Z" fill="#FECBAA"/>
<path d="M18.5869 8.28199C18.5869 8.28199 12.5496 11.4392 10.0962 10.9473C10.8694 8.9861 12.371 7.4093 14.2793 6.55469C14.8786 6.32591 15.7604 4.51854 16.4388 2.85988C16.8155 1.96214 17.1476 1.04587 17.4337 0.114502C17.6612 0.164536 17.8843 0.233402 18.1007 0.320405C20.1697 1.08682 19.6722 3.02002 18.5869 8.28199Z" fill="#FECBAA"/>
<path d="M18.2474 1.0523C18.2857 2.01489 17.5479 2.82781 16.5968 2.87111H16.4385C16.8152 1.97337 17.1473 1.0571 17.4334 0.125732C17.6609 0.175766 17.884 0.244632 18.1004 0.331635C18.2004 0.558275 18.2505 0.804148 18.2474 1.0523Z" fill="#FDD2A3"/>
<path d="M9.82459 21.2767C9.27061 21.1279 8.69401 20.9564 8.0835 20.7505C7.60368 20.0651 7.60368 19.148 8.0835 18.4626C8.35374 19.5639 8.96357 20.5496 9.82459 21.2767Z" fill="#FEB688"/>
<path d="M9.82475 12.4113C9.47333 11.7614 9.31621 11.0222 9.37251 10.2836C9.80213 10.1692 10.1978 10.0663 10.5596 9.9519C9.94557 10.6089 9.67328 11.5202 9.82475 12.4113Z" fill="#FEB688"/>
<rect y="9.74609" width="7.63143" height="12.1368" fill="#0079EB"/>
<path d="M5.57379 12.0911C5.57376 12.453 5.35766 12.779 5.02674 12.9164C4.69583 13.0538 4.31566 12.9754 4.06436 12.7178C3.81307 12.4602 3.74044 12.0746 3.8805 11.7416C4.02056 11.4086 4.34557 11.1942 4.70324 11.1988C5.18586 11.2051 5.57383 11.6027 5.57379 12.0911Z" fill="#D7C3B7"/>
<path d="M56.5065 15.4427C55.1724 15.4427 54.4715 18.4283 57.2753 18.6342C56.1447 18.7829 56.4726 21.2423 57.9537 21.2423H61.922C64.6313 22.0717 67.5225 22.0717 70.2318 21.2423C70.7858 21.0936 71.3624 20.922 71.9729 20.7161L72.2442 20.6246H73.567V10.6726H72.199L70.6388 10.2723C70.2092 10.1579 69.8135 10.0549 69.5082 9.94052H69.3951C67.4133 9.31514 65.488 8.51912 63.6405 7.56119C61.3235 7.06857 58.9182 7.21475 56.6761 7.98444C54.528 8.87669 54.2001 10.7298 56.1108 11.5077C54.5958 11.1988 53.6122 15.0195 56.5065 15.4427Z" fill="#FECBAA"/>
<path d="M61.4247 8.28199C61.4247 8.28199 67.4733 11.4392 69.9153 10.9473C69.1484 8.98202 67.6448 7.40312 65.7322 6.55469C65.133 6.32591 64.2624 4.51854 63.5728 2.85988C63.0753 1.64734 62.6909 0.50343 62.5779 0.114502C62.3503 0.164536 62.1272 0.233402 61.9108 0.320405C59.8418 1.08682 60.3393 3.02002 61.4247 8.28199Z" fill="#FECBAA"/>
<path d="M61.7636 1.0523C61.7253 2.01489 62.4631 2.82781 63.4143 2.87111H63.5726C63.0751 1.65857 62.6907 0.51466 62.5777 0.125732C62.3501 0.175766 62.127 0.244632 61.9106 0.331635C61.8156 0.559861 61.7657 0.804677 61.7636 1.0523Z" fill="#FDD2A3"/>
<path d="M70.1865 21.2767C70.7405 21.1279 71.3171 20.9564 71.9276 20.7505C72.4074 20.0651 72.4074 19.148 71.9276 18.4626C71.6618 19.5658 71.0512 20.5528 70.1865 21.2767Z" fill="#FEB688"/>
<path d="M70.1867 12.4113C70.5381 11.7614 70.6952 11.0222 70.6389 10.2836C70.2093 10.1692 69.8136 10.0663 69.5083 9.9519C70.1021 10.6193 70.3531 11.5293 70.1867 12.4113Z" fill="#FEB688"/>
<rect x="72.3687" y="9.74609" width="7.63143" height="12.1368" fill="#0079EB"/>
<path d="M74.4375 12.091C74.4375 12.5838 74.8323 12.9832 75.3194 12.9832C75.8064 12.9832 76.2012 12.5838 76.2012 12.091C76.2012 11.5982 75.8064 11.1987 75.3194 11.1987C74.8323 11.1987 74.4375 11.5982 74.4375 12.091Z" fill="#D7C3B7"/>
<path d="M44.805 32.4527L41.255 39.2017L37.2866 37.7032L42.0351 32.0981L43.1656 24.9144C43.215 24.1086 43.8128 23.4466 44.6015 23.3243C44.9299 23.2742 45.2655 23.3137 45.5738 23.4387L45.3477 25.9668L44.805 32.4527Z" fill="#FEB688"/>
<path d="M48.8186 24.4224L45.8564 33.0017L41.4698 39.8651L37.2866 36.2389L42.2725 32.6814L46.0939 25.246C46.3488 24.5079 47.0648 24.0375 47.835 24.1021C48.1868 24.1085 48.529 24.2199 48.8186 24.4224Z" fill="#FCC19B"/>
<path d="M48.8183 24.4223L48.0382 26.7102C47.4663 26.3442 47.2413 25.6126 47.5069 24.9829L47.8687 24.1021C48.2089 24.1151 48.5384 24.2262 48.8183 24.4223Z" fill="#FFDFBF"/>
<path d="M45.37 25.9667C44.7551 25.7412 44.3786 25.1127 44.4656 24.4568L44.6238 23.3129C44.9522 23.2627 45.2879 23.3022 45.5961 23.4273L45.37 25.9667Z" fill="#FFDFBF"/>
<path d="M51.0909 28.712L49.9603 29.9931L45.6302 34.8204L39.5589 39.0071L38.0439 35.9415L42.7019 33.2533L48.5357 28.426C49.0822 27.7846 50.0335 27.6985 50.6839 28.2315C50.8484 28.3642 50.9865 28.5272 51.0909 28.712Z" fill="#FCC19B"/>
<path d="M49.7908 27.1791L46.8739 33.2762L41.7524 39.5905L23.8778 46.7285L20.667 40.2997L27.4505 36.868C27.4505 36.868 28.5811 32.2924 31.9728 30.4278L33.8609 25.2574L34.8897 22.4319C35.272 22.3833 35.6602 22.4304 36.0203 22.5692C36.5969 22.8209 37.1509 23.4271 36.8456 24.9256C36.2803 27.7625 36.0881 28.6319 36.0881 28.6319C36.045 30.2185 35.8481 31.7971 35.5002 33.3448L37.9988 35.4267L43.3465 32.4525L47.9932 25.5891C48.3497 24.7808 49.2585 24.3833 50.0847 24.674C50.3456 24.7713 50.5787 24.9324 50.7631 25.143L49.7908 27.1791Z" fill="#FECBAA"/>
<path d="M36.0204 22.7064L35.4212 24.468C35.2046 25.1073 34.5664 25.4976 33.9062 25.3946L34.9351 22.5692C35.3025 22.528 35.6743 22.575 36.0204 22.7064Z" fill="#FFDFBF"/>
<path d="M50.7632 25.143L49.7909 27.1792C49.3818 26.7234 49.3131 26.0514 49.6213 25.5205L50.0849 24.7427C50.339 24.8202 50.5714 24.9574 50.7632 25.143Z" fill="#FFDFBF"/>
<path d="M51.0912 28.7119L49.9606 29.9931C49.7833 29.432 49.9733 28.8186 50.4355 28.4603L50.7068 28.2429C50.8621 28.3743 50.9924 28.5332 51.0912 28.7119Z" fill="#FFDFBF"/>
<path d="M43.1993 21.0822V22.6265H36.8115V21.0822C36.8115 21.0253 36.8571 20.9792 36.9133 20.9792H43.0976C43.1245 20.9792 43.1504 20.9901 43.1695 21.0094C43.1886 21.0287 43.1993 21.0549 43.1993 21.0822Z" fill="#E3E4E6"/>
<rect x="36.8115" y="22.6265" width="6.3991" height="0.629148" fill="#A9A9AA"/>
<rect x="36.8115" y="24.0564" width="6.3991" height="0.629148" fill="#A9A9AA"/>
<rect x="36.8115" y="23.2556" width="6.3991" height="0.800734" fill="#E3E4E6"/>
<path d="M43.1997 24.674V25.2688C43.1998 25.3285 43.1756 25.3856 43.1329 25.4267C43.0901 25.4678 43.0325 25.4893 42.9736 25.4862H37.0494C36.9905 25.4893 36.9329 25.4678 36.8901 25.4267C36.8473 25.3856 36.8232 25.3285 36.8232 25.2688V24.674H43.1997Z" fill="#E3E4E6"/>
<path d="M42.7023 25.4863C42.1031 26.6989 41.7639 27.9 40.4411 27.9H39.5253C38.1912 27.9 37.8634 26.7561 37.2642 25.4863H42.7023Z" fill="#5F5B5C"/>
<path d="M42.7361 25.4862L42.51 25.9438H37.5015L37.2754 25.4862H42.7361Z" fill="#3D3B3C"/>
<path d="M40.0115 0V20.9792H37.0493C35.7492 15.9689 30.9668 14.4018 31.2381 8.78519C31.3119 3.9289 35.2112 0.0243331 40.0115 0V0Z" fill="#FFB537"/>
<path d="M42.9621 20.9792H40.0112V0C44.8096 0.0244459 48.7055 3.93074 48.7732 8.78519C49.0333 14.3446 44.2509 16.0147 42.9621 20.9792Z" fill="#FFB537"/>
<path d="M18.3767 39.7209L24.8401 35.6155L31.218 45.8946L24.7546 50L18.3767 39.7209Z" fill="#0079EB"/>
<path d="M24.3413 38.7213C24.5345 39.0258 24.5268 39.4182 24.3218 39.7147C24.1168 40.0112 23.7551 40.1531 23.4062 40.0739C23.0572 39.9947 22.7901 39.7101 22.7299 39.3534C22.6697 38.9967 22.8284 38.6386 23.1316 38.4468C23.3275 38.3192 23.5658 38.2764 23.7932 38.328C24.0206 38.3796 24.218 38.5213 24.3413 38.7213Z" fill="#D7C3B7"/>
<path d="M37.6031 5.94823C37.6031 6.68739 37.0109 7.2866 36.2803 7.2866C35.5497 7.2866 34.9575 6.68739 34.9575 5.94823C34.9575 5.20907 35.5497 4.60986 36.2803 4.60986C36.6311 4.60986 36.9676 4.75087 37.2156 5.00186C37.4637 5.25286 37.6031 5.59328 37.6031 5.94823Z" fill="white"/>
</svg>
