<svg width="16" height="16" viewBox="0 0 16 16" fill="none" xmlns="http://www.w3.org/2000/svg">
<rect opacity="0.01" width="16" height="16" fill="#ABB3C4"/>
<path fill-rule="evenodd" clip-rule="evenodd" d="M12 2.66683H11.3333V2.00016C11.3333 1.63197 11.0349 1.3335 10.6667 1.3335C10.2985 1.3335 10 1.63197 10 2.00016V2.66683H6V2.00016C6 1.63197 5.70152 1.3335 5.33333 1.3335C4.96514 1.3335 4.66667 1.63197 4.66667 2.00016V2.66683H4C2.89543 2.66683 2 3.56226 2 4.66683V12.6668C2 13.7714 2.89543 14.6668 4 14.6668H12C13.1046 14.6668 14 13.7714 14 12.6668V4.66683C14 3.56226 13.1046 2.66683 12 2.66683ZM4 4.00016H4.66667V4.66683C4.66667 5.03502 4.96514 5.3335 5.33333 5.3335C5.70152 5.3335 6 5.03502 6 4.66683V4.00016H10V4.66683C10 5.03502 10.2985 5.3335 10.6667 5.3335C11.0349 5.3335 11.3333 5.03502 11.3333 4.66683V4.00016H12C12.3682 4.00016 12.6667 4.29864 12.6667 4.66683V7.3335H3.33333V4.66683C3.33333 4.29864 3.63181 4.00016 4 4.00016ZM4 13.3335H12C12.3682 13.3335 12.6667 13.035 12.6667 12.6668V8.66683H3.33333V12.6668C3.33333 13.035 3.63181 13.3335 4 13.3335Z" fill="#ABB3C4"/>
<circle cx="5.33317" cy="10.6667" r="0.666667" fill="#ABB3C4"/>
<path d="M10.6668 10H8.00016C7.63197 10 7.3335 10.2985 7.3335 10.6667C7.3335 11.0349 7.63197 11.3333 8.00016 11.3333H10.6668C11.035 11.3333 11.3335 11.0349 11.3335 10.6667C11.3335 10.2985 11.035 10 10.6668 10Z" fill="#ABB3C4"/>
</svg>
