<svg width="29" height="28" viewBox="0 0 29 28" fill="none" xmlns="http://www.w3.org/2000/svg">
<rect x="0.5" width="28" height="28" rx="10" fill="#C7EBFF"/>
<path fill-rule="evenodd" clip-rule="evenodd" d="M9.46167 15.3306L4.85326 13.6514C4.38519 13.4802 4.38113 12.8351 4.84786 12.6594L23.7609 5.53648C24.1618 5.38509 24.5756 5.72802 24.4882 6.13909L21.0941 22.0776C21.0141 22.4539 20.5622 22.6246 20.2432 22.3982L15.61 19.1143C15.3286 18.9149 14.9451 18.9255 14.6758 19.1397L12.107 21.1842C11.8088 21.4222 11.3595 21.2896 11.2454 20.9309L9.46167 15.3306ZM19.9645 9.02128L10.9579 14.4367C10.6127 14.6448 10.4502 15.0517 10.5617 15.4327L11.5355 18.7732C11.6047 19.0099 11.9566 18.9856 11.9901 18.741L12.2433 16.9092C12.2911 16.5643 12.4596 16.2465 12.7209 16.0091L20.1539 9.26379C20.2929 9.13791 20.1263 8.92424 19.9645 9.02128Z" fill="#0084F4"/>
</svg>
