<svg width="16" height="16" viewBox="0 0 16 16" fill="none" xmlns="http://www.w3.org/2000/svg">
<g id="arrow-forward-outline">
<rect id="Rectangle" opacity="0.01" y="16" width="16" height="16" transform="rotate(-90 0 16)" fill="#0084F4"/>
<path id="Path" d="M3.33317 8.66683H11.2398L8.81984 11.5735C8.5842 11.857 8.623 12.2779 8.9065 12.5135C9.19001 12.7491 9.61086 12.7103 9.8465 12.4268L13.1798 8.42683C13.2023 8.39501 13.2223 8.36159 13.2398 8.32683C13.2398 8.2935 13.2732 8.2735 13.2865 8.24016C13.3167 8.16372 13.3325 8.08236 13.3332 8.00016C13.3325 7.91797 13.3167 7.8366 13.2865 7.76016C13.2865 7.72683 13.2532 7.70683 13.2398 7.6735C13.2223 7.63874 13.2023 7.60531 13.1798 7.5735L9.8465 3.5735C9.7196 3.42114 9.53146 3.33318 9.33317 3.3335C9.1774 3.33319 9.02644 3.38744 8.9065 3.48683C8.77017 3.59986 8.68441 3.7625 8.66815 3.93885C8.65189 4.1152 8.70646 4.29078 8.81984 4.42683L11.2398 7.3335H3.33317C2.96498 7.3335 2.6665 7.63197 2.6665 8.00016C2.6665 8.36835 2.96498 8.66683 3.33317 8.66683Z" fill="#0084F4"/>
</g>
</svg>
