<svg width="64" height="64" viewBox="0 0 64 64" fill="none" xmlns="http://www.w3.org/2000/svg">
<g id="ic_bisnis">
<path id="Shape" fill-rule="evenodd" clip-rule="evenodd" d="M43.1997 13.8667V17.0667H50.6664C53.6119 17.0667 55.9997 19.4546 55.9997 22.4001V35.2001C55.9997 35.7892 55.5222 36.2667 54.9331 36.2667H53.8664V48.0001C53.8664 50.9456 51.4786 53.3334 48.5331 53.3334H16.5331C13.5876 53.3334 11.1997 50.9456 11.1997 48.0001V36.2667H10.1331C9.54397 36.2667 9.06641 35.7892 9.06641 35.2001V22.4001C9.06641 19.4546 11.4542 17.0667 14.3997 17.0667H21.8664V13.8667C21.8664 12.0994 23.2991 10.6667 25.0664 10.6667H39.9997C41.7671 10.6667 43.1997 12.0994 43.1997 13.8667ZM25.0664 12.8001C24.4773 12.8001 23.9997 13.2776 23.9997 13.8667V17.0667H41.0664V13.8667C41.0664 13.2776 40.5888 12.8001 39.9997 12.8001H25.0664ZM53.8664 34.1334H39.9997V36.2668H51.7331V48.0001C51.7331 49.7674 50.3004 51.2001 48.5331 51.2001H16.5331C14.7658 51.2001 13.3331 49.7674 13.3331 48.0001V36.2668H25.0664V34.1334H11.1997V22.4001C11.1997 20.6328 12.6324 19.2001 14.3997 19.2001H50.6664C52.4337 19.2001 53.8664 20.6328 53.8664 22.4001V34.1334ZM30.3997 28.8001H34.6664C36.4337 28.8001 37.8664 30.2328 37.8664 32.0001V38.4001C37.8664 40.1674 36.4337 41.6001 34.6664 41.6001H30.3997C28.6324 41.6001 27.1997 40.1674 27.1997 38.4001V32.0001C27.1997 30.2328 28.6324 28.8001 30.3997 28.8001ZM35.7331 38.4001C35.7331 38.9892 35.2555 39.4667 34.6664 39.4667H30.3997C29.8106 39.4667 29.3331 38.9892 29.3331 38.4001V32.0001C29.3331 31.411 29.8106 30.9334 30.3997 30.9334H34.6664C35.2555 30.9334 35.7331 31.411 35.7331 32.0001V38.4001ZM32.5331 34.1334C31.944 34.1334 31.4664 34.611 31.4664 35.2001C31.4664 35.7892 31.944 36.2667 32.5331 36.2667C33.1222 36.2667 33.5997 35.7892 33.5997 35.2001C33.5997 34.611 33.1222 34.1334 32.5331 34.1334Z" fill="white"/>
</g>
</svg>
