<svg width="29" height="28" viewBox="0 0 29 28" fill="none" xmlns="http://www.w3.org/2000/svg">
<rect x="0.5" width="28" height="28" rx="10" fill="#C7EBFF"/>
<path d="M24.5 14C24.5 8.47656 20.0234 4 14.5 4C8.97656 4 4.5 8.47656 4.5 14C4.5 19.5234 8.97656 24 14.5 24C14.5586 24 14.6172 24 14.6758 23.9961V16.2148H12.5273V13.7109H14.6758V11.8672C14.6758 9.73047 15.9805 8.56641 17.8867 8.56641C18.8008 8.56641 19.5859 8.63281 19.8125 8.66406V10.8984H18.5C17.4648 10.8984 17.2617 11.3906 17.2617 12.1133V13.707H19.7422L19.418 16.2109H17.2617V23.6133C21.4414 22.4141 24.5 18.5664 24.5 14Z" fill="#0084F4"/>
</svg>
