<svg width="64" height="64" viewBox="0 0 64 64" fill="none" xmlns="http://www.w3.org/2000/svg">
<g id="ic_investor">
<path id="Shape" fill-rule="evenodd" clip-rule="evenodd" d="M42.7732 27.7332C46.1866 25.9199 48.5332 22.2932 48.7466 18.1332V18.0266V17.7066C48.7466 11.4132 43.6266 6.3999 37.4399 6.3999C33.2799 6.3999 29.4399 8.74657 27.4132 12.4799C26.5599 14.0799 26.1332 15.8932 26.1332 17.7066C26.1332 21.9732 28.5866 25.8132 32.1066 27.7332C29.4399 28.4799 26.9866 29.8666 24.8532 31.7866C23.1466 31.0399 21.3332 30.6132 19.4132 30.6132C12.2666 30.5066 6.3999 36.3732 6.3999 43.5199C6.3999 50.6666 12.2666 56.5332 19.4132 56.5332C25.1732 56.5332 30.2932 52.5866 31.8932 47.1466H56.5332V46.0799C56.5332 37.4399 50.7732 30.0799 42.7732 27.7332ZM37.4399 8.53324C41.5999 8.53324 45.2266 11.4132 46.2932 15.2532L43.9466 12.9066C42.7732 11.7332 41.2799 11.0932 39.6799 11.0932C38.0799 11.0932 36.5866 11.7332 35.4132 12.9066C33.9199 14.3999 31.3599 14.3999 29.8666 12.9066L29.7599 12.7999C31.3599 10.1332 34.2399 8.53324 37.4399 8.53324ZM28.7999 14.7199C28.4799 15.6799 28.2666 16.6399 28.2666 17.7066C28.2666 22.7199 32.3199 26.8799 37.3332 26.9866H37.4399H37.5466C42.3466 26.8799 46.1866 23.2532 46.6132 18.5599L42.4532 14.3999C40.9599 12.9066 38.3999 12.9066 36.9066 14.3999C36.5866 14.7199 36.2666 14.9332 35.9466 15.1466C35.8932 15.1466 35.8666 15.1732 35.8399 15.1999C35.8132 15.2266 35.7866 15.2532 35.7332 15.2532C35.5199 15.4666 35.1999 15.5732 34.8799 15.4666C34.1332 15.7866 33.3866 15.8932 32.6399 15.8932C32.2132 15.8932 31.7866 15.8932 31.4666 15.7866H31.2532C31.0399 15.7866 30.7199 15.6799 30.3999 15.5732C30.3466 15.5732 30.2932 15.5466 30.2399 15.5199C30.1866 15.4932 30.1332 15.4666 30.0799 15.4666L29.4399 15.1466C29.3332 15.1466 29.2266 15.0399 29.1199 14.9332C29.0666 14.8799 29.0132 14.8532 28.9599 14.8266C28.9066 14.7999 28.8532 14.7732 28.7999 14.7199ZM19.4132 54.3999C13.4399 54.3999 8.53324 49.4932 8.53324 43.5199C8.53324 37.5466 13.4399 32.6399 19.4132 32.6399C21.2266 32.6399 22.9332 33.0666 24.5332 33.9199C28.0532 35.8399 30.2932 39.4666 30.2932 43.5199C30.2932 44.2666 30.1866 45.1199 30.0799 45.8666C28.9066 50.7732 24.5332 54.3999 19.4132 54.3999ZM32.3401 44.9066C32.3338 44.9417 32.3271 44.9772 32.3199 45.0132V44.9066H32.3401ZM32.3401 44.9066H54.1866C53.6532 36.1599 46.3999 29.1199 37.4399 29.0132H37.3332H37.2266C33.3866 29.0132 29.7599 30.3999 26.7732 32.7466L26.8799 32.8532C27.0399 33.0132 27.2266 33.1466 27.4132 33.2799C27.5999 33.4132 27.7866 33.5466 27.9466 33.7066L28.1599 33.9199L29.1199 34.8799L29.2266 34.9866C29.4798 35.2398 29.6662 35.493 29.8915 35.799C29.951 35.8798 30.0131 35.9642 30.0799 36.0532V36.1599C30.3999 36.4799 30.6132 36.9066 30.8266 37.3332C30.9332 37.3332 30.9332 37.4399 30.9332 37.4399C31.0399 37.6532 31.1199 37.8666 31.1999 38.0799C31.2799 38.2932 31.3599 38.5066 31.4666 38.7199C31.4666 38.7732 31.4932 38.7999 31.5199 38.8266C31.5466 38.8532 31.5732 38.8799 31.5732 38.9332C31.7866 39.3599 31.8932 39.7866 31.9999 40.2132C32.0612 40.2746 32.0873 40.3006 32.0984 40.332C32.1066 40.3552 32.1066 40.3812 32.1066 40.4266C32.1599 40.6399 32.1866 40.8799 32.2132 41.1199C32.2399 41.3599 32.2666 41.5999 32.3199 41.8132V42.0266C32.4266 42.5599 32.4266 42.9866 32.4266 43.5199C32.4266 44.0172 32.4266 44.4218 32.3401 44.9066Z" fill="white"/>
<path id="Shape_2" d="M21.7813 40.0854C22.123 40.4271 22.677 40.4272 23.0187 40.0854C23.3604 39.7437 23.3604 39.1897 23.0187 38.848L21.7813 40.0854ZM19.2239 37.3209C18.7409 37.3077 18.3385 37.6886 18.3253 38.1717C18.3121 38.6547 18.693 39.0571 19.1761 39.0703L19.2239 37.3209ZM16.6999 45.8749C16.4098 45.4884 15.8614 45.4101 15.4748 45.7002C15.0883 45.9902 15.0101 46.5387 15.3001 46.9252L16.6999 45.8749ZM19.1683 48.7582C19.6513 48.7757 20.0569 48.3984 20.0744 47.9154C20.0919 47.4325 19.7146 47.0268 19.2317 47.0094L19.1683 48.7582ZM19.1765 39.0703C19.6596 39.0833 20.0617 38.7022 20.0747 38.2191C20.0876 37.736 19.7065 37.3339 19.2235 37.3209L19.1765 39.0703ZM19.2317 47.0086C18.7487 46.9911 18.3431 47.3684 18.3256 47.8514C18.3081 48.3343 18.6854 48.74 19.1683 48.7574L19.2317 47.0086ZM18.325 38.1956C18.325 38.6789 18.7168 39.0706 19.2 39.0706C19.6832 39.0706 20.075 38.6789 20.075 38.1956H18.325ZM20.075 36.2666C20.075 35.7834 19.6832 35.3916 19.2 35.3916C18.7168 35.3916 18.325 35.7834 18.325 36.2666H20.075ZM20.075 47.8838C20.075 47.4005 19.6832 47.0088 19.2 47.0088C18.7168 47.0088 18.325 47.4005 18.325 47.8838H20.075ZM18.325 50.1333C18.325 50.6165 18.7168 51.0083 19.2 51.0083C19.6832 51.0083 20.075 50.6165 20.075 50.1333H18.325ZM23.0187 38.848C22.1047 37.9339 20.5925 37.3584 19.2239 37.3209L19.1761 39.0703C20.1725 39.0975 21.2332 39.5373 21.7813 40.0854L23.0187 38.848ZM15.3001 46.9252C16.1905 48.1118 17.7532 48.707 19.1683 48.7582L19.2317 47.0094C18.1786 46.9712 17.1853 46.5218 16.6999 45.8749L15.3001 46.9252ZM19.2235 37.3209C18.3991 37.2988 17.5127 37.4693 16.811 38.001C16.0729 38.5602 15.6588 39.4288 15.6588 40.5329H17.4088C17.4088 39.8991 17.6246 39.5801 17.8679 39.3958C18.1476 39.1838 18.5943 39.0547 19.1765 39.0703L19.2235 37.3209ZM15.6588 40.5329C15.6588 41.0733 15.7847 41.5565 16.0346 41.9751C16.2814 42.3887 16.621 42.6923 16.9806 42.9212C17.6649 43.3567 18.5405 43.5873 19.2367 43.7772C20.007 43.9873 20.598 44.1567 21.0136 44.4212C21.2039 44.5423 21.3226 44.6637 21.3966 44.7877C21.4676 44.9066 21.525 45.0735 21.525 45.3331H23.275C23.275 44.7927 23.1491 44.3095 22.8993 43.8909C22.6525 43.4773 22.3128 43.1737 21.9532 42.9449C21.2689 42.5093 20.3934 42.2787 19.6972 42.0888C18.9268 41.8787 18.3358 41.7093 17.9202 41.4448C17.7299 41.3237 17.6113 41.2023 17.5373 41.0783C17.4663 40.9594 17.4088 40.7925 17.4088 40.5329H15.6588ZM21.525 45.3331C21.525 45.9587 21.2754 46.3442 20.9126 46.5982C20.5146 46.8768 19.9179 47.0334 19.2317 47.0086L19.1683 48.7574C20.1206 48.7919 21.1239 48.5865 21.9163 48.0318C22.7439 47.4524 23.275 46.5333 23.275 45.3331H21.525ZM20.075 38.1956V36.2666H18.325V38.1956H20.075ZM18.325 47.8838V50.1333H20.075V47.8838H18.325Z" fill="white"/>
</g>
</svg>
