<svg width="80" height="68" viewBox="0 0 80 68" fill="none" xmlns="http://www.w3.org/2000/svg">
<path d="M0.581129 46.9701C-0.0502951 46.5212 -0.187957 45.6786 0.270812 45.0707L6.01843 37.7151C6.39052 37.2404 6.98568 36.9688 7.61049 36.9885L11.8065 37.0904C12.5152 37.1012 13.1731 36.7439 13.52 36.1598L19.2137 26.5734C19.5605 25.9893 20.2184 25.632 20.9271 25.6428L25.339 25.7575C25.972 25.7689 26.5711 25.4882 26.9446 25.0054L32.4763 17.79C32.839 17.3033 33.439 17.0247 34.0684 17.0506L38.3319 17.1526C39.0309 17.1666 39.6825 16.8197 40.0319 16.2475L45.9414 6.6483C46.0204 6.51902 46.1155 6.39917 46.2247 6.29136L47.439 5.11855C47.7073 4.86477 48.0713 4.72217 48.4509 4.72217C48.8305 4.72217 49.1946 4.86477 49.4628 5.11855C49.7314 5.37201 49.8824 5.71597 49.8824 6.07464C49.8824 6.43332 49.7314 6.77728 49.4628 7.03074L48.37 8.07607C48.2639 8.18637 48.169 8.30588 48.0867 8.43302L41.6374 19.0138C41.2879 19.5922 40.6285 19.9405 39.924 19.9189L35.4716 19.8169C34.8427 19.7933 34.2439 20.0715 33.8795 20.5563L28.3478 27.7717C27.98 28.2542 27.3849 28.5354 26.7557 28.5238L22.5597 28.4218C21.8475 28.398 21.181 28.7523 20.8327 29.3397L15.1525 38.9389C14.8043 39.5263 14.1377 39.8806 13.4256 39.8567L9.00017 39.7548C8.37683 39.7416 7.78465 40.0118 7.40811 40.4814L2.55097 46.7024C2.07475 47.2733 1.20834 47.3911 0.581129 46.9701Z" fill="#004CA5"/>
<path d="M52.5994 8.77261L54.557 1.0624C54.6399 0.76954 54.5566 0.454856 54.3396 0.241009C54.1226 0.027161 53.8062 -0.0520047 53.5138 0.03437L45.7866 2.19323C45.4988 2.27781 45.277 2.50749 45.203 2.79758C45.129 3.08767 45.2138 3.3952 45.426 3.60677L51.1312 9.15812C51.3439 9.39806 51.6739 9.49801 51.9843 9.41649C52.2947 9.33498 52.5327 9.08591 52.5994 8.77261Z" fill="#004CA5"/>
<path d="M14.1178 67.0555H2.43213C2.03446 67.0555 1.65328 66.9021 1.37334 66.6293C1.0934 66.3565 0.937915 65.9871 0.941466 65.603V51.4634C0.937923 50.8407 1.19157 50.2424 1.64623 49.8008C2.10088 49.3593 2.71904 49.1111 3.36379 49.1111H11.6955C12.3403 49.1111 12.9584 49.3593 13.4131 49.8008C13.8677 50.2424 14.1214 50.8407 14.1178 51.4634V67.0555Z" fill="#0079EB"/>
<path d="M27.2937 67.0556H14.1172V44.9374C14.1172 43.5963 15.2282 42.5071 16.6036 42.5H24.8073C26.1826 42.5071 27.2937 43.5963 27.2937 44.9374V67.0556Z" fill="#FFB537"/>
<path d="M40.4704 67.0556H27.2939V33.6959C27.2939 32.2991 28.4857 31.1667 29.9559 31.1667H37.8085C39.2786 31.1667 40.4704 32.2991 40.4704 33.6959V67.0556Z" fill="#004CA5"/>
<path d="M53.6472 67.0555H40.4707V24.0966C40.4672 23.4703 40.7218 22.8682 41.1786 22.4229C41.6354 21.9776 42.2569 21.7256 42.9064 21.7222H51.1982C52.5529 21.7292 53.6472 22.7903 53.6472 24.0966V67.0555Z" fill="#FFB537"/>
<path d="M64.4548 67.0554H53.6475V12.6439C53.644 12.047 53.8892 11.4734 54.3289 11.0501C54.7686 10.6269 55.3664 10.3889 55.99 10.3889H64.4814C65.105 10.3889 65.7028 10.6269 66.1425 11.0501C66.5822 11.4734 66.8274 12.047 66.8239 12.6439V64.8005C66.8275 65.4018 66.5786 65.9793 66.1332 66.4033C65.6877 66.8273 65.083 67.0623 64.4548 67.0554Z" fill="#0079EB"/>
<path d="M69.6475 65.1667V67.3583C69.6475 67.7095 66.0741 68.0001 61.6475 68.0001C57.2208 68.0001 53.6475 67.7095 53.6475 67.3583V65.1667H69.6475Z" fill="#F48B00"/>
<path d="M64 68.0001V65.1667H69.6471V67.3772C69.6471 67.6459 67.2887 67.9024 64 68.0001Z" fill="#FFB93E"/>
<path d="M63.9998 68.0001H62.0575C61.0798 68.0001 60.1543 68.0001 59.2939 68.0001V65.1667H63.9477L63.9998 68.0001Z" fill="#FFB93E"/>
<path d="M59.2938 68.0001C56.5195 67.9015 54.5879 67.6675 54.5879 67.3965V65.1667H59.2938V68.0001Z" fill="#FFB93E"/>
<ellipse cx="62.1041" cy="64.602" rx="0.677233" ry="8.05566" transform="rotate(-89.78 62.1041 64.602)" fill="#E59F39"/>
<path d="M55.5293 64.6991C55.5293 64.888 58.4797 65.0391 62.1242 65.0391C65.7688 65.0391 68.7058 64.888 68.7058 64.6991C68.7058 64.5102 65.7554 64.3497 62.1242 64.3497C58.493 64.3497 55.5293 64.5008 55.5293 64.6991Z" fill="#F7CC7F"/>
<path d="M71.5293 62.3333V64.5248C71.5293 64.876 67.956 65.1666 63.5293 65.1666C59.1026 65.1666 55.5293 64.876 55.5293 64.5248V62.3333H71.5293Z" fill="#F48B00"/>
<path d="M65.8828 65.1666V62.3333H71.5299V64.5437C71.5299 64.8368 69.1432 65.0811 65.8828 65.1666Z" fill="#FFB93E"/>
<path d="M64.9412 65.1666H63.0221C62.0494 65.1666 61.1029 65.1666 60.2354 65.1666V62.3333H64.9412V65.1666Z" fill="#FFB93E"/>
<path d="M60.2352 65.1666C57.4739 65.0557 55.5293 64.834 55.5293 64.563V62.3333H60.2352V65.1666Z" fill="#FFB93E"/>
<ellipse cx="63.5293" cy="61.8611" rx="8" ry="0.472222" fill="#F48B00"/>
<ellipse cx="63.0589" cy="61.8611" rx="6.58824" ry="0.472222" fill="#F7CC7F"/>
<path d="M70.5879 59.5V61.6916C70.5879 62.0427 67.0146 62.3333 62.5879 62.3333C58.1612 62.3333 54.5879 62.0427 54.5879 61.6916V59.5H70.5879Z" fill="#F48B00"/>
<path d="M64.9414 62.3333V59.5H70.5876V61.7201C70.6398 62.0144 68.2535 62.2107 64.9414 62.3333Z" fill="#FFB93E"/>
<path d="M63.9998 62.3333H62.0885C61.0998 62.3333 60.1639 62.3333 59.2939 62.3333V59.5H63.9998V62.3333Z" fill="#FFB93E"/>
<path d="M59.2938 62.3333C56.5195 62.2344 54.5879 61.9993 54.5879 61.7394V59.5H59.2938V62.3333Z" fill="#FFB93E"/>
<ellipse cx="62.5879" cy="59.9722" rx="8" ry="0.472222" fill="#F48B00"/>
<ellipse cx="62.1175" cy="59.9722" rx="6.58824" ry="0.472222" fill="#F7CC7F"/>
<path d="M71.5293 57.6111V59.8027C71.5293 60.1538 67.956 60.4444 63.5293 60.4444C59.1026 60.4444 55.5293 60.1538 55.5293 59.8027V57.6111H71.5293Z" fill="#F48B00"/>
<path d="M65.8828 60.4444V57.6111H71.5299V59.8216C71.5299 60.1147 69.1432 60.3711 65.8828 60.4444Z" fill="#FFB93E"/>
<path d="M64.9412 60.4444H63.0221C62.0494 60.4444 61.1029 60.4444 60.2354 60.4444V57.6111H64.9412V60.4444Z" fill="#FFB93E"/>
<path d="M60.2352 60.4444C57.4739 60.3459 55.5293 60.1118 55.5293 59.8408V57.6111H60.2352V60.4444Z" fill="#FFB93E"/>
<ellipse cx="63.5293" cy="57.139" rx="8" ry="0.472222" fill="#F48B00"/>
<ellipse cx="63.0589" cy="57.139" rx="6.58824" ry="0.472222" fill="#FFA412"/>
<path d="M76.4143 65.3569C80.3759 62.5046 81.1733 57.2205 78.21 53.4571C76.8109 51.6577 74.6928 50.4622 72.3362 50.1418C69.9797 49.8213 67.5844 50.4032 65.6938 51.7554C61.7367 54.6114 60.9453 59.895 63.9115 63.6551C65.3082 65.4538 67.424 66.6491 69.7784 66.9695C72.1328 67.29 74.526 66.7084 76.4143 65.3569Z" fill="#FFB93E"/>
<path fill-rule="evenodd" clip-rule="evenodd" d="M66.2531 52.6041C64.5442 53.8938 63.4222 55.7972 63.1321 57.8991C62.8427 60.0264 63.4152 62.1804 64.7255 63.8949C65.9822 65.5717 67.8686 66.6819 69.9626 66.9771C72.0565 67.2722 74.1831 66.7276 75.8664 65.4652C77.5725 64.1751 78.6901 62.271 78.9742 60.1702C79.2826 58.0656 78.7386 55.926 77.4598 54.2133C76.2046 52.5125 74.3046 51.3844 72.1922 51.0857C70.0853 50.7736 67.9404 51.322 66.2531 52.6041ZM65.0415 63.5704C62.5526 60.2259 63.2182 55.5365 66.5428 52.9934C68.134 51.7935 70.1491 51.2767 72.132 51.5601C74.1149 51.8434 75.898 52.9029 77.0779 54.4989C79.5668 57.8433 78.9012 62.5328 75.5767 65.0759C73.9854 66.2758 71.9704 66.7926 69.9875 66.5092C68.0045 66.2259 66.2214 65.1663 65.0415 63.5704Z" fill="#FFA412"/>
<path d="M72.4351 60.4609C72.4275 60.3149 72.3881 60.1721 72.3196 60.0416C72.2515 59.9158 72.155 59.8063 72.0371 59.721C71.8979 59.6254 71.7469 59.5467 71.5877 59.4867C71.374 59.4139 71.1552 59.3562 70.9328 59.314C70.4963 59.2154 70.0854 59.1044 69.7258 58.9934C69.3916 58.8829 69.0725 58.7338 68.7757 58.5494C68.5095 58.372 68.2826 58.1456 68.108 57.8835C67.9309 57.5884 67.8215 57.2605 67.787 56.9216C67.7426 56.6082 67.7645 56.2894 67.8512 55.9843C67.9397 55.6993 68.0883 55.4349 68.2877 55.2074C68.4909 54.9629 68.7444 54.7613 69.0325 54.6154C69.3507 54.4468 69.6922 54.3222 70.0468 54.2455L69.8928 53.0122L70.9328 52.8889L71.0869 54.1221C71.4402 54.1232 71.7911 54.1773 72.127 54.2825C72.4391 54.3888 72.7269 54.5521 72.9744 54.7634C73.2188 54.9782 73.4154 55.2383 73.5522 55.528C73.7153 55.8541 73.8195 56.2044 73.8604 56.5639L71.9857 56.7859C71.9723 56.4032 71.8123 56.0387 71.5363 55.7623C71.287 55.5608 70.96 55.4711 70.6375 55.5157C70.4683 55.5351 70.3034 55.5809 70.1496 55.6513C70.0265 55.7174 69.9176 55.8053 69.8286 55.9103C69.7512 56.0176 69.6986 56.1395 69.6745 56.268C69.6481 56.4024 69.6481 56.5404 69.6745 56.6749C69.6977 56.8102 69.7364 56.9425 69.79 57.0695C69.858 57.1848 69.9498 57.2855 70.0597 57.3655C70.1989 57.4611 70.3498 57.5398 70.5091 57.5998C70.7017 57.5998 70.92 57.7355 71.1896 57.7971C71.598 57.8868 72.0009 57.998 72.3966 58.1301C72.7337 58.2393 73.0535 58.3929 73.3468 58.5864C73.6116 58.7564 73.835 58.9794 74.0016 59.24C74.1868 59.5369 74.3009 59.8697 74.3355 60.2143C74.3743 60.5326 74.3481 60.8551 74.2584 61.1639C74.1721 61.4435 74.028 61.7035 73.8347 61.9285C73.6205 62.1638 73.3639 62.3601 73.0771 62.5081C72.7556 62.6767 72.4092 62.7973 72.0499 62.8657L72.1912 64.0989L71.1639 64.2222L71.0227 63.0507C70.6645 63.0613 70.3064 63.0282 69.957 62.952C69.6162 62.8754 69.2938 62.7373 69.0068 62.5451C68.7063 62.346 68.4562 62.0847 68.2749 61.7805C68.0587 61.4004 67.9316 60.9795 67.9025 60.5472L69.7644 60.3253C69.7888 60.5655 69.8584 60.7995 69.9698 61.0159C70.1401 61.3351 70.4606 61.5556 70.8301 61.6078C71.0046 61.6324 71.182 61.6324 71.3565 61.6078C71.5381 61.588 71.7155 61.5423 71.883 61.4722C72.0195 61.4095 72.1417 61.3215 72.2425 61.2132C72.3313 61.1124 72.397 60.9947 72.4351 60.8679C72.4657 60.7338 72.4657 60.595 72.4351 60.4609Z" fill="#FFA412"/>
</svg>
