<svg width="25" height="24" viewBox="0 0 25 24" fill="none" xmlns="http://www.w3.org/2000/svg">
<rect opacity="0.01" x="0.5" width="24" height="24" fill="#0084F4"/>
<path d="M17.9 22.0001C9.39938 21.9891 2.51102 15.1007 2.5 6.60011C2.5 4.0596 4.55949 2.00011 7.1 2.00011C7.35834 1.99815 7.61625 2.02159 7.87 2.07011C8.11531 2.10641 8.35647 2.1667 8.59 2.25011C8.92419 2.36737 9.17143 2.65265 9.24 3.00011L10.61 9.00011C10.685 9.33103 10.5871 9.67742 10.35 9.92011C10.22 10.0601 10.21 10.0701 8.98 10.7101C9.96499 12.871 11.6932 14.6063 13.85 15.6001C14.5 14.3601 14.51 14.3501 14.65 14.2201C14.8927 13.983 15.2391 13.8851 15.57 13.9601L21.57 15.3301C21.9061 15.4081 22.1782 15.6538 22.29 15.9801C22.3744 16.2175 22.438 16.4617 22.48 16.7101C22.5202 16.9614 22.5403 17.2156 22.54 17.4701C22.5016 19.9989 20.429 22.0224 17.9 22.0001Z" fill="#0084F4"/>
</svg>
