<?xml version="1.0" encoding="UTF-8"?>
<svg width="148px" height="148px" viewBox="0 0 148 148" version="1.1" xmlns="http://www.w3.org/2000/svg" xmlns:xlink="http://www.w3.org/1999/xlink">
    <title>F17922DB-8372-4779-A795-DC29E3F02485@1,5x</title>
    <g id="Web" stroke="none" stroke-width="1" fill="none" fill-rule="evenodd">
        <g id="5.-User-management---add-user-pop-up-sukses" transform="translate(-609.000000, -198.000000)">
            <g id="element-image/img_caution" transform="translate(609.000000, 198.000000)">
                <rect id="Rectangle" x="0" y="0" width="148" height="148"></rect>
                <g id="Group-4" transform="translate(8.000000, 27.224299)">
                    <ellipse id="Oval" fill="#0084F4" opacity="0.11500622" cx="55.706422" cy="55.8878505" rx="55.706422" ry="55.8878505"></ellipse>
                    <g id="caution" transform="translate(22.000000, 2.775701)" fill-rule="nonzero">
                        <path d="M41.7968378,4.73161356 L1.27167922,74.8098715 C-1.34533887,79.3337462 0.206333486,85.1193083 4.73745159,87.7318344 C6.17789296,88.5625739 7.81206164,89 9.47558294,89 L90.5259001,89 C95.7583915,89 100,84.7645551 100,79.5404285 C100,77.8795665 99.5618735,76.2483187 98.7298039,74.8098715 L58.2046453,4.73161356 C55.590099,0.208047381 49.797436,-1.34299536 45.2663179,1.2676798 C43.8252586,2.0981108 42.6282895,3.29285792 41.7968378,4.73161356 Z" id="Path" fill="#F7B500"></path>
                        <g id="Group" transform="translate(44.645587, 26.272229)" fill="#FCF7ED">
                            <path d="M5.35515438,0 L5.35639028,0 C8.31389881,0 10.7115447,2.39381298 10.7115447,5.34659363 L10.7115447,27.2499824 C10.7115447,30.202763 8.31389881,32.596576 5.35639028,32.596576 L5.35515438,32.596576 C2.39764586,32.596576 0,30.202763 0,27.2499824 L0,5.34659363 C0,2.39381298 2.39733688,0 5.35515438,0 L5.35515438,0 Z" id="Path"></path>
                            <ellipse id="Oval" cx="5.35515438" cy="45.4775109" rx="5.35515438" ry="5.34659363"></ellipse>
                        </g>
                    </g>
                </g>
            </g>
        </g>
    </g>
</svg>