<svg width="16" height="16" viewBox="0 0 16 16" fill="none" xmlns="http://www.w3.org/2000/svg">
<rect opacity="0.01" width="16" height="16" fill="#ABB3C4"/>
<path fill-rule="evenodd" clip-rule="evenodd" d="M10.6668 4.66667C10.6668 6.13943 9.47292 7.33333 8.00016 7.33333C6.5274 7.33333 5.3335 6.13943 5.3335 4.66667C5.3335 3.19391 6.5274 2 8.00016 2C9.47292 2 10.6668 3.19391 10.6668 4.66667ZM9.3335 4.66667C9.3335 3.93029 8.73654 3.33333 8.00016 3.33333C7.26378 3.33333 6.66683 3.93029 6.66683 4.66667C6.66683 5.40305 7.26378 6 8.00016 6C8.73654 6 9.3335 5.40305 9.3335 4.66667Z" fill="#ABB3C4"/>
<path d="M8.00016 8.6665C5.42283 8.6665 3.3335 10.7558 3.3335 13.3332C3.3335 13.7014 3.63197 13.9998 4.00016 13.9998C4.36835 13.9998 4.66683 13.7014 4.66683 13.3332C4.66683 11.4922 6.15921 9.99984 8.00016 9.99984C9.84111 9.99984 11.3335 11.4922 11.3335 13.3332C11.3335 13.7014 11.632 13.9998 12.0002 13.9998C12.3684 13.9998 12.6668 13.7014 12.6668 13.3332C12.6668 10.7558 10.5775 8.6665 8.00016 8.6665V8.6665Z" fill="#ABB3C4"/>
</svg>
