<svg width="162" height="48" viewBox="0 0 162 48" fill="none" xmlns="http://www.w3.org/2000/svg">
<path d="M155.749 48H5.99035C2.69569 48 0 45.3 0 42V6.00003C0 2.7 2.69564 0 5.99035 0H155.749C159.043 0 161.739 2.7 161.739 6.00003V42C161.739 45.3 159.044 48 155.749 48" fill="black"/>
<path d="M155.749 0H5.99035C2.69569 0 0 2.7 0 6.00003V42C0 45.3 2.69564 48 5.99035 48H155.749C159.043 48 161.739 45.3 161.739 42V6.00003C161.739 2.7 159.044 0 155.749 0M155.749 0.95997C158.524 0.95997 160.781 3.22129 160.781 6.00003V42C160.781 44.7792 158.523 47.0405 155.749 47.0405H5.99035C3.21613 47.0405 0.958464 44.7792 0.958464 42V6.00003C0.958464 3.22129 3.21608 0.960024 5.99035 0.960024H155.749" fill="#A6A6A6"/>
<path d="M56.81 12.2922C56.81 13.2975 56.5128 14.0981 55.9175 14.6954C55.2412 15.4055 54.3599 15.7609 53.2765 15.7609C52.239 15.7609 51.3568 15.4009 50.6314 14.6799C49.9047 13.9594 49.542 13.066 49.542 12.0001C49.542 10.9336 49.9047 10.0408 50.6314 9.31971C51.3568 8.5993 52.239 8.23877 53.2765 8.23877C53.7913 8.23877 54.2842 8.33962 54.7522 8.54073C55.2201 8.74232 55.5955 9.00993 55.8763 9.34505L55.2445 9.97831C54.7686 9.4088 54.1134 9.12426 53.2765 9.12426C52.5199 9.12426 51.8656 9.39057 51.3134 9.92352C50.761 10.457 50.485 11.1488 50.485 12.0001C50.485 12.8514 50.761 13.5431 51.3134 14.0767C51.8656 14.6096 52.5198 14.8759 53.2765 14.8759C54.0792 14.8759 54.7484 14.6082 55.2843 14.072C55.6321 13.7227 55.8332 13.2371 55.887 12.6136H53.2765V11.7488H56.7599C56.7935 11.9369 56.8099 12.1173 56.8099 12.2922" fill="white"/>
<path d="M56.8106 12.292H56.6908C56.6898 13.2745 56.4033 14.0376 55.8333 14.6104L55.832 14.6114L55.8315 14.6124C55.1768 15.298 54.3352 15.6393 53.277 15.6408C52.2672 15.6393 51.422 15.2943 50.7162 14.5949C50.0119 13.8942 49.6637 13.0387 49.6624 12C49.6637 10.9608 50.0119 10.1057 50.7162 9.40544C51.422 8.70558 52.2672 8.3601 53.277 8.35865C53.7764 8.35865 54.252 8.45626 54.7054 8.65074C55.1593 8.84672 55.5179 9.10354 55.7851 9.42238L55.8768 9.34493L55.7922 9.2601L55.1603 9.89379L55.245 9.97819L55.3373 9.90139C54.8392 9.30368 54.1402 9.00236 53.2771 9.00414C52.4923 9.00317 51.802 9.28405 51.231 9.83722C50.6545 10.3922 50.3648 11.1229 50.3658 12C50.3648 12.877 50.6545 13.6077 51.231 14.1627C51.802 14.7159 52.4923 14.9967 53.277 14.9958C54.1063 14.9972 54.8131 14.7154 55.3695 14.1567C55.7411 13.7835 55.9518 13.2666 56.007 12.6238L56.0181 12.4935H53.3969V11.8687H56.7605V11.7487L56.6425 11.7698C56.6752 11.9517 56.6907 12.1246 56.6907 12.292H56.9303C56.9303 12.1096 56.9135 11.9222 56.8783 11.7272L56.8606 11.6287H53.1573V12.7335H55.8876V12.6135L55.7683 12.6032C55.7154 13.207 55.5235 13.6617 55.2001 13.9871C54.6853 14.5008 54.0535 14.7543 53.2771 14.7558C52.5485 14.7548 51.9303 14.5035 51.3972 13.9903C50.8693 13.4788 50.6067 12.8259 50.6054 12C50.6067 11.174 50.8693 10.5211 51.3972 10.0096C51.9303 9.49637 52.5484 9.24511 53.2771 9.24414C54.0872 9.24608 54.699 9.51417 55.1534 10.0556L55.2377 10.1559L55.9616 9.42982L56.0393 9.35205L55.9686 9.26803C55.6742 8.91656 55.282 8.63758 54.8 8.43048C54.317 8.22274 53.8074 8.11865 53.2771 8.11865C52.212 8.11774 51.2929 8.49272 50.5473 9.23481C49.799 9.97544 49.4218 10.9064 49.4229 12C49.4218 13.093 49.799 14.0245 50.5478 14.7656C51.2929 15.5072 52.212 15.8817 53.2771 15.8808C54.3863 15.8817 55.3064 15.5127 56.0047 14.7782L55.918 14.6953L56.0027 14.7801C56.6233 14.159 56.9312 13.32 56.9304 12.292H56.8106M62.3328 9.28448H59.0592V11.5674H62.0114V12.4325H59.0592V14.7154H62.3328V15.5999H58.1363V8.39996H62.3328V9.28448Z" fill="white"/>
<path d="M62.3329 9.28455V9.16455H58.9395V11.6874H61.8916V12.3123L58.9394 12.3126V14.8355H62.213V15.48H58.2562V8.52002H62.213V9.28455H62.3329V9.16455V9.28455H62.4527V8.28003H58.0166V15.72H62.4527V14.5955H59.179V12.5526H62.1312V11.4474H59.179V9.40454H62.4527V9.28455H62.3329ZM66.228 15.6001H65.3037V9.28449H63.296V8.39997H68.2357V9.28449H66.228V15.6" fill="white"/>
<path d="M66.2276 15.6001V15.48H65.4231V9.16455H63.4154V8.52008H68.1155V9.16455H66.1078V15.6H66.2276V15.48V15.6H66.3474V9.40454H68.3551V8.28003H63.1758V9.40449H65.1835V15.72H66.3474V15.6H66.2276M71.8094 15.6001V8.39997H72.7328V15.6H71.8094" fill="white"/>
<path d="M71.8092 15.6001H71.9291V8.52002H72.6128V15.48H71.8092V15.6H71.9291H71.8092V15.72H72.8524V8.28003H71.6895V15.72H71.8092V15.6M76.8298 15.6001H75.9056V9.28449H73.8979V8.39997H78.8376V9.28449H76.8298V15.6" fill="white"/>
<path d="M76.83 15.6001V15.4801H76.0255V9.1646H74.0179V8.52013H78.7179V9.1646H76.7102V15.6001H76.83V15.4801V15.6001H76.9498V9.40459H78.9575V8.28008H73.7783V9.40454H75.7859V15.72H76.9498V15.6H76.83M83.6001 14.0669C84.1321 14.6063 84.7832 14.8758 85.553 14.8758C86.3229 14.8758 86.9743 14.6063 87.5055 14.0669C88.0381 13.5273 88.3049 12.8377 88.3049 12.0001C88.3049 11.1625 88.0381 10.4729 87.5055 9.93333C86.9743 9.39381 86.3229 9.12426 85.553 9.12426C84.7832 9.12426 84.1321 9.39381 83.6001 9.93333C83.0689 10.4729 82.8022 11.1625 82.8022 12.0001C82.8022 12.8377 83.0689 13.5273 83.6001 14.0669ZM88.1888 14.6696C87.4821 15.3975 86.6032 15.7609 85.553 15.7609C84.5019 15.7609 83.6234 15.3975 82.9182 14.6696C82.211 13.9425 81.8591 13.0525 81.8591 12.0001C81.8591 10.9477 82.211 10.0575 82.9182 9.33055C83.6234 8.60248 84.5019 8.23877 85.553 8.23877C86.5976 8.23877 87.4741 8.60442 88.1841 9.33524C88.8931 10.066 89.2479 10.9542 89.2479 12.0001C89.2479 13.0525 88.894 13.9425 88.1888 14.6696Z" fill="white"/>
<path d="M83.6 14.0667L83.5148 14.1511C84.0666 14.7122 84.755 14.9972 85.5529 14.9958C86.3504 14.9972 87.0397 14.7122 87.5906 14.1511C88.1461 13.5895 88.4254 12.8629 88.4246 12C88.4254 11.1371 88.1461 10.4104 87.5906 9.84881C87.0397 9.28772 86.3504 9.00274 85.5529 9.00415C84.755 9.00274 84.0666 9.28772 83.5148 9.84881C82.9607 10.4104 82.6808 11.1371 82.6822 12C82.6808 12.8628 82.9607 13.5895 83.5148 14.1511L83.6 14.0667L83.6852 13.9823C83.177 13.4643 82.9228 12.8127 82.9219 12C82.9228 11.1872 83.177 10.5356 83.6852 10.0176C84.198 9.49966 84.8106 9.2456 85.5529 9.24419C86.2947 9.2456 86.9087 9.49966 87.4203 10.0176C87.9294 10.5356 88.1835 11.1872 88.1845 12C88.1835 12.8127 87.9294 13.4643 87.4203 13.9823C86.9087 14.5003 86.2947 14.7543 85.5529 14.7557C84.8106 14.7543 84.198 14.5003 83.6852 13.9823L83.6 14.0667ZM88.1887 14.6695L88.103 14.5861C87.4161 15.2911 86.576 15.6394 85.5529 15.6408C84.5294 15.6393 83.6894 15.2911 83.0037 14.5861L83.0004 14.5823L83.0037 14.5861C82.3182 13.8787 81.9798 13.0256 81.9789 12C81.9798 10.9743 82.3182 10.1212 83.0037 9.41386C83.6894 8.70882 84.5294 8.3601 85.5529 8.3587C86.5694 8.3601 87.4075 8.71028 88.0983 9.41898C88.7863 10.1296 89.1265 10.9814 89.128 12C89.1265 13.0256 88.7873 13.8787 88.103 14.5861L88.1887 14.6695L88.2748 14.7529C89.0011 14.0058 89.3684 13.079 89.3676 12C89.3685 10.9271 88.9997 10.0022 88.27 9.25174C87.54 8.49833 86.6256 8.11736 85.5529 8.11866C84.4747 8.11736 83.5574 8.49655 82.832 9.24705V9.24651C82.1043 9.99416 81.7383 10.9209 81.7393 12C81.7383 13.079 82.1043 14.0058 82.832 14.7533L82.8352 14.7567L82.832 14.7529C83.5574 15.5034 84.4747 15.8817 85.5529 15.8808C86.6307 15.8817 87.548 15.5034 88.2748 14.7529L88.1887 14.6695ZM90.5441 15.6V8.39991H91.6682L95.1618 14.001H95.2016L95.1618 12.6135V8.39991H96.0861V15.5999H95.122L91.467 9.72736H91.4272L91.467 11.1154V15.5999H90.5441" fill="white"/>
<path d="M90.5445 15.6001H90.6643V8.52002H91.6022L95.0957 14.1211H95.3251L95.282 12.6118V8.52008H95.9667V15.48H95.1889L91.5339 9.60748H91.3046L91.3476 11.1174V15.48H90.5445V15.6H90.6643H90.5445V15.72H91.5872V11.1136L91.5475 9.72424L91.4276 9.72748V9.84748H91.4674V9.72748L91.3658 9.79128L95.056 15.72H96.2063V8.28003H95.0425V12.615L95.0822 14.0044L95.202 14.0011V13.8811H95.1622V14.0011L95.2638 13.9374L91.735 8.28003H90.4248V15.72H90.5446V15.6M128.117 36H130.352V20.9986H128.117L128.117 36ZM148.253 26.4025L145.69 32.9063H145.613L142.954 26.4024H140.545L144.534 35.4928L142.26 40.5493H144.592L150.739 26.4024L148.253 26.4025ZM135.575 34.2962C134.841 34.2962 133.821 33.9296 133.821 33.0221C133.821 31.8642 135.093 31.4204 136.19 31.4204C137.174 31.4204 137.635 31.6326 138.233 31.9225C138.059 33.3118 136.865 34.2962 135.575 34.2962ZM135.844 26.0743C134.226 26.0743 132.55 26.7886 131.856 28.3712L133.84 29.2008C134.264 28.3712 135.053 28.1007 135.883 28.1007C137.039 28.1007 138.214 28.7958 138.233 30.031V30.1852C137.828 29.9536 136.962 29.6063 135.902 29.6063C133.763 29.6063 131.585 30.7833 131.585 32.9836C131.585 34.9909 133.339 36.2841 135.304 36.2841C136.807 36.2841 137.635 35.6086 138.156 34.8174H138.233V35.9752H140.391V30.2236C140.391 27.5607 138.407 26.0743 135.844 26.0743ZM122.028 28.2286H118.848V23.0865H122.028C123.699 23.0865 124.648 24.4725 124.648 25.6575C124.648 26.82 123.699 28.2286 122.028 28.2286ZM121.971 20.9986H116.614V36H118.848V30.3165H121.971C124.448 30.3165 126.884 28.5197 126.884 25.6575C126.884 22.7954 124.448 20.9986 121.971 20.9986ZM92.7605 34.2989C91.216 34.2989 89.923 33.0038 89.923 31.2249C89.923 29.4273 91.216 28.1124 92.7605 28.1124C94.2853 28.1124 95.4819 29.4272 95.4819 31.2249C95.4819 33.0038 94.2853 34.2989 92.7605 34.2989H92.7605ZM95.3274 27.2425H95.2502C94.7485 26.6433 93.783 26.102 92.5672 26.102C90.0194 26.102 87.6841 28.3444 87.6841 31.2249C87.6841 34.0862 90.0194 36.3094 92.5672 36.3094C93.783 36.3094 94.7485 35.768 95.2502 35.1497H95.3274V35.8842C95.3274 37.8371 94.2853 38.881 92.6061 38.881C91.2357 38.881 90.3864 37.8947 90.0386 37.0636L88.0895 37.8755C88.6492 39.2288 90.1355 40.8915 92.6061 40.8915C95.231 40.8915 97.4507 39.3445 97.4507 35.5749V26.4113H95.3274V27.2425ZM98.9946 36H101.234V20.9981H98.9946V36ZM104.534 31.051C104.476 29.0789 106.059 28.0739 107.198 28.0739C108.086 28.0739 108.839 28.5183 109.089 29.1568L104.534 31.051ZM111.483 29.3499C111.059 28.2089 109.765 26.102 107.12 26.102C104.495 26.102 102.315 28.1705 102.315 31.2057C102.315 34.067 104.476 36.3094 107.371 36.3094C109.707 36.3094 111.059 34.8787 111.618 34.0476L109.881 32.8875C109.302 33.7383 108.51 34.2989 107.371 34.2989C106.233 34.2989 105.422 33.7768 104.901 32.7525L111.714 29.9297L111.483 29.3499ZM57.2004 27.668V29.8331H62.373C62.2186 31.051 61.8133 31.9402 61.1955 32.5589C60.443 33.3131 59.2656 34.1443 57.2003 34.1443C54.0155 34.1443 51.5259 31.5731 51.5259 28.3833C51.5259 25.1935 54.0155 22.622 57.2004 22.622C58.9183 22.622 60.1725 23.2988 61.0991 24.1687L62.6239 22.6416C61.3309 21.4041 59.6128 20.4568 57.2004 20.4568C52.8381 20.4568 49.1709 24.0141 49.1709 28.3833C49.1709 32.7525 52.8381 36.3094 57.2004 36.3094C59.5553 36.3094 61.3309 35.5365 62.7203 34.0862C64.1487 32.6555 64.5928 30.6451 64.5928 29.0213C64.5928 28.5183 64.5544 28.0547 64.4767 27.668H57.2004ZM70.4736 34.2989C68.9292 34.2989 67.5973 33.0229 67.5973 31.2057C67.5973 29.3691 68.9292 28.1124 70.4736 28.1124C72.0175 28.1124 73.3494 29.3691 73.3494 31.2057C73.3494 33.023 72.0175 34.2989 70.4736 34.2989ZM70.4736 26.102C67.6553 26.102 65.3584 28.2478 65.3584 31.2057C65.3584 34.1443 67.6553 36.3094 70.4736 36.3094C73.2914 36.3094 75.5883 34.1443 75.5883 31.2057C75.5883 28.2478 73.2914 26.102 70.4736 26.102ZM81.6315 34.2989C80.0877 34.2989 78.7556 33.0229 78.7556 31.2057C78.7556 29.3691 80.0877 28.1124 81.6315 28.1124C83.1754 28.1124 84.5073 29.3691 84.5073 31.2057C84.5073 33.023 83.1754 34.2989 81.6315 34.2989H81.6315ZM81.6315 26.102C78.8133 26.102 76.5168 28.2478 76.5168 31.2057C76.5168 34.1443 78.8133 36.3094 81.6315 36.3094C84.4494 36.3094 86.7463 34.1443 86.7463 31.2057C86.7463 28.2478 84.4494 26.102 81.6315 26.102H81.6315Z" fill="white"/>
<path d="M12.5903 9.13368C12.1882 9.49702 11.9482 10.103 11.9482 10.9075V10.7256V37.2709V37.0961C11.9482 37.839 12.1541 38.4127 12.5027 38.7822L12.5917 38.8675V38.8679C12.8739 39.1229 13.2357 39.2583 13.6504 39.2579C14.0555 39.2579 14.5114 39.1285 14.9925 38.8553L32.3827 28.9586L38.3562 25.5587C39.1148 25.127 39.5407 24.5702 39.6119 24.0029V24.0006C39.5407 23.4321 39.1148 22.8756 38.3562 22.4439L32.3823 19.0445L14.9926 9.14771C14.5105 8.87401 14.0543 8.74414 13.648 8.74414C13.2338 8.74414 12.8725 8.87913 12.5904 9.13368H12.5903Z" fill="#00C1FF"/>
<path d="M12.5917 38.8674L12.5027 38.7821C12.1541 38.4127 11.9482 37.8389 11.9482 37.096V37.2709V10.7321V10.9074C11.9482 10.103 12.1882 9.49694 12.5903 9.13361L27.4341 24.001L12.5917 38.8674Z" fill="url(#paint0_linear_340_28260)"/>
<path d="M32.3822 28.9585L27.4336 24.0011L32.3818 19.0444L38.3557 22.4438C39.1143 22.8756 39.5402 23.432 39.6114 24.0006V24.0028C39.5402 24.5701 39.1143 25.127 38.3557 25.5586L32.3823 28.9584" fill="url(#paint1_linear_340_28260)"/>
<path d="M13.6504 39.2578C13.2357 39.2582 12.8739 39.1227 12.5918 38.8677V38.8674L27.4342 24.0009L32.3828 28.9584L14.9925 38.8552C14.5114 39.1284 14.0555 39.2578 13.6504 39.2578Z" fill="url(#paint2_linear_340_28260)"/>
<path d="M27.4337 24.001L12.5898 9.13358C12.872 8.87903 13.2334 8.74404 13.6475 8.74404C14.0538 8.74404 14.51 8.87385 14.9921 9.1476L32.3819 19.0444L27.4337 24.001" fill="url(#paint3_linear_340_28260)"/>
<path d="M13.65 39.4336C13.2354 39.4336 12.8731 39.2981 12.5909 39.0431L12.5904 39.0436C12.5892 39.0424 12.588 39.0413 12.5867 39.0403L12.5095 38.9648C12.5071 38.9625 12.5048 38.9597 12.502 38.957L12.5909 38.8678C12.8731 39.1228 13.2349 39.2583 13.6496 39.2578C14.0547 39.2578 14.5106 39.1285 14.9917 38.8552L32.3819 28.9584L32.4934 29.0701L32.3805 29.1343L14.9917 39.0305C14.5532 39.2794 14.1362 39.4092 13.7595 39.4308C13.723 39.4326 13.6865 39.4335 13.65 39.4335" fill="url(#paint4_linear_340_28260)"/>
<path d="M12.5027 38.957C12.1541 38.5876 11.9482 38.0143 11.9482 37.2709V37.0961C11.9482 37.839 12.1541 38.4127 12.5027 38.7822L12.5917 38.8675L12.5027 38.957Z" fill="url(#paint5_linear_340_28260)"/>
<path d="M32.4933 29.07L32.3818 28.9584L38.3552 25.5586C39.1139 25.127 39.5398 24.57 39.611 24.0028C39.611 24.2109 39.5646 24.4191 39.4725 24.6216C39.2866 25.0299 38.9142 25.4157 38.3553 25.7339L32.4933 29.0701" fill="url(#paint6_linear_340_28260)"/>
<path d="M39.6115 24.0005C39.5403 23.4319 39.1144 22.8755 38.3558 22.4437L32.3818 19.0443L32.4933 18.9327H32.4937L38.3558 22.2689C39.1922 22.7451 39.611 23.3727 39.6115 24.0005Z" fill="url(#paint7_linear_340_28260)"/>
<path d="M11.9482 10.9075V10.7241C11.9482 10.658 11.95 10.5933 11.9534 10.5305V10.5277C11.9534 10.5268 11.9534 10.5259 11.9537 10.5249V10.5179C11.9898 9.87798 12.1882 9.37885 12.5027 9.04556L12.5903 9.13363C12.1882 9.49702 11.9482 10.103 11.9482 10.9075Z" fill="url(#paint8_linear_340_28260)"/>
<path d="M32.3815 19.0444L14.9917 9.14758C14.5096 8.87388 14.0534 8.74407 13.6472 8.74407C13.233 8.74407 12.8717 8.87906 12.5895 9.13361L12.502 9.04549C12.5293 9.01648 12.5577 8.98851 12.5872 8.96162C12.5881 8.96065 12.5895 8.95968 12.5905 8.95877C12.8704 8.70615 13.2279 8.57116 13.6383 8.56874H13.6472C14.0534 8.56874 14.5096 8.6986 14.9917 8.97241L32.4934 18.9324L32.4929 18.9328L32.3815 19.0444Z" fill="url(#paint9_linear_340_28260)"/>
<defs>
<linearGradient id="paint0_linear_340_28260" x1="21.4344" y1="10.4516" x2="8.64235" y2="23.2643" gradientUnits="userSpaceOnUse">
<stop stop-color="#00A0FF"/>
<stop offset="0.00657" stop-color="#00A1FF"/>
<stop offset="0.2601" stop-color="#00BEFF"/>
<stop offset="0.5122" stop-color="#00D2FF"/>
<stop offset="0.7604" stop-color="#00DFFF"/>
<stop offset="1" stop-color="#00E3FF"/>
</linearGradient>
<linearGradient id="paint1_linear_340_28260" x1="40.5357" y1="23.9154" x2="11.546" y2="23.9154" gradientUnits="userSpaceOnUse">
<stop stop-color="#FFE000"/>
<stop offset="0.4087" stop-color="#FFBD00"/>
<stop offset="0.7754" stop-color="#FFA500"/>
<stop offset="1" stop-color="#FF9C00"/>
</linearGradient>
<linearGradient id="paint2_linear_340_28260" x1="29.7555" y1="28.7143" x2="8.0785" y2="50.2677" gradientUnits="userSpaceOnUse">
<stop stop-color="#FF3A44"/>
<stop offset="1" stop-color="#C31162"/>
</linearGradient>
<linearGradient id="paint3_linear_340_28260" x1="8.76416" y1="6.92942" x2="18.4251" y2="16.5501" gradientUnits="userSpaceOnUse">
<stop stop-color="#32A071"/>
<stop offset="0.0685" stop-color="#2DA771"/>
<stop offset="0.4762" stop-color="#15CF74"/>
<stop offset="0.8009" stop-color="#06E775"/>
<stop offset="1" stop-color="#00F076"/>
</linearGradient>
<linearGradient id="paint4_linear_340_28260" x1="29.7439" y1="32.1531" x2="12.3839" y2="49.5413" gradientUnits="userSpaceOnUse">
<stop stop-color="#CC2E36"/>
<stop offset="1" stop-color="#9C0E4E"/>
</linearGradient>
<linearGradient id="paint5_linear_340_28260" x1="13.9257" y1="10.4517" x2="2.65609" y2="21.7396" gradientUnits="userSpaceOnUse">
<stop stop-color="#008DE0"/>
<stop offset="0.00657" stop-color="#008DE0"/>
<stop offset="0.2601" stop-color="#00A7E0"/>
<stop offset="0.5122" stop-color="#00B8E0"/>
<stop offset="0.7604" stop-color="#00C4E0"/>
<stop offset="1" stop-color="#00C7E0"/>
</linearGradient>
<linearGradient id="paint6_linear_340_28260" x1="40.5353" y1="24.0017" x2="11.5456" y2="24.0017" gradientUnits="userSpaceOnUse">
<stop stop-color="#E0C500"/>
<stop offset="0.4087" stop-color="#E0A600"/>
<stop offset="0.7754" stop-color="#E09100"/>
<stop offset="1" stop-color="#E08900"/>
</linearGradient>
<linearGradient id="paint7_linear_340_28260" x1="40.5358" y1="24.0017" x2="11.5462" y2="24.0017" gradientUnits="userSpaceOnUse">
<stop stop-color="#FFE840"/>
<stop offset="0.4087" stop-color="#FFCE40"/>
<stop offset="0.7754" stop-color="#FFBC40"/>
<stop offset="1" stop-color="#FFB540"/>
</linearGradient>
<linearGradient id="paint8_linear_340_28260" x1="13.9134" y1="10.4721" x2="3.05884" y2="20.8733" gradientUnits="userSpaceOnUse">
<stop stop-color="#40B8FF"/>
<stop offset="0.00657" stop-color="#40B9FF"/>
<stop offset="0.2601" stop-color="#40CEFF"/>
<stop offset="0.5122" stop-color="#40DDFF"/>
<stop offset="0.7604" stop-color="#40E7FF"/>
<stop offset="1" stop-color="#40EAFF"/>
</linearGradient>
<linearGradient id="paint9_linear_340_28260" x1="8.74217" y1="10.0736" x2="16.4942" y2="17.8383" gradientUnits="userSpaceOnUse">
<stop stop-color="#65B895"/>
<stop offset="0.0685" stop-color="#62BD95"/>
<stop offset="0.4762" stop-color="#50DB97"/>
<stop offset="0.8009" stop-color="#44ED98"/>
<stop offset="1" stop-color="#40F498"/>
</linearGradient>
</defs>
</svg>
