<svg width="82" height="82" viewBox="0 0 82 82" fill="none" xmlns="http://www.w3.org/2000/svg">
<circle cx="40.8149" cy="40.6565" r="28.5284" transform="rotate(-45 40.8149 40.6565)" fill="#FFB93E"/>
<path fill-rule="evenodd" clip-rule="evenodd" d="M21.1333 23.9515C13.0148 33.328 12.6452 47.1386 20.2505 56.9367C24.4638 62.3968 30.6846 65.943 37.5261 66.7847C49.8259 68.3336 61.506 60.9705 65.4227 49.1987C69.3394 37.427 64.4018 24.5255 53.6298 18.3849C42.8578 12.2443 29.2518 14.575 21.1333 23.9515ZM37.7199 65.2571C24.3335 63.5702 14.8477 51.3419 16.5325 37.9441V37.937C18.2357 24.5485 30.4447 15.0657 43.8259 16.738C57.2122 18.4261 66.6968 30.6552 65.0107 44.053C63.3247 57.4507 51.1064 66.944 37.7199 65.2571Z" fill="#FFA412"/>
<path d="M45.1654 48.0313C45.1702 47.5233 45.0853 47.0184 44.9147 46.54C44.7452 46.0936 44.475 45.6924 44.1252 45.3676C43.7053 44.9818 43.2318 44.6588 42.7195 44.4086C42.0381 44.0744 41.3334 43.79 40.611 43.5574C39.2948 43.1122 38.0022 42.5996 36.7384 42.0216C35.6635 41.5389 34.6594 40.9118 33.7537 40.1575C32.9415 39.4727 32.2816 38.6252 31.8163 37.6697C30.918 35.5925 30.8734 33.2448 31.6921 31.1349C32.0853 30.1993 32.6713 29.3571 33.4117 28.6635C34.1969 27.9323 35.1071 27.3486 36.0989 26.9401C37.22 26.4766 38.4048 26.1857 39.613 26.0772L39.5826 21.7605L43.0546 21.7371L43.085 26.1124C44.2661 26.245 45.4171 26.5722 46.4914 27.0808C48.4872 28.0152 50.0208 29.7175 50.7436 31.8008C51.1493 32.9699 51.3522 34.1999 51.3433 35.4375L45.074 35.4821C45.0647 33.8689 44.6984 32.6644 43.9753 31.8688C43.2521 31.0731 42.2916 30.6823 41.0937 30.6964C40.5209 30.6877 39.9515 30.7846 39.4139 30.9825C38.9779 31.1446 38.5834 31.4017 38.2589 31.7351C37.9555 32.0555 37.728 32.4402 37.5936 32.8606C37.4494 33.3105 37.3798 33.781 37.3874 34.2534C37.3864 34.7138 37.4657 35.1709 37.6217 35.604C37.785 36.0285 38.044 36.4097 38.3784 36.7178C38.8021 37.1037 39.2795 37.4259 39.7958 37.6744C40.5059 38.0262 41.2366 38.3348 41.9839 38.5983C43.3896 39.111 44.6695 39.6393 45.8237 40.1833C46.8943 40.6723 47.8943 41.3032 48.7967 42.0591C50.5369 43.51 51.5104 45.6836 51.4347 47.9492C51.4586 49.0429 51.2552 50.1296 50.8373 51.1404C50.4407 52.0711 49.8514 52.907 49.1083 53.593C48.3148 54.3119 47.396 54.8786 46.3977 55.2649C45.2629 55.708 44.0711 55.9882 42.8578 56.0972L42.8859 60.1115L39.4373 60.1349L39.4092 56.1488C38.2198 56.0389 37.0483 55.7838 35.9208 55.3891C34.8235 55.0079 33.8078 54.4233 32.9267 53.6657C32.0251 52.8763 31.3057 51.9003 30.8182 50.8051C30.2571 49.4957 29.9808 48.0817 30.0076 46.6572L36.2769 46.6127C36.2578 47.4282 36.4003 48.2395 36.6963 48.9996C36.9324 49.5864 37.3041 50.1087 37.781 50.5237C38.2267 50.9007 38.751 51.1731 39.3155 51.321C39.8858 51.4708 40.4736 51.5441 41.0632 51.539C41.67 51.5457 42.2738 51.4531 42.8507 51.2647C43.3247 51.1087 43.7622 50.8582 44.1369 50.5284C44.4758 50.2245 44.7403 49.8466 44.91 49.424C45.0859 48.9811 45.1727 48.5078 45.1654 48.0313Z" fill="#FFA412"/>
</svg>
