<svg width="24" height="24" viewBox="0 0 24 24" fill="none" xmlns="http://www.w3.org/2000/svg">
<rect opacity="0.01" width="24" height="24" fill="black"/>
<path d="M17.8104 13.39C19.5708 11.944 20.7119 9.87981 21.0004 7.61998C21.0432 7.26271 20.8922 6.90972 20.6043 6.69395C20.3163 6.47819 19.9351 6.43245 19.6043 6.57395C19.2734 6.71546 19.0432 7.02271 19.0004 7.37998C18.5061 10.8664 15.5216 13.4576 12.0004 13.4576C8.47912 13.4576 5.49463 10.8664 5.00035 7.37998C4.95748 7.02271 4.72727 6.71546 4.39643 6.57395C4.06559 6.43245 3.6844 6.47819 3.39643 6.69395C3.10847 6.90972 2.95748 7.26271 3.00035 7.61998C3.28619 9.87832 4.42368 11.9423 6.18035 13.39L3.88035 15.71C3.54058 16.1067 3.56342 16.6982 3.93279 17.0675C4.30216 17.4369 4.89359 17.4598 5.29035 17.12L7.90035 14.52C8.87016 15.0101 9.92021 15.3217 11.0004 15.44V19C11.0004 19.5523 11.4481 20 12.0004 20C12.5526 20 13.0004 19.5523 13.0004 19V15.44C14.0805 15.3217 15.1306 15.0101 16.1004 14.52L18.7104 17.12C19.1071 17.4598 19.6985 17.4369 20.0679 17.0675C20.4373 16.6982 20.4601 16.1067 20.1204 15.71L17.8104 13.39Z" fill="#0084F4"/>
</svg>
