<svg width="64" height="64" viewBox="0 0 64 64" fill="none" xmlns="http://www.w3.org/2000/svg">
<g id="ic_time">
<path id="Shape" fill-rule="evenodd" clip-rule="evenodd" d="M39.32 13.26V11.13C39.32 9.41004 37.92 8 36.19 8H27.09C25.37 8 23.96 9.41004 23.96 11.13V13.27C24.61 13.01 25.28 12.79 25.96 12.6101V11.13C25.96 10.51 26.47 10 27.09 10H36.19C36.82 10 37.32 10.51 37.32 11.13V12.6101C37.99 12.79 38.65 13 39.32 13.26ZM12 33.4901C12 22.6376 20.7794 13.85 31.64 13.85C41.4807 13.85 51.29 21.4236 51.29 33.4901C51.29 44.3369 42.49 53.14 31.64 53.14C20.901 53.14 12 44.3813 12 33.4901ZM19.02 54.4301C18.71 54.89 18.82 55.51 19.27 55.83C19.73 56.14 20.35 56.03 20.67 55.57L22.41 53.06C21.8 52.78 21.2 52.46 20.63 52.12L19.02 54.4301ZM42.6 52.15C42.02 52.4901 41.43 52.81 40.82 53.09L42.63 55.59C42.96 56.04 43.59 56.14 44.03 55.81C44.48 55.49 44.58 54.86 44.25 54.42L42.6 52.15ZM45.8 34.49H47.45C47.23 38.13 45.79 41.42 43.53 43.97L42.36 42.8C41.97 42.41 41.34 42.41 40.95 42.8C40.56 43.19 40.56 43.82 40.95 44.21L42.12 45.38C39.55 47.64 36.25 49.08 32.64 49.31V47.65C32.64 47.1 32.2 46.65 31.64 46.65C31.09 46.65 30.64 47.1 30.64 47.65V49.31C27.02 49.08 23.73 47.64 21.16 45.39L22.34 44.21C22.73 43.82 22.73 43.19 22.34 42.8C21.95 42.41 21.31 42.41 20.92 42.8L19.75 43.97C17.49 41.41 16.06 38.13 15.83 34.49H17.48C18.04 34.49 18.48 34.0501 18.48 33.4901C18.48 32.94 18.04 32.4901 17.48 32.4901H15.83C16.06 28.87 17.49 25.58 19.75 23.02L20.92 24.19C21.32 24.57 21.92 24.58 22.34 24.19C22.73 23.8 22.73 23.17 22.34 22.78L21.17 21.6101C23.73 19.3601 27.01 17.92 30.64 17.69V19.34C30.64 19.89 31.09 20.34 31.64 20.34C32.2 20.34 32.64 19.89 32.64 19.34V17.69C36.32 17.92 39.59 19.3601 42.12 21.6L40.95 22.78C40.56 23.17 40.56 23.8 40.95 24.19C41.32 24.58 42 24.57 42.36 24.19L43.53 23.02C45.8 25.6 47.23 28.91 47.46 32.4901H45.8C45.25 32.4901 44.8 32.94 44.8 33.4901C44.8 34.0501 45.25 34.49 45.8 34.49Z" fill="white"/>
<path id="Path" d="M32.6398 30.58V24.05C32.6398 23.5 32.1998 23.05 31.6398 23.05C31.0898 23.05 30.6398 23.5 30.6398 24.05V30.58C29.8098 30.88 29.1598 31.54 28.8597 32.37H24.5298C23.9797 32.37 23.5298 32.81 23.5298 33.37C23.5298 33.92 23.9797 34.37 24.5298 34.37H28.8597C29.2698 35.51 30.3597 36.34 31.6398 36.34C33.2897 36.34 34.6198 35 34.6198 33.37C34.6198 32.08 33.7897 30.99 32.6398 30.58Z" fill="white"/>
</g>
</svg>
