<svg width="70" height="70" viewBox="0 0 70 70" fill="none" xmlns="http://www.w3.org/2000/svg">
<g id="Icon-button/Previous">
<g id="Button/S/Primary/Default">
<g id="Frame" filter="url(#filter0_d_0_41130)">
<rect x="15" y="8" width="40" height="40" rx="20" fill="white"/>
</g>
</g>
<rect id="Rectangle" opacity="0.01" x="48.3335" y="14.666" width="26.6667" height="26.6667" transform="rotate(90 48.3335 14.666)" fill="black"/>
<path id="Path" d="M37.4861 35.557C37.1499 35.5581 36.8312 35.407 36.6194 35.1459L31.2528 28.4792C30.9157 28.0692 30.9157 27.4781 31.2528 27.0681L36.8083 20.4014C37.2011 19.9289 37.9025 19.8642 38.375 20.257C38.8475 20.6497 38.9122 21.3511 38.5194 21.8236L33.5528 27.7792L38.3528 33.7347C38.6302 34.0678 38.6887 34.5317 38.5025 34.9232C38.3163 35.3146 37.9195 35.562 37.4861 35.557Z" fill="#0084F4"/>
</g>
<defs>
<filter id="filter0_d_0_41130" x="0" y="0" width="70" height="70" filterUnits="userSpaceOnUse" color-interpolation-filters="sRGB">
<feFlood flood-opacity="0" result="BackgroundImageFix"/>
<feColorMatrix in="SourceAlpha" type="matrix" values="0 0 0 0 0 0 0 0 0 0 0 0 0 0 0 0 0 0 127 0" result="hardAlpha"/>
<feOffset dy="7"/>
<feGaussianBlur stdDeviation="7.5"/>
<feColorMatrix type="matrix" values="0 0 0 0 0.25098 0 0 0 0 0.705882 0 0 0 0 0.992157 0 0 0 0.16 0"/>
<feBlend mode="normal" in2="BackgroundImageFix" result="effect1_dropShadow_0_41130"/>
<feBlend mode="normal" in="SourceGraphic" in2="effect1_dropShadow_0_41130" result="shape"/>
</filter>
</defs>
</svg>
