<svg width="29" height="28" viewBox="0 0 29 28" fill="none" xmlns="http://www.w3.org/2000/svg">
<rect x="0.5" width="28" height="28" rx="10" fill="#C7EBFF"/>
<path fill-rule="evenodd" clip-rule="evenodd" d="M22.3252 7.42813C23.1818 7.65879 23.8574 8.33405 24.0878 9.19067C24.5163 10.7553 24.4998 14.0165 24.4998 14.0165C24.4998 14.0165 24.4998 17.2611 24.0881 18.8258C23.8574 19.6823 23.182 20.3576 22.3252 20.5881C20.7601 21 14.5 21 14.5 21C14.5 21 8.2561 21 6.67468 20.5718C5.81787 20.3411 5.14258 19.6658 4.91186 18.8093C4.5 17.2611 4.5 14 4.5 14C4.5 14 4.5 10.7553 4.91186 9.19067C5.14233 8.33417 5.83435 7.64231 6.67456 7.41189C8.23962 7 14.4997 7 14.4997 7C14.4997 7 20.7601 7 22.3252 7.42813ZM17.7124 14L12.5066 11.0024V16.9976L17.7124 14Z" fill="#0084F4"/>
</svg>
