<svg width="29" height="28" viewBox="0 0 29 28" fill="none" xmlns="http://www.w3.org/2000/svg">
<rect x="0.5" width="28" height="28" rx="10" fill="#C7EBFF"/>
<path d="M17.8091 14.0002C17.8091 15.8276 16.3276 17.3091 14.5002 17.3091C12.6729 17.3091 11.1914 15.8276 11.1914 14.0002C11.1914 12.1729 12.6729 10.6914 14.5002 10.6914C16.3276 10.6914 17.8091 12.1729 17.8091 14.0002Z" fill="#0084F4"/>
<path fill-rule="evenodd" clip-rule="evenodd" d="M20.0882 4H8.91176C6.47898 4 4.5 5.97898 4.5 8.41176V19.5882C4.5 22.021 6.47898 24 8.91176 24H20.0882C22.521 24 24.5 22.021 24.5 19.5882V8.41176C24.5 5.97898 22.521 4 20.0882 4ZM14.5 19.5147C11.4592 19.5147 8.98529 17.0408 8.98529 14C8.98529 10.9592 11.4592 8.48529 14.5 8.48529C17.5408 8.48529 20.0147 10.9592 20.0147 14C20.0147 17.0408 17.5408 19.5147 14.5 19.5147ZM19.7206 7.67647C19.7206 8.28567 20.2143 8.77941 20.8235 8.77941C21.4327 8.77941 21.9265 8.28567 21.9265 7.67647C21.9265 7.06727 21.4327 6.57353 20.8235 6.57353C20.2143 6.57353 19.7206 7.06727 19.7206 7.67647Z" fill="#0084F4"/>
</svg>
