<svg width="145" height="48" viewBox="0 0 145 48" fill="none" xmlns="http://www.w3.org/2000/svg">
<path d="M132.901 0.00012H12.1809C11.7408 0.00012 11.3061 0.00012 10.8671 0.00251999C10.4998 0.00491999 10.1354 0.01188 9.76444 0.01776C8.95866 0.0272383 8.15477 0.0981235 7.35977 0.229799C6.56587 0.364342 5.79684 0.618002 5.07869 0.982198C4.36145 1.34949 3.70608 1.82674 3.13637 2.39663C2.56367 2.96488 2.08627 3.6217 1.72254 4.34183C1.35779 5.0606 1.10488 5.83082 0.972537 6.6259C0.838931 7.41995 0.767036 8.22315 0.757498 9.0283C0.746338 9.39622 0.745138 9.76534 0.739258 10.1334V37.8703C0.745138 38.2429 0.746338 38.6039 0.757498 38.9767C0.767045 39.7818 0.83894 40.5849 0.972537 41.3789C1.10452 42.1744 1.35745 42.945 1.72254 43.6641C2.0861 44.3819 2.56356 45.0361 3.13637 45.6012C3.70392 46.1736 4.35971 46.6512 5.07869 47.0156C5.79683 47.3808 6.56578 47.636 7.35977 47.7726C8.15491 47.9032 8.95871 47.9741 9.76444 47.9848C10.1352 47.9929 10.4998 47.9976 10.8672 47.9976C11.3061 48 11.7408 48 12.1809 48H132.901C133.332 48 133.77 48 134.201 47.9976C134.567 47.9976 134.942 47.9929 135.308 47.9848C136.112 47.9747 136.914 47.9038 137.708 47.7726C138.504 47.635 139.276 47.3799 139.998 47.0156C140.716 46.651 141.371 46.1734 141.938 45.6012C142.51 45.0339 142.988 44.3802 143.356 43.6641C143.719 42.9445 143.969 42.1739 144.099 41.3789C144.233 40.5848 144.307 39.7818 144.322 38.9766C144.327 38.6039 144.327 38.2429 144.327 37.8703C144.336 37.4344 144.336 37.0008 144.336 36.5578V11.4435C144.336 11.004 144.336 10.5681 144.327 10.1334C144.327 9.76534 144.327 9.39622 144.322 9.02818C144.307 8.22296 144.233 7.41994 144.099 6.62578C143.969 5.83125 143.718 5.06116 143.356 4.34195C142.616 2.8984 141.441 1.72335 139.998 0.982078C139.276 0.618775 138.504 0.365183 137.708 0.229679C136.915 0.0974435 136.112 0.0265537 135.308 0.01764C134.942 0.01176 134.567 0.00467999 134.201 0.00239999C133.77 0 133.332 0 132.901 0L132.901 0.00012Z" fill="#A6A6A6"/>
<path d="M10.8733 46.9498C10.5076 46.9498 10.1509 46.9451 9.7881 46.937C9.03665 46.9272 8.28697 46.8618 7.54518 46.7414C6.8535 46.6222 6.18345 46.4006 5.55714 46.0838C4.93655 45.7696 4.37053 45.3577 3.88075 44.8639C3.38384 44.3758 2.97013 43.8097 2.65603 43.1881C2.3385 42.5624 2.11874 41.8917 2.00443 41.1994C1.88102 40.4556 1.81427 39.7034 1.80475 38.9494C1.79707 38.6964 1.78711 37.8538 1.78711 37.8538V10.1331C1.78711 10.1331 1.79767 9.30338 1.80475 9.05954C1.81389 8.30679 1.88028 7.55583 2.00335 6.81315C2.11789 6.11897 2.33783 5.44637 2.65555 4.81863C2.96845 4.1974 3.3798 3.63088 3.87367 3.14104C4.36701 2.64655 4.93487 2.23252 5.55654 1.91404C6.18143 1.59832 6.85022 1.3783 7.5405 1.26136C8.28474 1.13971 9.03704 1.07397 9.7911 1.06468L10.8739 1.0498H134.196L135.292 1.06504C136.039 1.07392 136.784 1.13915 137.522 1.26016C138.219 1.3786 138.895 1.60019 139.527 1.91764C140.772 2.55944 141.786 3.57484 142.425 4.82151C142.738 5.44495 142.954 6.1121 143.067 6.80031C143.192 7.54907 143.261 8.30592 143.276 9.06482C143.279 9.40466 143.279 9.7697 143.279 10.1331C143.289 10.5831 143.289 11.0113 143.289 11.4432V36.5575C143.289 36.9934 143.289 37.4188 143.279 37.8477C143.279 38.2379 143.279 38.5954 143.275 38.9633C143.261 39.7088 143.192 40.4521 143.069 41.1875C142.957 41.8848 142.739 42.5607 142.421 43.1915C142.105 43.8064 141.694 44.3676 141.203 44.8544C140.713 45.3509 140.146 45.7652 139.523 46.0814C138.893 46.4006 138.218 46.623 137.522 46.7411C136.78 46.8623 136.03 46.9277 135.279 46.9368C134.92 46.9452 134.561 46.9495 134.202 46.9497L132.901 46.9521L10.8733 46.9498Z" fill="black"/>
<path d="M30.4619 24.361C30.4748 23.3595 30.7409 22.3774 31.2353 21.5063C31.7297 20.6352 32.4364 19.9033 33.2897 19.3786C32.7476 18.6045 32.0325 17.9673 31.2011 17.5179C30.3698 17.0684 29.445 16.819 28.5004 16.7894C26.4852 16.5779 24.5318 17.9952 23.5048 17.9952C22.4582 17.9952 20.8772 16.8104 19.1747 16.8455C18.0735 16.881 17.0003 17.2012 16.0596 17.7749C15.119 18.3485 14.3429 19.1561 13.8071 20.1188C11.4863 24.137 13.2175 30.0422 15.4407 33.2901C16.553 34.8806 17.8528 36.657 19.5538 36.594C21.2182 36.525 21.8398 35.5326 23.8491 35.5326C25.8396 35.5326 26.4228 36.594 28.1583 36.554C29.9444 36.525 31.0696 34.9565 32.1429 33.3511C32.942 32.2178 33.557 30.9654 33.9649 29.6401C32.9273 29.2012 32.0418 28.4666 31.4189 27.5278C30.7959 26.589 30.4631 25.4877 30.4619 24.361ZM27.184 14.6533C28.1578 13.4843 28.6376 11.9817 28.5214 10.4646C27.0336 10.6209 25.6593 11.3319 24.6723 12.4561C24.1897 13.0053 23.8201 13.6442 23.5846 14.3364C23.3491 15.0285 23.2524 15.7602 23.2998 16.4898C24.044 16.4974 24.7802 16.3362 25.453 16.018C26.1258 15.6999 26.7177 15.2333 27.184 14.6533ZM51.502 32.5678H45.8219L44.4578 36.5955H42.0519L47.432 21.6939H49.9316L55.3117 36.5955H52.8648L51.502 32.5678ZM46.4101 30.7091H50.9125L48.693 24.1725H48.6308L46.4101 30.7091ZM66.9308 31.1639C66.9308 34.54 65.1237 36.7091 62.3969 36.7091C61.7061 36.7453 61.019 36.5862 60.4145 36.25C59.8099 35.9138 59.3122 35.4142 58.9784 34.8083H58.9268V40.1896H56.6968V25.7311H58.8554V27.5381H58.8965C59.2456 26.9352 59.7517 26.4382 60.3608 26.0999C60.97 25.7617 61.6594 25.595 62.3558 25.6174C65.1132 25.6174 66.9308 27.7971 66.9308 31.1638V31.1639ZM64.6386 31.1639C64.6386 28.9643 63.5019 27.5182 61.7676 27.5182C60.0636 27.5182 58.9176 28.9947 58.9176 31.1638C58.9176 33.353 60.0636 34.819 61.7676 34.819C63.5019 34.819 64.6386 33.3835 64.6386 31.1638V31.1639ZM78.8885 31.1639C78.8885 34.54 77.0816 36.7091 74.3546 36.7091C73.6638 36.7453 72.9768 36.5861 72.3723 36.25C71.7677 35.9138 71.2701 35.4142 70.9363 34.8083H70.8847V40.1896H68.6546V25.7311H70.8132V27.5381H70.8542C71.2033 26.9352 71.7094 26.4382 72.3186 26.0999C72.9277 25.7617 73.6172 25.595 74.3136 25.6174C77.071 25.6174 78.8885 27.7971 78.8885 31.1638V31.1639ZM76.5964 31.1639C76.5964 28.9643 75.4597 27.5182 73.7253 27.5182C72.0213 27.5182 70.8753 28.9947 70.8753 31.1638C70.8753 33.353 72.0213 34.819 73.7253 34.819C75.4597 34.819 76.5964 33.3835 76.5964 31.1638V31.1639ZM86.7917 32.4436C86.957 33.9213 88.3925 34.8916 90.3542 34.8916C92.2338 34.8916 93.5862 33.9213 93.5862 32.5888C93.5862 31.4321 92.7706 30.7396 90.8394 30.265L88.9081 29.7998C86.1718 29.1388 84.9015 27.8591 84.9015 25.7826C84.9015 23.2114 87.1421 21.4455 90.3237 21.4455C93.4725 21.4455 95.6312 23.2114 95.7038 25.7826H93.4526C93.3178 24.2955 92.0885 23.3978 90.292 23.3978C88.4956 23.3978 87.2663 24.3061 87.2663 25.6279C87.2663 26.6815 88.0515 27.3014 89.9721 27.7759L91.6139 28.1791C94.6713 28.9021 95.9417 30.1303 95.9417 32.3098C95.9417 35.0978 93.721 36.8439 90.1889 36.8439C86.8841 36.8439 84.653 35.1387 84.5089 32.4435L86.7917 32.4436ZM100.755 23.1601V25.7311H102.821V27.4971H100.755V33.4865C100.755 34.417 101.168 34.8506 102.076 34.8506C102.322 34.8463 102.567 34.8291 102.81 34.799V36.5546C102.402 36.6308 101.987 36.6653 101.571 36.6575C99.3718 36.6575 98.5139 35.8314 98.5139 33.7244V27.4971H96.9342V25.7311H98.5139V23.1601H100.755ZM104.017 31.1639C104.017 27.7455 106.03 25.5975 109.17 25.5975C112.32 25.5975 114.324 27.7455 114.324 31.1639C114.324 34.5916 112.33 36.7302 109.17 36.7302C106.01 36.7302 104.017 34.5916 104.017 31.1639ZM112.051 31.1639C112.051 28.819 110.977 27.4349 109.17 27.4349C107.363 27.4349 106.289 28.8295 106.289 31.1639C106.289 33.5182 107.363 34.8916 109.17 34.8916C110.977 34.8916 112.051 33.5182 112.051 31.1639ZM116.162 25.7311H118.289V27.5803H118.341C118.485 27.0027 118.823 26.4923 119.299 26.1349C119.775 25.7774 120.359 25.5947 120.954 25.6174C121.211 25.6165 121.467 25.6444 121.718 25.7006V27.7865C121.394 27.6874 121.055 27.6419 120.716 27.6518C120.392 27.6386 120.069 27.6958 119.77 27.8192C119.47 27.9427 119.2 28.1296 118.979 28.367C118.759 28.6045 118.592 28.8869 118.491 29.1949C118.389 29.5029 118.356 29.8292 118.392 30.1514V36.5955H116.162V25.7311ZM132 33.4045C131.7 35.3768 129.78 36.7302 127.322 36.7302C124.162 36.7302 122.2 34.6127 122.2 31.2154C122.2 27.8077 124.172 25.5975 127.228 25.5975C130.234 25.5975 132.124 27.6623 132.124 30.9565V31.7205H124.451V31.8553C124.416 32.2551 124.466 32.6579 124.598 33.0369C124.73 33.4159 124.941 33.7625 125.218 34.0535C125.494 34.3446 125.829 34.5735 126.201 34.7251C126.573 34.8767 126.972 34.9474 127.374 34.9327C127.901 34.9821 128.43 34.86 128.882 34.5847C129.334 34.3093 129.685 33.8954 129.883 33.4045H132ZM124.462 30.1619H129.893C129.913 29.8024 129.859 29.4426 129.733 29.1052C129.607 28.7677 129.413 28.4599 129.163 28.201C128.913 27.942 128.612 27.7376 128.279 27.6006C127.946 27.4635 127.588 27.3967 127.228 27.4045C126.865 27.4023 126.505 27.4721 126.169 27.6098C125.833 27.7475 125.528 27.9504 125.27 28.2067C125.013 28.4631 124.809 28.7679 124.67 29.1035C124.532 29.439 124.461 29.7988 124.462 30.1619ZM46.1306 10.4774C46.5982 10.4439 47.0674 10.5145 47.5043 10.6842C47.9412 10.8539 48.3351 11.1185 48.6574 11.4589C48.9797 11.7992 49.2224 12.2069 49.3681 12.6524C49.5138 13.098 49.5587 13.5703 49.4998 14.0353C49.4998 16.3227 48.2634 17.6377 46.1306 17.6377H43.5443V10.4773L46.1306 10.4774ZM44.6564 16.625H46.0064C46.3405 16.645 46.6748 16.5902 46.9851 16.4646C47.2953 16.3391 47.5737 16.146 47.7998 15.8993C48.026 15.6526 48.1943 15.3586 48.2926 15.0387C48.3908 14.7187 48.4165 14.3809 48.3677 14.0498C48.4129 13.72 48.3847 13.3843 48.2849 13.0667C48.1852 12.7491 48.0165 12.4575 47.7908 12.2128C47.5651 11.9681 47.2881 11.7763 46.9796 11.6512C46.6712 11.5261 46.3388 11.4708 46.0064 11.4893H44.6564V16.625ZM50.756 14.9335C50.7221 14.5784 50.7627 14.2201 50.8753 13.8816C50.9879 13.5431 51.17 13.2319 51.4099 12.968C51.6498 12.704 51.9423 12.493 52.2685 12.3487C52.5947 12.2044 52.9475 12.1298 53.3042 12.1298C53.661 12.1298 54.0137 12.2044 54.34 12.3487C54.6662 12.493 54.9586 12.704 55.1986 12.968C55.4385 13.2319 55.6206 13.5431 55.7332 13.8816C55.8458 14.2201 55.8864 14.5784 55.8524 14.9335C55.8871 15.289 55.8471 15.6479 55.7348 15.987C55.6226 16.3261 55.4406 16.6379 55.2006 16.9025C54.9606 17.1671 54.6679 17.3785 54.3413 17.5232C54.0147 17.6679 53.6614 17.7426 53.3042 17.7426C52.947 17.7426 52.5938 17.6679 52.2672 17.5232C51.9406 17.3785 51.6479 17.1671 51.4079 16.9025C51.1679 16.6379 50.9859 16.3261 50.8736 15.987C50.7614 15.6479 50.7213 15.289 50.756 14.9335ZM54.7556 14.9335C54.7556 13.7622 54.2294 13.0772 53.306 13.0772C52.379 13.0772 51.8576 13.7622 51.8576 14.9335C51.8576 16.1142 52.3792 16.7939 53.306 16.7939C54.2294 16.7939 54.7556 16.1095 54.7556 14.9335ZM62.6271 17.6376H61.5207L60.404 13.6579H60.3197L59.2076 17.6376H58.1119L56.6225 12.234H57.704L58.6721 16.3572H58.7517L59.8627 12.234H60.8857L61.9967 16.3572H62.081L63.0443 12.234H64.1107L62.6271 17.6376ZM65.3634 12.2341H66.39V13.0925H66.4696C66.6048 12.7841 66.8328 12.5257 67.1219 12.3531C67.411 12.1805 67.7467 12.1024 68.0822 12.1297C68.3451 12.1099 68.6091 12.1496 68.8546 12.2457C69.1001 12.3418 69.3209 12.492 69.5005 12.685C69.6801 12.878 69.814 13.1089 69.8923 13.3607C69.9705 13.6125 69.9911 13.8786 69.9525 14.1395V17.6375H68.8861V14.4073C68.8861 13.539 68.5087 13.1071 67.7201 13.1071C67.5415 13.0988 67.3634 13.1292 67.1977 13.1962C67.032 13.2632 66.8828 13.3652 66.7603 13.4953C66.6377 13.6253 66.5447 13.7803 66.4877 13.9497C66.4307 14.119 66.4109 14.2987 66.4298 14.4764V17.6376H65.3634V12.2341ZM71.6517 10.1246H72.718V17.6376H71.6517V10.1246ZM74.2005 14.9335C74.1665 14.5784 74.2072 14.22 74.3198 13.8815C74.4324 13.543 74.6145 13.2317 74.8545 12.9677C75.0944 12.7037 75.3869 12.4927 75.7132 12.3484C76.0395 12.204 76.3923 12.1294 76.7491 12.1294C77.1058 12.1294 77.4587 12.204 77.7849 12.3484C78.1112 12.4927 78.4037 12.7037 78.6437 12.9677C78.8836 13.2317 79.0658 13.543 79.1784 13.8815C79.291 14.22 79.3316 14.5784 79.2976 14.9335C79.3322 15.289 79.292 15.6477 79.1796 15.9867C79.0672 16.3257 78.8852 16.6375 78.6452 16.9019C78.4052 17.1664 78.1125 17.3777 77.7859 17.5223C77.4594 17.667 77.1062 17.7417 76.7491 17.7417C76.3919 17.7417 76.0387 17.667 75.7122 17.5223C75.3857 17.3777 75.093 17.1664 74.853 16.9019C74.6129 16.6375 74.4309 16.3257 74.3186 15.9867C74.2062 15.6477 74.166 15.289 74.2005 14.9335ZM78.2001 14.9335C78.2001 13.7622 77.6739 13.0772 76.7505 13.0772C75.8235 13.0772 75.3021 13.7622 75.3021 14.9335C75.3021 16.1142 75.8236 16.7939 76.7505 16.7939C77.6739 16.7939 78.2001 16.1095 78.2001 14.9335ZM80.4202 16.1095C80.4202 15.1368 81.1444 14.576 82.43 14.4963L83.8936 14.412V13.9455C83.8936 13.3748 83.5163 13.0526 82.7875 13.0526C82.1921 13.0526 81.7796 13.2711 81.6613 13.6532H80.6288C80.7377 12.725 81.6109 12.1298 82.8367 12.1298C84.1913 12.1298 84.9554 12.8042 84.9554 13.9455V17.6376H83.9288V16.8782H83.8444C83.6732 17.1506 83.4327 17.3727 83.1476 17.5217C82.8624 17.6708 82.5428 17.7415 82.2214 17.7266C81.9946 17.7502 81.7653 17.726 81.5484 17.6556C81.3315 17.5851 81.1318 17.47 80.9621 17.3177C80.7924 17.1653 80.6565 16.9791 80.5631 16.771C80.4698 16.5629 80.4211 16.3376 80.4202 16.1095ZM83.8936 15.6477V15.1959L82.5741 15.2803C81.83 15.3301 81.4924 15.5833 81.4924 16.0596C81.4924 16.5459 81.9143 16.829 82.4944 16.829C82.6644 16.8462 82.8361 16.8291 82.9993 16.7786C83.1625 16.728 83.3139 16.6452 83.4445 16.535C83.575 16.4248 83.682 16.2894 83.7592 16.137C83.8364 15.9846 83.8821 15.8182 83.8936 15.6477ZM86.357 14.9335C86.357 13.226 87.2347 12.1445 88.5999 12.1445C88.9376 12.1289 89.2728 12.2098 89.5662 12.3777C89.8596 12.5455 90.0992 12.7935 90.257 13.0925H90.3366V10.1245H91.403V17.6375H90.3812V16.7837H90.2968C90.1269 17.0806 89.879 17.3255 89.5799 17.4917C89.2808 17.6579 88.9419 17.7391 88.6 17.7265C87.2253 17.7265 86.357 16.6448 86.357 14.9334V14.9335ZM87.4586 14.9335C87.4586 16.0795 87.9988 16.7693 88.9022 16.7693C89.801 16.7693 90.3566 16.0697 90.3566 14.9381C90.3566 13.812 89.7952 13.1024 88.9022 13.1024C88.0046 13.1024 87.4586 13.7967 87.4586 14.9335ZM95.8151 14.9335C95.7811 14.5784 95.8217 14.2201 95.9343 13.8816C96.047 13.5431 96.2291 13.2319 96.469 12.968C96.7089 12.704 97.0014 12.493 97.3276 12.3487C97.6538 12.2044 98.0066 12.1298 98.3633 12.1298C98.72 12.1298 99.0728 12.2044 99.399 12.3487C99.7253 12.493 100.018 12.704 100.258 12.968C100.498 13.2319 100.68 13.5431 100.792 13.8816C100.905 14.2201 100.945 14.5784 100.912 14.9335C100.946 15.289 100.906 15.6479 100.794 15.987C100.682 16.3261 100.5 16.6379 100.26 16.9025C100.02 17.1671 99.727 17.3785 99.4004 17.5232C99.0738 17.6679 98.7205 17.7426 98.3633 17.7426C98.0061 17.7426 97.6528 17.6679 97.3263 17.5232C96.9997 17.3785 96.707 17.1671 96.467 16.9025C96.227 16.6379 96.045 16.3261 95.9327 15.987C95.8205 15.6479 95.7804 15.289 95.8151 14.9335ZM99.8147 14.9335C99.8147 13.7622 99.2885 13.0772 98.3651 13.0772C97.4381 13.0772 96.9167 13.7622 96.9167 14.9335C96.9167 16.1142 97.4382 16.7939 98.3651 16.7939C99.2885 16.7939 99.8147 16.1095 99.8147 14.9335ZM102.342 12.2341H103.369V13.0925H103.449C103.584 12.7841 103.812 12.5257 104.101 12.3531C104.39 12.1805 104.726 12.1024 105.061 12.1297C105.324 12.1099 105.588 12.1496 105.834 12.2457C106.079 12.3418 106.3 12.492 106.48 12.685C106.659 12.878 106.793 13.1089 106.871 13.3607C106.95 13.6125 106.97 13.8786 106.932 14.1395V17.6375H105.865V14.4073C105.865 13.539 105.488 13.1071 104.699 13.1071C104.521 13.0988 104.342 13.1292 104.177 13.1962C104.011 13.2632 103.862 13.3652 103.739 13.4953C103.617 13.6253 103.524 13.7803 103.467 13.9497C103.41 14.119 103.39 14.2987 103.409 14.4764V17.6376H102.343L102.342 12.2341ZM112.957 10.8888V12.2587H114.128V13.1569H112.957V15.9354C112.957 16.5014 113.19 16.7493 113.721 16.7493C113.857 16.7489 113.993 16.7406 114.128 16.7246V17.613C113.936 17.6472 113.742 17.6655 113.548 17.6675C112.362 17.6675 111.89 17.2502 111.89 16.2085V13.1569H111.032V12.2586H111.89V10.8889L112.957 10.8888ZM115.585 10.1246H116.642V13.1024H116.726C116.868 12.7912 117.102 12.5313 117.397 12.3581C117.692 12.1848 118.033 12.1067 118.374 12.1344C118.635 12.1202 118.897 12.1638 119.139 12.2623C119.382 12.3607 119.6 12.5115 119.778 12.704C119.956 12.8964 120.089 13.1257 120.168 13.3754C120.247 13.6252 120.269 13.8893 120.235 14.1489V17.6376H119.167V14.412C119.167 13.5488 118.765 13.1118 118.012 13.1118C117.828 13.0968 117.644 13.122 117.471 13.1856C117.299 13.2493 117.142 13.3499 117.013 13.4804C116.883 13.6109 116.784 13.7681 116.721 13.941C116.659 14.114 116.635 14.2985 116.651 14.4817V17.6376H115.585V10.1246ZM126.453 16.1785C126.308 16.6724 125.994 17.0996 125.566 17.3854C125.138 17.6712 124.623 17.7973 124.111 17.7419C123.755 17.7513 123.401 17.6831 123.074 17.542C122.747 17.401 122.455 17.1905 122.218 16.9251C121.98 16.6598 121.803 16.3459 121.699 16.0053C121.595 15.6647 121.566 15.3056 121.615 14.9528C121.568 14.5989 121.597 14.239 121.701 13.8974C121.804 13.5558 121.98 13.2404 122.217 12.9727C122.453 12.705 122.744 12.4912 123.07 12.3458C123.396 12.2003 123.749 12.1266 124.107 12.1297C125.61 12.1297 126.517 13.1569 126.517 14.8537V15.2258H122.701V15.2856C122.685 15.4839 122.71 15.6835 122.775 15.8716C122.84 16.0597 122.943 16.2321 123.079 16.3779C123.214 16.5236 123.379 16.6394 123.561 16.7179C123.744 16.7964 123.941 16.8358 124.14 16.8336C124.396 16.8642 124.654 16.8183 124.883 16.7016C125.112 16.585 125.301 16.4029 125.426 16.1785H126.453ZM122.701 14.4372H125.431C125.444 14.2558 125.419 14.0737 125.358 13.9024C125.297 13.7312 125.201 13.5746 125.076 13.4428C124.95 13.3109 124.799 13.2068 124.631 13.1369C124.463 13.0671 124.282 13.0332 124.101 13.0374C123.916 13.0351 123.733 13.0697 123.562 13.1392C123.391 13.2088 123.236 13.3118 123.106 13.4422C122.975 13.5727 122.872 13.7279 122.803 13.8988C122.734 14.0697 122.699 14.2527 122.701 14.4372Z" fill="white"/>
</svg>
