<svg width="64" height="64" viewBox="0 0 64 64" fill="none" xmlns="http://www.w3.org/2000/svg">
<g id="ic_invest">
<g id="Group">
<path id="Shape" fill-rule="evenodd" clip-rule="evenodd" d="M20.3641 28.5866H43.6369C44.1724 28.5866 44.6066 28.1568 44.6066 27.6266C44.6066 26.5663 45.4749 25.7066 46.546 25.7066C47.0815 25.7066 47.5157 25.2768 47.5157 24.7466V15.1466C47.5157 14.6164 47.0815 14.1866 46.546 14.1866C45.4749 14.1866 44.6066 13.327 44.6066 12.2666C44.6066 11.7364 44.1724 11.3066 43.6369 11.3066H20.3641C19.8286 11.3066 19.3944 11.7364 19.3944 12.2666C19.3944 13.327 18.5261 14.1866 17.455 14.1866C16.9195 14.1866 16.4854 14.6164 16.4854 15.1466V24.7466C16.4854 25.2768 16.9195 25.7066 17.455 25.7066C18.5261 25.7066 19.3944 26.5663 19.3944 27.6266C19.3944 28.1568 19.8286 28.5866 20.3641 28.5866ZM42.7932 26.6666H21.2078C20.8546 25.3159 19.7891 24.2611 18.4247 23.9114V15.9818C19.7891 15.6322 20.8546 14.5774 21.2078 13.2266H42.7932C43.1464 14.5774 44.2119 15.6322 45.5763 15.9818V23.9114C44.2119 24.2611 43.1464 25.3159 42.7932 26.6666Z" fill="white"/>
<path id="Shape_2" fill-rule="evenodd" clip-rule="evenodd" d="M27.1518 19.9465C27.1518 22.5975 29.3226 24.7465 32.0003 24.7465C33.2862 24.7465 34.5195 24.2408 35.4287 23.3406C36.338 22.4404 36.8488 21.2195 36.8488 19.9465C36.8488 17.2955 34.6781 15.1465 32.0003 15.1465C29.3226 15.1465 27.1518 17.2955 27.1518 19.9465ZM29.0912 19.9465C29.0912 18.3559 30.3937 17.0665 32.0003 17.0665C33.607 17.0665 34.9094 18.3559 34.9094 19.9465C34.9094 21.5371 33.607 22.8265 32.0003 22.8265C30.3937 22.8265 29.0912 21.5371 29.0912 19.9465ZM23.2731 21.8665C22.202 21.8665 21.3337 21.0069 21.3337 19.9465C21.3337 18.8861 22.202 18.0265 23.2731 18.0265C24.3442 18.0265 25.2124 18.8861 25.2124 19.9465C25.2124 21.0069 24.3442 21.8665 23.2731 21.8665ZM38.7882 19.9465C38.7882 21.0069 39.6565 21.8665 40.7276 21.8665C41.7987 21.8665 42.667 21.0069 42.667 19.9465C42.667 18.8861 41.7987 18.0265 40.7276 18.0265C39.6565 18.0265 38.7882 18.8861 38.7882 19.9465ZM27.1518 45.8665H21.3337C15.4426 45.8665 10.667 41.1386 10.667 35.3065C10.667 34.7763 11.1011 34.3465 11.6367 34.3465H17.4549C23.3459 34.3465 28.1215 39.0744 28.1215 44.9065C28.1215 45.4367 27.6874 45.8665 27.1518 45.8665ZM21.3337 43.9465C16.8905 43.9444 13.1582 40.6379 12.6646 36.2665H17.4549C21.898 36.2686 25.6303 39.575 26.124 43.9465H21.3337ZM42.667 47.7865H36.8488C36.3133 47.7865 35.8791 47.3567 35.8791 46.8265C35.8791 40.9944 40.6547 36.2665 46.5458 36.2665H52.364C52.8995 36.2665 53.3337 36.6963 53.3337 37.2265C53.3337 40.0272 52.2099 42.7131 50.2095 44.6935C48.2091 46.6739 45.496 47.7865 42.667 47.7865ZM42.667 45.8665H37.8767C38.3704 41.495 42.1027 38.1886 46.5458 38.1865H51.3361C50.8424 42.5579 47.1101 45.8644 42.667 45.8665Z" fill="white"/>
<path id="Shape_3" fill-rule="evenodd" clip-rule="evenodd" d="M32.0004 35.3066C31.4648 35.3066 31.0307 34.8767 31.0307 34.3466C31.0307 33.2862 30.1624 32.4266 29.0913 32.4266H17.4549C14.7772 32.4266 12.6064 30.2775 12.6064 27.6266V12.2666C12.6064 9.61559 14.7772 7.46655 17.4549 7.46655H46.5458C49.2236 7.46655 51.3943 9.61559 51.3943 12.2666V27.6266C51.3943 30.2775 49.2236 32.4266 46.5458 32.4266H34.9095C33.8384 32.4266 32.9701 33.2862 32.9701 34.3466C32.9701 34.8767 32.5359 35.3066 32.0004 35.3066ZM17.4549 9.38655C15.8483 9.38655 14.5458 10.676 14.5458 12.2666V27.6266C14.5458 29.2171 15.8483 30.5066 17.4549 30.5066H29.0913C30.1203 30.5058 31.1075 30.9098 31.8355 31.6298L32.0004 31.8122C32.7357 30.9835 33.7954 30.5079 34.9095 30.5066H46.5458C48.1525 30.5066 49.4549 29.2171 49.4549 27.6266V12.2666C49.4549 10.676 48.1525 9.38655 46.5458 9.38655H17.4549ZM31.0307 51.9242C31.0307 52.4543 31.4648 52.8842 32.0004 52.8842C32.5359 52.8842 32.9701 52.4543 32.9701 51.9242V49.7066C32.9701 46.5254 30.3652 43.9466 27.1519 43.9466C26.6164 43.9466 26.1822 44.3764 26.1822 44.9066C26.1822 45.4367 26.6164 45.8666 27.1519 45.8666C29.2941 45.8666 31.0307 47.5858 31.0307 49.7066V51.9242Z" fill="white"/>
<path id="Path" d="M32 52.5865C31.4644 52.5865 31.0303 52.1566 31.0303 51.6265C31.0303 48.4453 33.6352 45.8665 36.8485 45.8665C37.384 45.8665 37.8182 46.2963 37.8182 46.8265C37.8182 47.3566 37.384 47.7865 36.8485 47.7865C34.7063 47.7865 32.9697 49.5057 32.9697 51.6265C32.9697 51.8811 32.8675 52.1252 32.6856 52.3053C32.5038 52.4853 32.2572 52.5865 32 52.5865Z" fill="white"/>
<path id="Path_2" d="M32 52.5865C31.4644 52.5865 31.0303 52.1567 31.0303 51.6265V34.3465C31.0303 33.8163 31.4644 33.3865 32 33.3865C32.5355 33.3865 32.9697 33.8163 32.9697 34.3465V51.6265C32.9697 52.1567 32.5355 52.5865 32 52.5865Z" fill="white"/>
<path id="Path_3" d="M42.6673 55.4665H34.9097C33.7956 55.4651 32.7359 54.9895 32.0006 54.1609C31.2653 54.9895 30.2056 55.4651 29.0915 55.4665H21.334C20.7984 55.4665 20.3643 55.0367 20.3643 54.5065C20.3643 53.9763 20.7984 53.5465 21.334 53.5465H29.0915C30.1626 53.5465 31.0309 52.6869 31.0309 51.6265C31.0309 51.0963 31.4651 50.6665 32.0006 50.6665C32.5362 50.6665 32.9703 51.0963 32.9703 51.6265C32.9703 52.6869 33.8386 53.5465 34.9097 53.5465H42.6673C43.2028 53.5465 43.637 53.9763 43.637 54.5065C43.637 55.0367 43.2028 55.4665 42.6673 55.4665Z" fill="white"/>
</g>
</g>
</svg>
