<?xml version="1.0" encoding="UTF-8"?>
<svg width="148px" height="148px" viewBox="0 0 148 148" version="1.1" xmlns="http://www.w3.org/2000/svg" xmlns:xlink="http://www.w3.org/1999/xlink">
    <title>3E618A63-FEE6-4C35-B11B-F8BA8CBB3477@1,5x</title>
    <g id="Web" stroke="none" stroke-width="1" fill="none" fill-rule="evenodd">
        <g id="5.-Reset-password---sukses-reset-password" transform="translate(-609.000000, -198.000000)">
            <g id="element-image/img_success" transform="translate(609.000000, 198.000000)">
                <rect id="Rectangle" x="0" y="0" width="148" height="148"></rect>
                <g id="Group-4" transform="translate(8.000000, 26.000000)">
                    <ellipse id="Oval" fill="#0084F4" opacity="0.11500622" cx="55.706422" cy="57.1121495" rx="55.706422" ry="55.8878505"></ellipse>
                    <path d="M58.7183116,88 C55.2846418,88 51.8513169,86.5162049 49.8892691,83.5489623 L22.4212902,47.9406608 C18.4971947,42.9951406 19.478391,36.0713428 24.383338,32.1147876 C29.2882849,28.1582324 36.1552797,29.147545 40.0793752,34.0930652 L58.7183116,58.3265313 L99.9206248,4.41959648 C103.84472,-0.525923682 110.711715,-1.51523636 115.616662,2.44131887 C120.521609,6.39787409 121.502805,13.3216719 117.57871,18.267192 L67.5473541,83.5489623 C65.0948806,86.0217224 62.1519814,88 58.7183116,88 Z" id="Path" fill="#2196F3" fill-rule="nonzero"></path>
                </g>
            </g>
        </g>
    </g>
</svg>