<svg width="24" height="24" viewBox="0 0 24 24" fill="none" xmlns="http://www.w3.org/2000/svg">
<rect opacity="0.01" width="24" height="24" fill="black"/>
<path fill-rule="evenodd" clip-rule="evenodd" d="M11.7301 4.99999C17.7101 4.81999 21.2301 10.39 21.8701 11.5C22.0487 11.8094 22.0487 12.1906 21.8701 12.5C21.0101 14 17.8001 18.86 12.2701 19H12.0201C6.13007 19 2.76007 13.59 2.13007 12.5C1.95144 12.1906 1.95144 11.8094 2.13007 11.5C3.00007 9.99999 6.20007 5.13999 11.7301 4.99999ZM4.22007 12C5.10007 13.41 7.91007 17.1 12.2201 17C16.2201 16.9 18.8001 13.61 19.8301 12C18.9401 10.59 16.1201 6.88999 11.8301 6.99999C7.83007 7.09999 5.22007 10.39 4.22007 12Z" fill="#0084F4"/>
<path fill-rule="evenodd" clip-rule="evenodd" d="M8.5 12C8.5 10.067 10.067 8.5 12 8.5C13.933 8.5 15.5 10.067 15.5 12C15.5 13.933 13.933 15.5 12 15.5C10.067 15.5 8.5 13.933 8.5 12ZM10.5 12C10.5 12.8284 11.1716 13.5 12 13.5C12.8284 13.5 13.5 12.8284 13.5 12C13.5 11.1716 12.8284 10.5 12 10.5C11.1716 10.5 10.5 11.1716 10.5 12Z" fill="#0084F4"/>
</svg>
