<svg width="80" height="60" viewBox="0 0 80 60" fill="none" xmlns="http://www.w3.org/2000/svg">
<path d="M2.25342 5.6232C2.25342 3.75632 3.76682 2.24292 5.6337 2.24292H74.3661C76.233 2.24292 77.7464 3.75632 77.7464 5.6232V42.056H2.25342V5.6232Z" fill="white"/>
<path d="M34.1333 23.6102C34.1383 29.6376 30.4604 35.0742 24.8151 37.3842C19.1697 39.6942 12.6692 38.4224 8.34557 34.1622C4.02196 29.9019 2.72706 23.4924 5.06487 17.9234C7.40268 12.3544 12.9126 8.7229 19.0246 8.7229C27.3585 8.73629 34.1129 15.3918 34.1333 23.6102Z" fill="#F4F4F4"/>
<path d="M33.0833 29.0923C31.1449 33.9119 26.8051 37.3912 21.625 38.2786C16.4449 39.1661 11.1695 37.3341 7.69629 33.4416L19.0371 23.6101H28.4507L33.0833 29.0923Z" fill="#C1C1C1"/>
<path d="M34.1336 23.6102C34.1308 26.5996 33.2185 29.5194 31.5146 31.9919L19.0249 23.6102V8.72291C23.0308 8.71967 26.8738 10.2867 29.7076 13.079C32.5414 15.8712 34.1336 19.6597 34.1336 23.6102Z" fill="#E5E5E5"/>
<path d="M69.1935 15.4112H39.1367V15.7767H69.1935C69.2426 15.7767 69.2898 15.7575 69.3245 15.7232C69.3593 15.6889 69.3788 15.6425 69.3788 15.594C69.3825 15.5445 69.3642 15.4958 69.3286 15.4607C69.293 15.4256 69.2437 15.4076 69.1935 15.4112Z" fill="#ABC1CC"/>
<path d="M51.3299 58.8547H28.6978L29.8837 53.7258L31.8974 44.942L32.1321 43.9187H47.8955L48.1303 44.942L50.1439 53.7258L51.3299 58.8547Z" fill="#0079EB"/>
<path d="M50.144 53.7259H29.8838L31.8975 44.9421H48.1303L50.144 53.7259Z" fill="#004CA5"/>
<path fill-rule="evenodd" clip-rule="evenodd" d="M75.2593 0.0609136C76.2859 0.205823 77.252 0.627398 78.0512 1.27919C79.28 2.31441 79.9885 3.82756 79.9908 5.42131V44.0405C80.0031 44.2474 80.0031 44.4549 79.9908 44.6618C79.9782 44.8218 79.9534 44.9806 79.9167 45.137C79.8804 45.3309 79.8309 45.5222 79.7684 45.7096C79.4704 46.6459 78.9245 47.487 78.1871 48.1461C77.9242 48.3801 77.6387 48.5882 77.3347 48.7674L77.0259 48.938C76.835 49.0378 76.6368 49.1233 76.4329 49.1938L75.9634 49.3522C75.696 49.4248 75.4235 49.4778 75.1481 49.5106C74.9795 49.5231 74.8102 49.5231 74.6416 49.5106H5.54685C5.08398 49.5162 4.62253 49.4588 4.17558 49.34C3.28794 49.1425 2.46683 48.7229 1.7913 48.1217C0.649746 47.0881 -2.62072e-05 45.6298 0 44.1014V5.48222C-7.56901e-06 2.45923 2.48141 0.00671777 5.54685 0H74.4686C74.7333 0.00163374 74.9975 0.0219905 75.2593 0.0609136ZM5.54685 2.36345C3.81186 2.37016 2.40898 3.75906 2.40899 5.47004V44.1258C2.40638 45.672 3.56151 46.9828 5.11447 47.1958H5.54685H74.4686C76.2105 47.1959 77.6244 45.8069 77.6312 44.0893V5.47004C77.6252 4.55449 77.2147 3.68703 76.507 3.09441C75.9373 2.61956 75.2146 2.36042 74.4686 2.36345H5.54685Z" fill="#0079EB"/>
<path d="M78.7924 41.8599V44.0893C78.7856 46.4549 76.8427 48.3709 74.4439 48.3776H5.55913C3.15549 48.3776 1.20505 46.4596 1.19824 44.0893V41.8599H78.7924Z" fill="#0079EB"/>
<path d="M54.9621 59.9999H25.0783C24.9123 60.0032 24.752 59.9404 24.6335 59.8258C24.515 59.7112 24.4482 59.5544 24.4482 59.3908C24.4482 59.2271 24.515 59.0703 24.6335 58.9557C24.752 58.8411 24.9123 58.7783 25.0783 58.7816H54.9621C55.3032 58.7816 55.5798 59.0543 55.5798 59.3908C55.5814 59.4929 55.5559 59.5937 55.5057 59.6831C55.3991 59.8809 55.1892 60.0032 54.9621 59.9999Z" fill="#0079EB"/>
<ellipse cx="40.014" cy="45.7217" rx="2.74254" ry="2.70456" fill="#004CA5"/>
<path d="M69.2428 19.9188H39.186V20.2843H69.2428C69.3451 20.2843 69.4281 20.2025 69.4281 20.1016C69.4281 20.0006 69.3451 19.9188 69.2428 19.9188Z" fill="#ABC1CC"/>
<path d="M69.28 24.5238H39.2603V24.8771H69.28C69.3774 24.8707 69.4531 24.7907 69.4529 24.6944C69.4529 24.6491 69.4347 24.6057 69.4023 24.5738C69.3698 24.5418 69.3258 24.5238 69.28 24.5238Z" fill="#ABC1CC"/>
<path d="M69.317 29.0314H39.2603V29.3968H69.317C69.4194 29.3968 69.5023 29.315 69.5023 29.2141C69.5061 29.1646 69.4877 29.116 69.4521 29.0809C69.4166 29.0458 69.3672 29.0277 69.317 29.0314Z" fill="#ABC1CC"/>
<path d="M69.379 33.4415H39.3223V33.807H69.379C69.4814 33.807 69.5643 33.7252 69.5643 33.6243C69.5681 33.5748 69.5498 33.5261 69.5142 33.491C69.4786 33.4559 69.4292 33.4378 69.379 33.4415Z" fill="#ABC1CC"/>
<rect x="36.7896" y="6.396" width="35.826" height="4.87309" rx="2.43654" fill="#FFB537"/>
</svg>
