<?xml version="1.0" standalone="no"?>
<!DOCTYPE svg PUBLIC "-//W3C//DTD SVG 20010904//EN"
 "http://www.w3.org/TR/2001/REC-SVG-20010904/DTD/svg10.dtd">
<svg version="1.0" xmlns="http://www.w3.org/2000/svg"
 width="101.000000pt" height="101.000000pt" viewBox="0 0 101.000000 101.000000"
 preserveAspectRatio="xMidYMid meet">
<metadata>
Created by potrace 1.14, written by Peter Selinger 2001-2017
</metadata>
<g transform="translate(0.000000,101.000000) scale(0.100000,-0.100000)"
fill="#000000" stroke="none">
<path d="M465 993 c-11 -3 -22 -8 -25 -12 -3 -3 -25 -17 -50 -30 -41 -22 -76
-43 -243 -141 -32 -19 -64 -47 -71 -61 -10 -19 -14 -87 -15 -245 -1 -267 -5
-257 136 -340 54 -32 100 -59 103 -59 3 0 12 -5 20 -10 22 -14 70 -42 111 -64
57 -31 87 -33 138 -7 57 28 214 117 221 125 3 3 19 13 35 21 33 16 82 49 102
67 10 9 13 72 13 266 0 238 -1 255 -19 271 -19 17 -169 106 -286 170 -11 6
-22 13 -25 17 -3 3 -21 13 -42 22 -36 17 -64 19 -103 10z"/>
</g>
</svg>
