<svg xmlns="http://www.w3.org/2000/svg" xmlns:xlink="http://www.w3.org/1999/xlink" width="650" height="442" fill="none" xmlns:v="https://vecta.io/nano"><style><![CDATA[.B{fill-rule:evenodd}.C{fill:#ffa412}.D{fill:#ffb93e}.E{fill:#fff}.F{fill:#82b378}.G{fill:#66c054}.H{fill:#000}.I{fill:#e2810e}.J{fill:#6eb95c}.K{fill:#ffb27d}]]></style><g class="B"><path opacity=".095" d="M650 407.231C650 426.434 504.493 442 325 442S0 426.434 0 407.231s145.508-34.768 325-34.768 325 15.566 325 34.768z" class="H"/><path d="M581.822 408.657l-69.387 1.088c-2.491-2.114 11.205-8.694 29.023-8.325 1.919.039 4.333.255 7.097.839.64-8.5 4.293-46.713 18.063-45.178 15.483 1.719 0 16.829-4.377 25.774-3.242 6.626-6.662 16.128-8.225 20.611l3.888.785c2.051-6.303 9.687-27.504 19.398-26.269 11.4 1.446 6.818 9.947-1.263 14.993-5.928 3.71-13.208 8.984-16.667 11.532 2.931.478 5.989.801 9.093.729 7.963-.19 11.851 2.158 13.357 3.421z" fill="url(#O)"/><path d="M82.214 407.034c-1.649-2.593-6.614-9.321-13.227-8.431-7.205.97 7.958 5.722 12.6 8.45-1.031.014-1.918-.068-2.568-.3-3.104-1.107-8.419 1.015-10.118 1.76h29.545c-.204-.707-.737-1.861-2.112-2.703-.485-.296-1.46-.338-2.719-.242 1.757-2.071 2.977-8.689-1.914-6.986-3.573 1.244-3.563 5.287-3.212 7.679l-2.292.349c-1.471-7.499-6.674-29.477-17.219-30.063-10.691-.594 9.065 22.794 15.643 30.274a34.29 34.29 0 0 1-2.406.213z" fill="url(#P)"/><path d="M225.209 400.72l-.001 5.647c0 .45-.137.867-.373 1.215-.248.365-.603.652-1.021.814-.1.04-.204.071-.31.094l-.003-.001c-.029.008-.056.014-.085.019-.126.023-.253.035-.384.035l-89.92-.014c-.095 0-.19-.006-.282-.019l-.107-.017c-.978-.177-1.733-1.014-1.784-2.029l-.002-.111v-5.647l.003-.112c.059-1.146 1.014-2.065 2.174-2.065l89.919.014.173.007.073.008.081.01.057.01a1.99 1.99 0 0 1 .398.112.47.47 0 0 1 .056.023l.056.023.109.054.118.067.103.065.112.083.084.068.06.055a2 2 0 0 1 .157.162l.044.051.042.053.08.11a2.16 2.16 0 0 1 .373 1.216z" class="D"/><g class="C"><path d="M181.052 408.536l-48.174-.007a2.17 2.17 0 0 1-.114-.003l-.124-.013c-.926-.128-1.653-.992-1.701-2.048l-.002-.112v-5.647l.003-.112c.053-1.146.904-2.064 1.94-2.064l42.257.006.058.246c.7 2.898 2.264 6.787 5.77 9.683l.087.071zm33.214.006l-1.022-.001.002-9.999h1.021l-.001 10zm-3.46-.001h-1.021l.001-10 1.022.001-.002 9.999zm-4.148 0h-1.022l.002-10h1.021l-.001 10zm-6.359-.002h-1.022l.002-9.999h1.021l-.001 9.999zm-6.723-.001h-1.023l.002-9.999h1.022l-.001 9.999z"/><use xlink:href="#h"/><use xlink:href="#i"/><use xlink:href="#j"/><use xlink:href="#j" x="52.563" y="0.008"/><use xlink:href="#h" x="36.468" y="0.006"/><path d="M221.836 408.543h-1.023l.002-10h1.022l-.001 10zm1.582-9.965l-.002 9.93a2.22 2.22 0 0 1-.384.035l-.638-.001.001-9.999h.639c.131 0 .258.012.384.035zm1.418.927l-.001 8.077c-.248.365-.604.653-1.021.814l.002-9.706a2.19 2.19 0 0 1 1.02.815z"/></g><path d="M229.857 390.967l-.002 5.647c0 .45-.136.867-.372 1.215-.248.366-.604.653-1.022.814a1.98 1.98 0 0 1-.397.112c-.126.023-.253.035-.384.035l-89.921-.013a2.17 2.17 0 0 1-1.002-.247c-.637-.333-1.091-.973-1.163-1.721a1.03 1.03 0 0 1-.007-.097l-.003-.112.001-5.647.002-.112c.06-1.145 1.014-2.064 2.174-2.064l89.92.013a2.21 2.21 0 0 1 .384.035 2.08 2.08 0 0 1 .398.112c.417.162.773.449 1.021.815a2.16 2.16 0 0 1 .373 1.215z" class="D"/><g class="C"><path d="M185.7 398.784l-48.174-.007c-.322 0-.627-.089-.895-.247-.569-.334-.974-.973-1.037-1.72l-.007-.098-.003-.112.001-5.647.002-.112c.053-1.145.906-2.064 1.94-2.064l42.259.007c.656 2.863 2.16 6.793 5.618 9.753l.296.247zm33.213.005h-1.021l.001-9.999h1.022l-.002 9.999z"/><use xlink:href="#j" x="50.458" y="-9.745"/><path d="M211.306 398.788h-1.022l.002-10h1.021l-.001 10z"/><use xlink:href="#k"/><path d="M198.222 398.786h-1.021l.001-10 1.022.001-.002 9.999zm-10.308-.002l-1.022.001.001-10h1.023l-.002 9.999zm-9.652 0l-1.022-.001.002-10 1.022.001-.002 10z"/><use xlink:href="#k" x="-35.303" y="-0.005"/><use xlink:href="#h" x="38.94" y="-9.747"/><use xlink:href="#l"/><path d="M226.483 398.79h-1.022l.001-9.999h1.022l-.001 9.999zm1.582-9.965l-.002 9.93a2.02 2.02 0 0 1-.383.035h-.639l.001-9.999h.639a2.12 2.12 0 0 1 .384.034zm1.419.927l-.001 8.077c-.248.366-.604.653-1.022.815l.002-9.706c.418.161.773.448 1.021.814z"/></g></g><mask id="A" maskUnits="userSpaceOnUse" x="232" y="381" width="93" height="28"><path d="M232.121 381.287h92.756v27.226h-92.756v-27.226z" class="B E"/></mask><g mask="url(#A)" class="B F"><path d="M324.877 429.805l-1.391.483c-5.753-12.039-14.405-20.873-22.799-28.263-8.988-7.916-26.691-17.606-48.755-15.805-9.097.743-15.819 2.616-19.094 3.692l-.717-1.603c42.644-17.722 67.767 1.592 80.884 19.367 8.397 11.38 11.872 22.129 11.872 22.129z"/></g><mask id="B" maskUnits="userSpaceOnUse" x="232" y="347" width="142" height="62"><path d="M232.123 347.04h141.146v61.473H232.123V347.04z" class="B E"/></mask><g mask="url(#B)" class="B G"><path d="M373.269 403.715l-48.393 26.089c-3.706-7.595-9.282-14.67-13.931-19.845s-8.371-8.451-8.371-8.451c-29.642-26.119-70.451-13.2-70.451-13.2l35.197-36.926c21.515-7.744 40.59-4.276 56.417 3.711 30.998 15.643 49.532 48.622 49.532 48.622z"/></g><mask id="C" maskUnits="userSpaceOnUse" x="250" y="350" width="124" height="59"><path d="M250.122 350.282h123.147v58.231H250.122v-58.231z" class="B E"/></mask><g mask="url(#C)" class="B G"><path d="M373.269 403.715l-48.393 26.089c-3.706-7.595-9.282-14.67-13.93-19.845s-8.372-8.451-8.372-8.451c-29.642-26.119-52.452-32.084-52.452-32.084l22.365.425c8.337.158 13.783-5.291 20.744-9.883 1.589-1.048 3.191-5.237 4.581-6.232 7.985-5.717 15.943-3.678 25.925 1.359 30.998 15.643 49.532 48.622 49.532 48.622z"/></g><mask id="D" maskUnits="userSpaceOnUse" x="240" y="349" width="129" height="60"><path d="M240.137 349.704h128.409v58.809H240.137v-58.809z" class="B E"/></mask><g mask="url(#D)" class="B"><path d="M324.098 418.227c-2.217-4.766-6.207-11.851-12.618-18.536-7.212-7.522-15.952-13.013-25.976-16.323-10.697-3.531-22.882-4.568-36.303-3.099-1.475.161-2.344-1.61-1.309-2.674l19.833-20.396c1.455-1.497 3.257-2.609 5.247-3.241 3.79-1.203 10.548-2.808 19.209-2.611 7.982.181 15.999 1.834 23.828 4.913 9.799 3.853 19.334 9.966 28.346 18.174.044.039 4.403 3.94 9.276 9.203 6.414 6.927 10.789 13.042 12.652 17.685l-39.548 22.723c-.41-1.391-.916-2.119-2.637-5.818zm44.448-15.869c-4.659-11.624-22.388-28.495-23.102-29.132-9.171-8.352-18.894-14.578-28.899-18.503-8.019-3.146-16.235-4.83-24.419-5.004-13.962-.297-22.867 3.849-23.24 4.026l-.132.063-28.617 29.43 2.446-.409c15.877-2.656 30.131-1.96 42.364 2.068 9.766 3.216 18.28 8.554 25.308 15.866 11.997 12.481 16.05 24.976 16.085 25.116l42.206-23.521z" fill="#90da7b"/></g><path d="M324.141 368.803c3.286 7.35.967 13.717-6.381 17.003s-16.941 2.249-20.226-5.101-1.182-13.566 6.166-16.852 17.155-2.4 20.441 4.95z" class="B F"/><mask id="E" maskUnits="userSpaceOnUse" x="177" y="406" width="103" height="3"><path d="M177.351 406.286h101.681v2.227H177.351v-2.227z" class="B E"/></mask><g mask="url(#E)" class="B F"><path d="M279.032 461.312l-1.549.504c-6.097-13.444-15.473-23.406-24.595-31.766-9.766-8.954-29.133-20.064-53.579-18.558-10.078.62-17.554 2.543-21.202 3.661l-.756-1.788c47.559-18.661 74.921 3.257 89.038 23.208 9.037 12.773 12.643 24.739 12.643 24.739z"/></g><mask id="F" maskUnits="userSpaceOnUse" x="177" y="369" width="157" height="40"><path d="M177.351 369.011h155.784v39.502H177.351v-39.502z" class="B E"/></mask><g mask="url(#F)" class="B G"><path d="M333.135 433.524l-54.104 27.787c-3.931-8.483-9.943-16.431-14.971-22.258s-9.073-9.533-9.073-9.533c-32.21-29.545-77.636-16.157-77.636-16.157l39.748-40.067c23.97-8.09 44.991-3.833 62.322 5.351 33.942 17.989 53.714 54.877 53.714 54.877z"/></g><mask id="G" maskUnits="userSpaceOnUse" x="186" y="371" width="142" height="38"><path d="M186.328 371.942H327.94v36.571H186.328v-36.571z" class="B E"/></mask><g mask="url(#G)" class="B"><path d="M281.214 454.982l44.245-24.26c-1.958-5.177-6.661-12.038-13.603-19.841-5.274-5.93-10.01-10.34-10.057-10.385-9.787-9.278-20.199-16.249-30.953-20.729-8.591-3.578-17.422-5.584-26.248-5.96-9.575-.409-17.086 1.217-21.304 2.463a14.03 14.03 0 0 0-5.877 3.469l-22.387 22.123c-1.168 1.154-.246 3.132 1.389 2.986 14.878-1.328 28.333.088 40.087 4.231 11.014 3.881 20.56 10.149 28.372 18.627 6.944 7.537 11.2 15.462 13.548 20.783 1.822 4.129 2.365 4.945 2.788 6.493zm-.478 2.021c-.035-.157-4.243-14.067-17.236-28.138-7.613-8.242-16.913-14.335-27.644-18.107-13.442-4.727-29.193-5.812-46.813-3.225l-2.715.399 32.302-31.921.148-.066c.416-.188 10.358-4.577 25.796-3.94 9.049.373 18.099 2.417 26.899 6.074 10.98 4.563 21.597 11.664 31.556 21.105.777.721 20.013 19.773 24.911 32.734l-47.204 25.085z" fill="#8fda7b"/></g><mask id="H" maskUnits="userSpaceOnUse" x="248" y="386" width="34" height="23"><path d="M248.343 386.063h32.701v22.45h-32.701v-22.45z" class="B E"/></mask><g mask="url(#H)" class="B F"><path d="M279.565 393.821c3.472 8.203.766 15.194-7.434 18.667s-18.788 2.113-22.26-6.089-1.007-15.032 7.192-18.505 19.03-2.275 22.502 5.927z"/></g><g class="B"><path d="M314.274 367.266s-2.703 19.108.385 31.258h-45.206s21.63-79.207 65.921-124.541c12.714-13.016 24.411-31.552 35.7-51.925 28.027-50.586 53.531-112.514 85.838-129.409 0 0-63.819 93.803-76.179 147.892s-56.416 52.546-66.459 126.725z" fill="url(#Q)"/><path d="M365.509 240.541c1.316-5.764 3.218-11.979 5.565-18.483-11.289 20.373-22.985 38.909-35.7 51.925-6.524 6.678-12.557 14.092-18.102 21.88-.03-.272-2.005-17.488-9.011-34.979-6.961-17.386-18.888-35.034-38.808-36.569 0 0 48.222 36.959 23.754 112.739-15.911 32.751-27.752 61.47-27.752 61.47h34.779c-3.091-12.15-.385-31.258-.385-31.258 10.043-74.179 53.299-72.634 65.66-126.725z" fill="url(#R)"/><path d="M317.273 295.869l-.184.311c-1.264 2.113-8.535 14.031-7.883 6.701.712-8.022-8.308-38.254-8.308-38.254l7.363-3.743c7.062 17.63 9.012 34.985 9.012 34.985z" fill="url(#S)"/><path d="M535.872 158.321l-1.329 2.046c-4.25-2.204-13.048-6.267-25.356-9.307-22.311-5.511-42.709-1.68-57.465 4.303-4.985 2.021-9.331 4.291-12.886 6.526-13.147 8.267-26.973 18.453-37.532 33.682l-1.801-.975-49.954-38.384-10.59-8.135s7.092-8.909 19.317-19.896c14.031-12.618 34.817-27.975 59.386-35.755 14.17-4.488 29.6-6.451 45.712-3.919 10.576 1.666 21.45 5.27 32.456 11.372l40.05 58.446z" class="J"/></g><mask id="I" maskUnits="userSpaceOnUse" x="251" y="376" width="142" height="33"><path d="M251.712 376.769h141.146v31.744H251.712v-31.744z" class="B E"/></mask><g mask="url(#I)" class="B"><path d="M251.712 433.444l48.393 26.089c3.706-7.596 9.282-14.67 13.93-19.845s8.372-8.451 8.372-8.451c29.641-26.119 70.451-13.2 70.451-13.2l-35.197-36.927c-21.516-7.743-40.59-4.276-56.418 3.712-30.998 15.643-49.531 48.622-49.531 48.622z" fill="#a8d29f"/></g><mask id="J" maskUnits="userSpaceOnUse" x="256" y="379" width="129" height="30"><path d="M256.435 379.432h128.409v29.081H256.435v-29.081z" class="B E"/></mask><g mask="url(#J)" class="B F"><path d="M300.882 447.956c2.218-4.766 6.208-11.851 12.619-18.537 7.212-7.521 15.952-13.013 25.976-16.322 10.696-3.531 22.881-4.569 36.303-3.1 1.474.162 2.343-1.609 1.309-2.673l-19.833-20.396c-1.455-1.497-3.257-2.609-5.248-3.241-3.789-1.203-10.547-2.808-19.209-2.611-7.982.18-15.998 1.833-23.827 4.912-9.8 3.854-19.334 9.967-28.346 18.175-.044.038-4.403 3.939-9.277 9.203-6.413 6.927-10.788 13.042-12.651 17.685l39.548 22.722c.41-1.391.916-2.119 2.636-5.817zm-44.447-15.87c4.659-11.623 22.388-28.494 23.102-29.131 9.171-8.352 18.893-14.578 28.898-18.503 8.02-3.147 16.236-4.831 24.419-5.004 13.963-.298 22.868 3.849 23.241 4.026l.132.062 28.617 29.431-2.446-.41c-15.877-2.656-30.131-1.96-42.365 2.069-9.765 3.215-18.28 8.554-25.308 15.866-11.996 12.481-16.049 24.976-16.084 25.116l-42.206-23.522z"/></g><mask id="K" maskUnits="userSpaceOnUse" x="299" y="391" width="30" height="18"><path d="M299.38 391.761h29.573v16.752H299.38v-16.752z" class="B E"/></mask><g mask="url(#K)" class="B F"><path d="M300.839 398.532c-3.285 7.35-.966 13.716 6.381 17.003s16.942 2.249 20.227-5.101 1.182-13.566-6.166-16.853-17.156-2.399-20.442 4.951z"/></g><mask id="L" maskUnits="userSpaceOnUse" x="318" y="402" width="94" height="7"><path d="M318.88 402.217h92.756v6.296H318.88v-6.296z" class="B E"/></mask><g mask="url(#L)" class="B F"><path d="M411.636 450.735l-1.391.484c-5.752-12.04-14.405-20.874-22.799-28.264-8.988-7.916-26.691-17.606-48.755-15.805-9.097.744-15.819 2.616-19.094 3.692l-.717-1.602c42.644-17.723 67.767 1.591 80.884 19.366 8.397 11.38 11.872 22.129 11.872 22.129z"/></g><mask id="M" maskUnits="userSpaceOnUse" x="318" y="367" width="143" height="42"><path d="M318.882 367.97h141.146v40.543H318.882V367.97z" class="B E"/></mask><g mask="url(#M)" class="B G"><path d="M460.028 424.646l-48.392 26.088c-3.707-7.595-9.283-14.669-13.931-19.845s-8.371-8.451-8.371-8.451c-29.643-26.118-70.452-13.2-70.452-13.2l35.197-36.926c21.516-7.744 40.59-4.276 56.418 3.711 30.997 15.644 49.531 48.623 49.531 48.623z"/></g><mask id="N" maskUnits="userSpaceOnUse" x="326" y="370" width="130" height="39"><path d="M326.896 370.634h128.409v37.879H326.896v-37.879z" class="B E"/></mask><g mask="url(#N)" class="B"><path d="M410.857 439.158c-2.217-4.767-6.207-11.852-12.618-18.538-7.213-7.521-15.952-13.013-25.976-16.322-10.697-3.531-22.882-4.569-36.303-3.099-1.475.162-2.344-1.61-1.309-2.674l19.832-20.396a12.66 12.66 0 0 1 5.248-3.241c3.79-1.202 10.548-2.808 19.209-2.611 7.982.181 15.999 1.834 23.828 4.913 9.799 3.854 19.334 9.966 28.346 18.174.043.039 4.403 3.94 9.276 9.203 6.414 6.927 10.789 13.042 12.651 17.685l-39.547 22.723c-.41-1.391-.916-2.119-2.637-5.817zm44.448-15.87c-4.66-11.624-22.388-28.494-23.103-29.132-9.171-8.352-18.893-14.578-28.898-18.503-8.019-3.146-16.235-4.83-24.419-5.004-13.962-.297-22.868 3.849-23.241 4.026l-.131.063-28.617 29.43 2.446-.409c15.877-2.656 30.131-1.96 42.364 2.068 9.766 3.216 18.281 8.554 25.308 15.866 11.996 12.481 16.05 24.976 16.084 25.117l42.207-23.522z" fill="url(#T)"/></g><g class="B"><path d="M410.901 389.733c3.285 7.35.966 13.717-6.381 17.003s-16.942 2.249-20.227-5.101-1.182-13.566 6.166-16.852 17.155-2.4 20.442 4.95z" class="F"/><path d="M451.722 155.363c-4.985 2.021-9.331 4.291-12.886 6.526-13.147 8.267-26.973 18.453-37.532 33.682l-1.801-.975-49.954-38.384c2.558-10.27 5.496-19.612 8.727-28.031 14.031-12.618 34.817-27.975 59.386-35.755 14.17-4.488 29.6-6.451 45.712-3.919l.83.547s-25.127 30.533-12.482 66.31z" fill-opacity=".095" class="H"/><path d="M387.064 140.537l-75.851 8.677-2.042-.092c-.45-6.893-1.648-13.414-3.345-19.607-2.847-10.423-7.083-19.905-11.486-28.6-2.68-5.301-6.681-11.468-12.05-17.617-9.667-11.07-23.786-22.092-42.674-27.913-12.112-3.735-21.744-4.789-26.523-5.091l-.1-2.436h.004l64.422-29.461c12.085.424 22.868 2.755 32.495 6.508 15.666 6.101 28.254 15.942 38.346 27.379 14.734 16.699 24.135 36.792 29.985 53.592 6.821 19.572 8.819 34.662 8.819 34.662z" class="J"/><path d="M378.245 105.875c-1.093 14.092-8.268 25.59-23.081 29.785-16.196 4.583-34.074.945-49.338-6.145-2.847-10.423-7.083-19.905-11.486-28.6-2.68-5.301-6.681-11.468-12.05-17.617 33.535-7.842 27.624-58.393 27.624-58.393 15.666 6.101 28.254 15.942 38.346 27.379 14.734 16.699 24.135 36.792 29.985 53.592z" fill-opacity=".1" class="H"/><path d="M289.017 97.162s-1.371-14.373-28.23-8.565c0 0 10.606 12.99 28.23 8.565z" fill="url(#U)"/><path d="M496.206 236.106l-40.034-58.438c-27.777-15.399-54.696-14.884-78.169-7.452-45.971 14.556-78.704 55.649-78.704 55.649l60.547 46.52-.001.002 1.799.972c10.561-15.227 24.385-25.415 37.534-33.679 14.081-8.854 40.501-18.205 70.35-10.83 12.307 3.04 21.106 7.101 25.357 9.304l1.338-2.038z" class="F"/><path d="M200.855 170.464l40.034-58.438c27.776-15.399 54.695-14.885 78.168-7.452 45.971 14.556 78.704 55.649 78.704 55.649l-60.547 46.52.001.002-1.8.972c-10.56-15.227-24.384-25.414-37.534-33.68-14.079-8.854-40.501-18.205-70.349-10.83-12.307 3.041-21.106 7.102-25.357 9.305l-1.338-2.037c.006-.004.012-.008.018-.011z" class="J"/><path d="M331.417 139.857l-1.811-.95c6.729-17.267 7.457-34.428 6.966-49.955-.521-16.628-7.522-43.774-30.308-64.423-9.394-8.514-17.676-13.547-21.877-15.844l.942-2.249c58.459 26.381 62.764 70.189 57.222 100.366-3.549 19.321-11.134 33.054-11.134 33.054z" class="F"/><path d="M403.809 164.115l-72.392-24.26c4.172-10.971 6.039-23.342 6.865-32.969s.607-16.513.607-16.513c-1.706-54.851-53.557-83.937-53.557-83.937l70.834.592c28.282 14.449 42.89 37.073 49.836 60.7 13.602 46.276-2.193 96.387-2.193 96.387z" fill="url(#V)"/><path d="M339.015 136.268l60.582 18.493c2.933-6.298 4.971-16.541 5.893-29.622.701-9.938.511-18.062.509-18.143-.248-16.93-3.116-32.399-8.521-45.991-4.319-10.859-10.261-20.554-17.659-28.815-8.03-8.964-16.075-14.288-20.893-16.986-2.53-1.417-5.369-2.187-8.267-2.24l-39.498-.723c-2.06-.037-3.029 2.525-1.464 3.866 14.238 12.206 24.763 25.54 31.347 39.735 6.171 13.303 8.912 27.376 8.146 41.831-.682 12.849-4.067 23.622-6.787 30.397-2.111 5.257-2.369 6.462-3.388 8.199zm-2.233 1.342c.11-.169 8.914-16.146 10.158-40.16.729-14.068-1.953-27.768-7.973-40.719-7.541-16.226-20.376-31.331-38.149-44.898l-2.738-2.09 56.991 1.043.189.074c.533.21 13.192 5.296 26.155 19.728 7.598 8.46 13.698 18.385 18.129 29.501 5.529 13.868 8.46 29.635 8.712 46.863.034 1.33-.212 35.322-7.558 51.087l-63.916-20.429zm41.313-81.866c-10.309-4.324-18.603-.552-22.926 9.76s3.74 21.02 14.048 25.344 18.96.627 23.283-9.685-4.097-21.095-14.405-25.419z" class="G"/><path d="M293.767 217.022l-1.945.633c-7.654-16.877-19.423-29.384-30.874-39.878-12.261-11.239-36.572-25.187-67.26-23.297-12.652.78-22.037 3.194-26.615 4.597l-.95-2.245c59.703-23.426 94.052 4.089 111.772 29.133 11.345 16.036 15.872 31.057 15.872 31.057z" class="F"/><path d="M361.684 182.139l-67.918 34.882c-4.935-10.65-12.483-20.627-18.793-27.941s-11.39-11.967-11.39-11.967c-40.435-37.089-97.459-20.283-97.459-20.283l49.896-50.298c30.091-10.156 56.48-4.812 78.235 6.718 42.609 22.581 67.429 68.889 67.429 68.889z" fill="url(#W)"/><path d="M296.506 209.076l55.543-30.456c-2.458-6.498-8.363-15.11-17.077-24.907-6.62-7.443-12.565-12.98-12.624-13.035-12.287-11.647-25.357-20.4-38.857-26.022-10.785-4.493-21.871-7.01-32.95-7.483-12.02-.513-21.449 1.529-26.744 3.094a17.57 17.57 0 0 0-7.377 4.354l-28.103 27.771c-1.466 1.448-.309 3.932 1.743 3.748 18.677-1.667 35.568.111 50.322 5.311 13.827 4.873 25.811 12.741 35.617 23.384 8.716 9.462 14.06 19.41 17.007 26.09 2.287 5.182 2.969 6.208 3.5 8.151zm-.6 2.536c-.044-.197-5.326-17.658-21.637-35.321-9.556-10.348-21.231-17.996-34.701-22.732-16.876-5.934-36.648-7.295-58.768-4.048l-3.407.501 40.55-40.071.186-.084c.522-.235 13.002-5.745 32.381-4.946 11.36.469 22.721 3.034 33.769 7.626 13.782 5.727 27.111 14.641 39.613 26.493.975.905 25.123 24.822 31.271 41.092l-59.257 31.49zm-1.47-79.314c-4.358-10.296-17.953-11.801-28.246-7.441s-13.388 12.934-9.03 23.23 17.651 12.004 27.944 7.644 13.691-13.136 9.332-23.433z" class="G"/><path d="M406.425 164.094l2.042.119c3.123-18.267 11.336-33.352 19.751-46.408 9.009-13.984 28.988-33.644 59.151-39.603 12.437-2.457 22.127-2.504 26.911-2.308l.35-2.413c-63.692-7.509-89.938 27.823-100.728 56.545-6.907 18.389-7.477 34.068-7.477 34.068z" class="F"/><path d="M331.884 147.586l74.542 16.506c2.074-11.553 6.844-23.119 11.093-31.796s7.983-14.466 7.983-14.466c29.705-46.136 89.127-44.35 89.127-44.35l-61.02-35.991c-31.682-2.188-55.852 9.678-73.972 26.351-35.488 32.655-47.753 83.745-47.753 83.745z" fill="url(#X)"/><path d="M403.079 148.33c1.157-7.209 3.802-18.188 9.835-29.551 6.786-12.784 16.382-23.435 28.521-31.657 12.953-8.774 28.84-14.781 47.329-17.907 2.032-.343 2.521-3.039.735-4.068l-34.226-19.731c-2.512-1.448-5.341-2.251-8.239-2.34-5.52-.17-15.158.249-26.655 3.795-10.596 3.268-20.681 8.517-29.974 15.599-11.632 8.865-22.055 20.648-30.987 35.031-.042.068-4.389 6.933-8.905 15.813-5.945 11.687-9.472 21.516-10.202 28.426l61.449 15.364c.021-2.014.421-3.179 1.319-8.773zm-65.399-4.349c1.821-17.297 19.114-46.56 19.826-47.682 9.089-14.637 19.72-26.641 31.6-35.679 9.522-7.245 19.861-12.609 30.73-15.945 18.542-5.691 32.011-3.529 32.577-3.433l.2.033 49.385 28.471-3.422.381c-22.22 2.471-41 8.806-55.819 18.827-11.829 7.999-21.182 18.36-27.802 30.794-11.297 21.224-11.979 39.456-11.971 39.657l-65.304-15.423zm72.048-76.034c-11.062-1.606-23.831 3.299-25.436 14.365s3.906 18.693 14.969 20.298 23.487-3.419 25.092-14.485-3.562-18.573-14.625-20.178z" class="G"/><path d="M336.032 141.486c6.703-27.602 34.506-44.542 62.098-37.837s44.528 34.517 37.825 62.119-34.505 44.542-62.099 37.837-44.528-34.518-37.824-62.119z" class="I"/><path d="M331.673 140.427c6.703-27.602 34.506-44.542 62.099-37.837s44.527 34.516 37.824 62.118-34.505 44.542-62.098 37.837-44.528-34.516-37.825-62.118z" class="D"/><path d="M381.411 109.077c-7.986 0-15.841 2.188-22.834 6.449-10.049 6.123-17.113 15.793-19.891 27.23a43.78 43.78 0 0 0 5.185 33.324 43.76 43.76 0 0 0 27.223 19.897 43.74 43.74 0 0 0 33.312-5.187c10.049-6.122 17.113-15.793 19.89-27.231 5.734-23.609-8.804-47.484-32.406-53.219-3.476-.845-6.991-1.263-10.479-1.263zm.166 90.959c-3.71 0-7.446-.444-11.144-1.343-12.158-2.954-22.44-10.468-28.949-21.158s-8.467-23.276-5.513-35.439 10.465-22.447 21.152-28.958a46.53 46.53 0 0 1 35.427-5.515c25.099 6.1 40.559 31.489 34.462 56.596-2.954 12.164-10.465 22.448-21.152 28.959-7.437 4.531-15.792 6.858-24.283 6.858zm-14.093-50.93c2.129 0 3.802-.571 5.02-1.712s1.825-2.72 1.825-4.737v-.057c0-1.978-.633-3.547-1.897-4.707s-2.952-1.741-5.063-1.741h-7.33v12.954h7.445zm-16.059-19.716h17c3.08 0 5.719.528 7.915 1.583s3.879 2.564 5.049 4.523 1.754 4.318 1.754 7.076v.057c0 2.72-.671 5.131-2.011 7.233s-3.152 3.6-5.434 4.494l8.671 16.206h-9.783l-7.644-14.894h-.214-.214-6.475v14.894h-8.614V129.39zm55.392 33.796c1.008-.732 1.783-1.773 2.325-3.124s.813-2.948.813-4.793v-.029c0-1.864-.276-3.467-.827-4.808s-1.332-2.372-2.339-3.095-2.197-1.085-3.566-1.085c-1.35 0-2.538.367-3.565 1.099s-1.825 1.774-2.396 3.124-.856 2.949-.856 4.794v.028c0 1.826.29 3.415.87 4.765s1.379 2.392 2.396 3.124 2.201 1.099 3.551 1.099c1.388 0 2.586-.366 3.594-1.099zm-18.711-23.211h8.329v5.336h.2c.551-1.236 1.278-2.302 2.182-3.196a9.3 9.3 0 0 1 3.166-2.054c1.207-.476 2.533-.713 3.979-.713 2.585 0 4.81.632 6.674 1.897s3.299 3.087 4.307 5.464 1.512 5.221 1.512 8.531v.029c0 3.309-.499 6.153-1.497 8.531s-2.421 4.204-4.265 5.478-4.05 1.912-6.617 1.912c-1.446 0-2.786-.238-4.022-.714s-2.31-1.145-3.223-2.011-1.654-1.907-2.225-3.124h-.171v15.207h-8.329v-40.573z" class="C"/><path d="M335.637 166.432l22.849 80.955-192.98 54.502-22.849-80.955 192.98-54.502z" fill="url(#Y)"/><path d="M338.424 229.87c1.55 5.493-1.639 11.193-7.13 12.745l-146.756 41.446c-4.913 1.388-10.018-1.471-11.406-6.384l-11.567-40.984a10.18 10.18 0 0 1 7.03-12.565l146.208-41.292a9.96 9.96 0 0 1 12.287 6.879l11.334 40.155zm-182.747-4.723l18.219 64.55 170.456-48.14-18.219-64.551-170.456 48.141zm114.731 2.445c-3.132-11.099-14.666-17.556-25.761-14.422s-17.55 14.67-14.418 25.769 14.667 17.556 25.762 14.422 17.55-14.671 14.417-25.769z" class="G"/><path opacity=".098" d="M335.637 166.432l22.849 80.955-150.878 42.612c6.981-4.378 70.906-25.425 84.064-54.605 15.968-35.413 3.445-54.816 3.786-57.615l40.179-11.347z" class="H"/><path d="M560.017 189.135l.367 84.12-200.522.876-.368-84.119 200.523-.877z" fill="url(#Z)"/><path d="M545.738 251.007c.024 5.708-4.574 10.347-10.279 10.372l-152.492.667c-5.104.022-9.259-4.098-9.282-9.205l-.186-42.584a10.18 10.18 0 0 1 10.134-10.226l151.922-.664c5.497-.025 9.976 4.417 10 9.916l.183 41.724zm-174.824-53.451l.293 67.072 177.117-.774-.294-67.073-177.116.775zm88.929 12.265c-11.528.051-20.833 9.441-20.783 20.973s9.438 20.841 20.966 20.79 20.834-9.44 20.783-20.972-9.437-20.841-20.966-20.791z" class="G"/><path opacity=".098" d="M560.016 189.135l.368 84.12-156.775.686c7.898-2.351 75.121-5.526 95.602-30.121 24.857-29.85 17.979-51.897 19.055-54.503l41.75-.182z" class="H"/><path d="M437.96 250.022c-13.708-24.876-44.98-33.925-69.847-20.212s-33.914 44.994-20.206 69.869 44.98 33.925 69.848 20.213 33.914-44.995 20.205-69.87z" class="I"/><path d="M434.032 252.188c-13.708-24.876-44.98-33.925-69.847-20.212s-33.914 44.994-20.206 69.869 44.98 33.925 69.848 20.212 33.914-44.994 20.205-69.869z" class="D"/><path d="M389.237 233.465c-7.339 0-14.598 1.853-21.203 5.495-21.271 11.729-29.037 38.583-17.311 59.861a43.76 43.76 0 0 0 26.336 21.057c11.302 3.269 23.202 1.942 33.506-3.74 21.271-11.73 29.037-38.583 17.311-59.861-5.68-10.307-15.033-17.785-26.335-21.056-4.059-1.174-8.194-1.756-12.304-1.756zm.13 90.965c-4.373 0-8.769-.619-13.085-1.868-12.02-3.478-21.966-11.43-28.006-22.391a46.56 46.56 0 0 1-3.976-35.643c3.477-12.025 11.427-21.974 22.385-28.016a46.52 46.52 0 0 1 35.632-3.977 46.54 46.54 0 0 1 28.007 22.392c12.469 22.628 4.211 51.185-18.41 63.659-7.023 3.873-14.745 5.844-22.547 5.844zm-16.502-45.504c1.835-.739 3.078-1.812 3.731-3.218s.63-2.977-.07-4.714l-.019-.05c-.687-1.704-1.776-2.836-3.268-3.397s-3.147-.476-4.966.257l-6.316 2.545 4.493 11.161 6.415-2.584zm-20.676-11.414l14.648-5.901c2.654-1.069 5.11-1.53 7.369-1.383s4.232.862 5.919 2.145 3.009 3.111 3.966 5.488l.019.049c.944 2.344 1.203 4.654.777 6.93s-1.467 4.196-3.123 5.758l13.093 10.954-8.43 3.396-11.753-10.18-.184.075-.185.074-5.578 2.247 5.166 12.834-7.422 2.989-14.282-35.475zm59.451 9.894c.614-.981.921-2.147.919-3.499s-.322-2.822-.962-4.413l-.01-.024c-.647-1.606-1.441-2.891-2.38-3.856s-1.971-1.582-3.089-1.855-2.269-.172-3.449.303c-1.163.469-2.06 1.197-2.691 2.184s-.957 2.163-.98 3.524.285 2.837.925 4.427l.01.025c.633 1.573 1.434 2.841 2.402 3.803s2.017 1.583 3.148 1.861 2.278.182 3.441-.287c1.196-.481 2.102-1.212 2.716-2.193zm-24.174-13.505l7.177-2.891 1.85 4.597.172-.069c.046-1.256.304-2.427.772-3.511s1.14-2.039 2.015-2.869 1.936-1.494 3.181-1.996c2.229-.897 4.365-1.124 6.41-.681s3.913 1.514 5.606 3.212 3.114 3.975 4.262 6.826l.01.025c1.148 2.852 1.704 5.476 1.669 7.87s-.627 4.463-1.774 6.201-2.827 3.053-5.039 3.944c-1.246.502-2.483.762-3.713.781s-2.388-.185-3.475-.614-2.086-1.069-3-1.92l-.148.059 5.275 13.104-7.176 2.891-14.074-34.959z" class="C"/><path d="M340.021 202.763c-1.84-21.263-20.563-37.009-41.819-35.169s-36.998 20.569-35.158 41.832 20.562 37.009 41.819 35.169 36.997-20.569 35.158-41.832z" class="I"/><path d="M336.663 203.053c-1.84-21.262-20.563-37.008-41.819-35.168s-36.997 20.568-35.158 41.832 20.563 37.009 41.819 35.168 36.997-20.568 35.158-41.832z" class="D"/><path d="M265.238 209.694c1.574 18.189 17.651 31.709 35.829 30.132s31.695-17.652 30.122-35.84a32.89 32.89 0 0 0-11.676-22.488 32.87 32.87 0 0 0-24.153-7.643c-18.182 1.573-31.695 17.651-30.122 35.84v-.001zm32.95 32.357c-18.049 0-33.457-13.86-35.041-32.176-1.674-19.342 12.696-36.439 32.032-38.113 9.367-.811 18.489 2.076 25.685 8.128a34.98 34.98 0 0 1 12.417 23.915c1.673 19.342-12.697 36.439-32.033 38.113-1.027.089-2.048.133-3.06.133zm-12.114-39.781c1.46 0 2.608-.392 3.443-1.175s1.252-1.865 1.252-3.248v-.04c0-1.356-.433-2.433-1.301-3.229s-2.025-1.194-3.472-1.194h-5.029v8.886h5.107zm-11.016-13.524h11.661c2.113 0 3.923.362 5.43 1.086s2.661 1.758 3.463 3.102 1.203 2.962 1.203 4.854v.039c0 1.866-.46 3.52-1.379 4.961s-2.162 2.47-3.727 3.083l5.947 11.117h-6.711l-5.243-10.217h-.147-.146-4.442v10.217h-5.909v-28.242zm37.997 23.183c.691-.503 1.223-1.217 1.594-2.144s.558-2.022.558-3.287v-.02c0-1.279-.189-2.378-.567-3.298s-.914-1.628-1.605-2.124-1.506-.743-2.445-.743c-.927 0-1.742.251-2.446.753s-1.252 1.217-1.644 2.143-.587 2.023-.587 3.289v.019c0 1.252.199 2.342.597 3.268s.945 1.641 1.644 2.144 1.509.753 2.436.753c.952 0 1.773-.251 2.465-.753zm-12.835-15.922h5.713v3.66h.137c.378-.848.877-1.579 1.497-2.192a6.36 6.36 0 0 1 2.172-1.409c.828-.327 1.737-.49 2.729-.49 1.774 0 3.3.434 4.578 1.302s2.263 2.117 2.955 3.748 1.037 3.581 1.037 5.852v.02c0 2.27-.343 4.221-1.027 5.851s-1.661 2.884-2.926 3.758-2.778 1.311-4.539 1.311c-.992 0-1.911-.163-2.759-.489s-1.584-.786-2.211-1.38a7.03 7.03 0 0 1-1.526-2.143h-.117v10.432h-5.713v-27.831z" class="C"/><path d="M328.738 98.862a20.19 20.19 0 0 0-27.701-6.929c-9.562 5.739-12.663 18.144-6.926 27.709s18.139 12.667 27.701 6.929 12.663-18.144 6.926-27.709z" class="I"/><path d="M327.227 99.768a20.19 20.19 0 0 0-27.7-6.929c-9.563 5.739-12.663 18.145-6.927 27.71s18.139 12.667 27.701 6.929 12.663-18.145 6.926-27.71z" class="D"/><path d="M295.203 119.265c4.907 8.182 15.554 10.846 23.733 5.936 3.962-2.378 6.762-6.156 7.882-10.64s.429-9.137-1.948-13.1a17.32 17.32 0 0 0-23.733-5.936 17.33 17.33 0 0 0-5.934 23.74zm14.864 9.496c-6.254 0-12.36-3.187-15.805-8.931-5.218-8.701-2.387-20.027 6.31-25.246s20.021-2.388 25.239 6.313c2.528 4.215 3.264 9.163 2.072 13.93s-4.169 8.788-8.383 11.316c-2.955 1.774-6.214 2.619-9.433 2.619z" class="C"/><path d="M401.51 27.665c-10.795-2.797-21.812 3.689-24.608 14.487s3.687 21.819 14.482 24.616 21.812-3.689 24.608-14.487-3.688-21.819-14.482-24.616z" class="I"/><path d="M399.804 27.223c-10.794-2.797-21.811 3.689-24.608 14.487s3.688 21.819 14.482 24.616 21.813-3.689 24.609-14.487-3.688-21.819-14.483-24.616z" class="D"/><path d="M394.652 29.695a17.19 17.19 0 0 0-16.716 12.972 17.19 17.19 0 0 0 1.838 13.116 17.18 17.18 0 0 0 10.571 7.974 17.25 17.25 0 0 0 4.334.555c7.693 0 14.732-5.179 16.749-12.967 2.392-9.236-3.175-18.697-12.409-21.09a17.4 17.4 0 0 0-4.367-.56zm.027 35.715a18.37 18.37 0 0 1-4.61-.59c-4.756-1.232-8.749-4.244-11.241-8.48a18.28 18.28 0 0 1-1.954-13.947 18.28 18.28 0 0 1 8.477-11.245 18.27 18.27 0 0 1 13.944-1.955c4.756 1.233 8.749 4.244 11.241 8.48s3.186 9.19 1.954 13.948c-2.145 8.281-9.63 13.789-17.811 13.79zm-4.177-22.994c.668.365 1.29.472 1.867.323s1.038-.54 1.383-1.173l.01-.018c.339-.62.409-1.221.211-1.801s-.628-1.052-1.29-1.413l-2.299-1.256-2.217 4.062 2.335 1.275zm-1.661-8.933l5.331 2.912c.966.528 1.703 1.145 2.211 1.852s.778 1.468.809 2.283-.189 1.654-.661 2.519l-.01.018c-.465.853-1.088 1.494-1.869 1.924a3.96 3.96 0 0 1-2.473.478l-.055 6.568-3.068-1.676.152-5.98-.067-.037-.067-.037-2.03-1.109-2.55 4.671-2.701-1.475 7.048-12.911zm11.585 20.086c.441-.057.863-.251 1.264-.582s.76-.785 1.075-1.364l.005-.009c.319-.584.507-1.134.564-1.649s-.012-.972-.204-1.372-.503-.716-.932-.951c-.424-.231-.859-.32-1.306-.266s-.877.243-1.286.569-.773.778-1.089 1.357l-.005.009c-.313.573-.494 1.121-.543 1.643s.022.986.217 1.39.502.721.925.953c.436.238.874.328 1.315.271zm-1.894-10.484l2.611 1.427-.913 1.673.063.034c.384-.293.795-.503 1.231-.628a3.32 3.32 0 0 1 1.345-.102 3.84 3.84 0 0 1 1.369.458c.812.443 1.401 1.023 1.769 1.738s.506 1.533.415 2.451-.42 1.897-.986 2.934l-.005.009c-.567 1.038-1.21 1.845-1.93 2.419s-1.478.904-2.275.987-1.597-.094-2.402-.534c-.454-.247-.833-.552-1.139-.913s-.529-.755-.667-1.183a3.65 3.65 0 0 1-.163-1.361l-.053-.029-2.604 4.769-2.612-1.427 6.946-12.724z" class="C"/><path d="M440.86 197.826a15.91 15.91 0 0 1 5.454-21.821 15.9 15.9 0 0 1 21.815 5.456 15.91 15.91 0 0 1-5.455 21.822 15.9 15.9 0 0 1-21.814-5.457z" class="I"/><path d="M439.671 198.54c-4.518-7.532-2.076-17.302 5.454-21.822a15.9 15.9 0 0 1 21.815 5.457 15.91 15.91 0 0 1-5.454 21.821 15.9 15.9 0 0 1-21.815-5.456z" class="D"/><path d="M441.721 197.529a13.64 13.64 0 0 0 18.69 4.675c6.441-3.865 8.537-12.252 4.672-18.696a13.64 13.64 0 0 0-18.689-4.675c-6.441 3.866-8.538 12.253-4.673 18.696zm11.705 7.478c-4.925 0-9.733-2.509-12.447-7.033-4.109-6.852-1.879-15.771 4.97-19.881s15.766-1.881 19.876 4.971 1.88 15.771-4.97 19.881c-2.327 1.397-4.894 2.062-7.429 2.062zm-5.063-12.988c.509-.351.815-.763.917-1.237s-.011-.951-.344-1.433l-.009-.014c-.326-.473-.736-.744-1.229-.812s-.993.07-1.497.418l-1.752 1.209 2.134 3.096 1.78-1.227zm-7.088-2.065l4.064-2.803c.736-.508 1.454-.817 2.153-.926a3.34 3.34 0 0 1 1.952.248c.602.276 1.13.743 1.585 1.402l.009.014c.449.65.686 1.337.712 2.06a3.22 3.22 0 0 1-.559 1.97l4.744 2.444-2.339 1.613-4.281-2.299-.051.035-.052.035-1.547 1.068 2.454 3.56-2.059 1.42-6.785-9.841zm18.809-1.056c.121-.341.134-.717.041-1.13s-.291-.838-.595-1.279l-.005-.007c-.308-.446-.637-.783-.99-1.013s-.709-.347-1.069-.354a1.73 1.73 0 0 0-1.031.328 1.74 1.74 0 0 0-.671.851c-.125.344-.144.725-.058 1.142s.281.846.585 1.287l.005.007c.301.436.632.768.993.995s.724.344 1.088.352.706-.101 1.029-.323c.332-.229.558-.514.678-.856zm-8.297-2.462l1.991-1.373.879 1.275.048-.033c-.072-.386-.074-.761-.005-1.124s.208-.7.418-1.013.488-.588.833-.827c.619-.426 1.255-.641 1.909-.647s1.297.194 1.929.596 1.222.999 1.767 1.79l.005.007c.546.791.895 1.553 1.048 2.286s.114 1.404-.116 2.013-.653 1.124-1.267 1.548a3.22 3.22 0 0 1-1.079.492c-.374.091-.741.108-1.102.051a2.96 2.96 0 0 1-1.046-.38l-.041.029 2.506 3.634-1.991 1.374-6.686-9.698z" class="C"/><path d="M259.365 182.382s-11.087-7.811-19.394-6.28-17.298 12.225-17.298 12.225 16.586 1.837 22.735-.492l13.957-5.453z" fill="url(#a)"/><path d="M442.125 166.281s18.91-10.285 26.124-6.877 11.041 11.499 11.041 11.499-8.746.875-15.523.547-11.367-6.402-21.642-5.169z" fill="url(#b)"/><path d="M472.293 87.389s12.637-6.257 18.307-4.798 11.398 4.798 11.398 4.798-7.041 4.241-13.892 3.949-15.813-3.949-15.813-3.949z" fill="url(#c)"/><path d="M389.875 22.962s-6.523-8.091-4.245-13.996S389.875 0 389.875 0s5.973 6.779 5.72 11.481-5.72 11.481-5.72 11.481z" fill="url(#d)"/><path d="M416.642 37.23s-1.526-10.185 3.197-13.101 12.302-2.916 12.302-2.916-1.166 8.602-4.373 10.497-9.719 2.934-11.126 5.52z" fill="url(#e)"/><path d="M343.844 308.566s6.389 9.039 6.68 12.246-9.014 11.372-9.014 11.372-3.01-7.873-1.698-11.809l4.032-11.809zm-11.875-51.636s-9.495 3.207-10.807 8.455-.874 9.004-.874 9.004 13.743-6.671 11.681-17.459zm2.893 0s2.932 3.353 2.996 5.685-1.498 4.365-1.498 4.365-3.458-2.783-1.498-10.05z" class="F"/><path d="M305.557 106.171c.668.365 1.291.472 1.868.323s1.038-.54 1.383-1.173l.01-.017c.338-.621.409-1.221.211-1.802s-.628-1.051-1.29-1.412l-2.299-1.256-2.217 4.062 2.334 1.275zm-1.661-8.933l5.331 2.912c.967.527 1.704 1.145 2.212 1.852s.778 1.468.809 2.283-.189 1.655-.661 2.519l-.01.018c-.466.853-1.089 1.495-1.869 1.924s-1.604.589-2.473.479l-.055 6.567-3.068-1.676.152-5.98-.067-.036-.067-.037-2.03-1.109-2.55 4.671-2.701-1.476 7.047-12.911zm11.586 20.086c.441-.057.862-.251 1.264-.581s.759-.786 1.075-1.364l.005-.009c.319-.585.507-1.135.564-1.65s-.012-.972-.204-1.371-.503-.716-.932-.951a2.14 2.14 0 0 0-1.307-.266c-.447.054-.876.244-1.286.569s-.773.778-1.089 1.357l-.004.009c-.313.573-.494 1.121-.544 1.643s.023.987.217 1.39.502.722.926.953c.435.238.873.328 1.315.271zm-1.895-10.484l2.612 1.427-.913 1.673.062.034a3.73 3.73 0 0 1 1.232-.628 3.32 3.32 0 0 1 1.344-.102c.46.058.917.21 1.37.458.811.443 1.4 1.022 1.768 1.738s.507 1.533.416 2.451-.42 1.897-.987 2.935l-.004.009c-.567 1.038-1.21 1.844-1.93 2.419s-1.479.904-2.275.987-1.598-.094-2.403-.534c-.453-.248-.833-.552-1.139-.913s-.528-.755-.666-1.182a3.65 3.65 0 0 1-.163-1.361l-.054-.03-2.603 4.769-2.612-1.426 6.945-12.724z" class="C"/><path d="M455.087 400.703l-.001 5.648c0 .449-.137.867-.372 1.215-.249.365-.605.653-1.021.814a2.02 2.02 0 0 1-.399.112c-.125.023-.252.035-.383.035l-89.921-.014c-.36.001-.702-.089-1.002-.246a2.19 2.19 0 0 1-1.164-1.721l-.007-.098-.002-.111.001-5.648.003-.111c.058-1.146 1.014-2.065 2.173-2.065l89.92.014a2.12 2.12 0 0 1 .384.035c.137.024.27.061.398.111a2.2 2.2 0 0 1 1.021.815c.235.348.372.766.372 1.215z" class="D"/><g class="C"><path d="M410.93 408.52l-48.173-.007c-.322 0-.627-.089-.895-.246-.569-.334-.974-.974-1.038-1.721l-.007-.098-.002-.111.001-5.648.003-.112c.052-1.145.905-2.063 1.939-2.064l42.258.007c.656 2.863 2.162 6.794 5.619 9.754l.295.246zm33.215.005h-1.022l.001-9.999h1.022l-.001 9.999z"/><use xlink:href="#j" x="275.689" y="-0.009"/><path d="M436.536 408.524h-1.021l.001-9.999h1.022l-.002 9.999z"/><use xlink:href="#l" x="205.796" y="9.733"/><path d="M423.454 408.522l-1.022.001.001-10.001 1.022.001-.001 9.999zm-10.309-.001h-1.021l.001-10h1.021l-.001 10zm-9.651-.002h-1.023l.002-10 1.022.001-.001 9.999zm-8.62-.001h-1.021l.001-9.999h1.022l-.002 9.999zm52.563.008h-1.021l.001-10h1.022l-.002 10z"/><use xlink:href="#l" x="225.231" y="9.736"/><path d="M451.713 408.527l-1.022-.001.002-9.999h1.022l-.002 10zm1.583-9.965l-.002 9.93c-.125.023-.252.035-.383.035l-.639-.001.002-9.999h.638a2.12 2.12 0 0 1 .384.035zm1.419.926l-.001 8.077a2.19 2.19 0 0 1-1.021.815l.001-9.706c.418.161.773.448 1.021.814z"/></g><path d="M445.249 390.704l-.001 5.647c0 .45-.138.868-.374 1.215a2.19 2.19 0 0 1-1.02.814 2 2 0 0 1-.399.112c-.125.023-.252.035-.383.035l-89.921-.013c-1.159 0-2.114-.92-2.173-2.065l-.002-.112v-5.647l.003-.112c.054-1.06.876-1.924 1.917-2.048.084-.011.169-.016.256-.016l89.921.014a2.21 2.21 0 0 1 .384.034c.137.025.27.062.398.112a2.19 2.19 0 0 1 1.02.815c.237.348.374.765.374 1.215z" class="D"/><g class="C"><path d="M401.092 398.521l-48.174-.007c-1.034 0-1.887-.92-1.94-2.065l-.002-.112v-5.647l.003-.112c.048-1.059.782-1.924 1.711-2.048.075-.011.151-.016.229-.016l42.258.006c.68 2.957 2.253 7.02 5.915 10.001zm33.214.005h-1.022l.002-10h1.021l-.001 10zm-3.459-.001h-1.023l.002-10 1.022.001-.001 9.999z"/><use xlink:href="#h" x="243.431" y="-10.012"/><path d="M420.339 398.524h-1.022l.001-10h1.023l-.002 10zm-6.725-.001h-1.021l.001-10h1.022l-.002 10zm-10.308-.002h-1.021l.001-10h1.022l-.002 10zm-9.652-.001l-1.022-.001.001-9.999h1.023l-.002 10z"/><use xlink:href="#j" x="220.04" y="-10.015"/><use xlink:href="#l" x="213.217" y="-0.264"/><path d="M439.774 398.527l-1.022-.001.002-10 1.022.001-.002 10zm2.1 0h-1.021l.001-10 1.022.001-.002 9.999zm1.583-9.965l-.002 9.93c-.125.023-.252.035-.383.035h-.639l.001-10h.639c.131 0 .258.012.384.035zm1.418.927l-.001 8.077a2.2 2.2 0 0 1-1.02.814l.001-9.706c.417.161.773.449 1.02.815z"/></g><path d="M454.632 380.719l-.001 5.647c0 .45-.137.867-.373 1.215-.248.366-.604.653-1.021.815-.128.05-.261.087-.399.111l-.126.019-.071.008-.071.005-.115.003-89.921-.013c-1.159 0-2.113-.919-2.172-2.065l-.003-.112.001-5.647.003-.112.006-.091a2.19 2.19 0 0 1 1.63-1.906l.067-.015a2.14 2.14 0 0 1 .47-.052l89.921.013.194.009.087.01.001-.001.101.017c.137.025.271.062.398.112.417.162.774.449 1.021.815.236.348.373.765.373 1.215z" class="D"/><g class="C"><path d="M410.475 388.536l-48.174-.007c-1.034 0-1.886-.919-1.939-2.065l-.003-.112.001-5.647.003-.112.005-.091c.079-.942.701-1.714 1.507-1.919.028-.008.056-.014.084-.019a1.7 1.7 0 0 1 .343-.035l42.258.007.017.07c.682 2.933 2.254 6.955 5.879 9.914.005.005.013.011.019.016z"/><use xlink:href="#h" x="260.422" y="-19.996"/><use xlink:href="#l" x="215.847" y="-10.25"/><use xlink:href="#j" x="271.085" y="-19.994"/><path d="M429.722 388.539H428.7l.002-10h1.022l-.002 10zm-6.724-.001l-1.022-.001.001-9.999H423l-.002 10zm-10.309-.002h-1.022l.002-9.999h1.022l-.002 9.999zm-9.652-.001l-1.021-.001.002-9.999h1.021l-.002 10zm-8.617-.001h-1.023l.002-10.001 1.022.001-.001 10zm52.562.008l-1.023-.001.002-9.999h1.022l-.001 10zm2.175 0l-1.022-.001.002-9.999h1.021l-.001 10zm2.101 0h-1.022l.001-9.999 1.022-.001-.001 10zm1.582-9.965l-.002 9.93c-.125.023-.252.035-.383.035h-.639l.001-10 .64.001a2.03 2.03 0 0 1 .383.034zm1.419.926l-.001 8.078a2.19 2.19 0 0 1-1.021.814l.001-9.706c.417.161.773.449 1.021.814zm-317.571 21.79h38.515v-3.266h-38.515v3.266z"/><path d="M362.315 402.993h32.852v-14.731h-32.852v14.731z"/><path d="M400.144 397.682l2.152 1.978-.3 2.866-12.594-.366-1.199-5.333 11.941.855z"/></g><path d="M192.266 140.188c-.024-.657-.532-7.74-11.317-8.109 0 0 3.975.592 5.895 2.724 0 0-3.286-2.641-6.227-1.715s-4.667 6.081-4.685 7.776 1.617 7.159 3.483 7.624c.707.176 1.521.128 2.26.003-.496.775-.983 1.631-1.449 2.586-4.302 8.836.135 17.472 3.778 16.518 2.337-.612 2.998 3.376 2.998 3.376l22.699-18.382s-8.337-17.258-17.435-12.401z" fill="#2c2c2c"/><path d="M300.73 276.305l.524 3.333c17.669 45.889 5.396 127.569 5.789 128.871l73.559.096c-22.822-107.474-79.872-132.3-79.872-132.3z" fill="url(#f)"/><path d="M200.169 400.508l-4.821 1.795s-20.942-29.055-23.521-54.618c-.46-4.563-.307-8.986.689-13.069l-.563-3.236-.602-3.458-2.689-15.321-8.136-45.024 1.299-.417 14.057-4.536 2.905-9.23 10.467-2.756s2.338 4.575 4.428 26.189a163.26 163.26 0 0 1 1 9.352c.815 10.348.874 23.185-.996 37.86-.48 3.757-1.086 7.636-1.838 11.621-.551 2.921-.634 6.903-.402 11.474 1.056 20.897 8.723 53.374 8.723 53.374z" fill="#303030"/><path d="M194.682 286.179l-22.729 45.201-.602-3.458-2.689-15.321-8.136-45.024 1.299-.417 14.057-4.536 2.905-9.23 10.467-2.756s2.338 4.575 4.428 26.189a163.26 163.26 0 0 1 1 9.352z" fill="#282828"/><path d="M184.683 256.438l-.526-4.513c-8.815 2.342-32.368-6.545-32.368-6.545s-8.539 7.509-7.418 25.509c.547 8.785 1.547 46.117 2.591 57.164l.843 7.992c.044.358-.078.685-.254.989-1.537 2.609-2.809 5.326-3.854 8.107-10.247 27.316 1.579 60.956 1.579 60.956l3.069-1.238s6.729-37.437 12.197-53.976c.929-2.805 1.819-5.009 2.634-6.327 2.378-3.838 4.584-10.109 6.586-17.569 3.786-14.103 6.832-32.449 8.86-46.61.279.013 6.061-23.939 6.061-23.939z" fill="#303030"/><g class="K"><path d="M196.771 200.595c.621-2.263 1.642-4.051 2.7-5.402.146-.219.292-.438.511-.62 1.752-2.081 3.467-2.957 3.467-2.957.875-.365 1.824.074 2.809 1.132v.036c.803.84 1.678 2.117 2.518 3.723.037.037.073.074.073.11l.584 1.095c.072.073.109.182.146.255l1.204 2.628c4.488 9.782 9.268 24.601 13.245 29.017 1.715 1.899 9.56 5.621 15.799 8.395l8.137 3.431s4.498-.878 5.526 0 5.907 5.836 4.862 7.463-6.051-1.348-7.093-1.628-3.952-1.418-3.952-1.418-.292 0-.802-.037c-1.606-.109-5.51-.328-9.925-.803-6.641-.657-14.522-1.825-17.661-3.759-4.78-2.92-12.624-11.863-17.733-20.805-.146-.219-.255-.438-.365-.657-2.663-4.745-4.524-9.454-4.67-13.213-.109-2.3.146-4.271.62-5.986z"/><path d="M201.524 201.693c-2.768 1.284-6.11 2.158-10.152 2.379-15.156.83-18.596-12.46-19.222-21.28 2.185-.791 4.098-.716 5.2-.658a48.58 48.58 0 0 1 3.122.284c1.853-.969 5.184-5.674 7.109-13.545l.654.303 10.935 5.142s-1.161 3.56-2.02 6.966c-.669 2.666-1.149 5.241-.748 5.962l1.378.57c.114.292 2.492 6.352 3.744 13.877z"/></g><path d="M199.17 174.32l-2.02 6.966c-6.392-1.784-8.332-8.505-8.917-12.108l10.937 5.142z" fill="#ed985f"/><path d="M200.516 178.086s-15.293-3.54-12.942-13.033 1.96-16.342 11.823-14.483 10.856 5.949 10.842 9.309-5.685 18.883-9.723 18.207z" class="K"/><path d="M211.099 154.49c-1.644-3.441-3.579-3.258-4.789-2.648-7.186-6.65-19.228-4.983-19.228-4.983-2.713 6.555-3.598 13.001-3.598 13.001s2.349 2.405 9.159 2.353c2.079-.017 4.171-.972 6.073-2.288-3.67 3.698-7.973 5.949-7.973 5.949 8.523-1.632 14.238-11.503 14.824-12.551.722 1.067 2.104 3.337 2.22 5.254.158 2.606-.739 7.666.753 7.857 0 0 5.024-6.785 2.559-11.944z" fill="#2c2c2c"/><path d="M210.82 200.579c-.424-1.271-2.701-5.365-3.73-7.188a4.97 4.97 0 0 0-1.51-1.652c-1.228-.844-3.668-2.3-7.8-3.923.107.39 2.866 10.388 1.858 12.522-1.023 2.17-20.395-4.835-21.453-6.434-.847-1.283-.87-8.068-.847-10.71l.012-1.06s-7.231-.98-11.297.666c0 0 1.605 3.488 2.196 7.335a20.74 20.74 0 0 1 .138 1.099c.079.776.102 1.552.059 2.308-.059 1-.575 1.886-1.398 2.752-.747.796-1.763 1.579-2.913 2.418l-2.393 1.733h0c-.071 4.53.248 11.979-.59 19.928-.213 2.016-.882 3.945-1.937 5.655-.417.681-.898 1.326-1.433 1.929-4.271 4.792-11.845 14.344-10.18 20.29.123 5.608 47.403 12.975 46.391 6.817 0 0 7.105-34.254 10.943-42.523a14.16 14.16 0 0 0 .378-.902c1.23-3.263 1.023-6.619.607-9.623 2.166-1.541 4.899-1.437 4.899-1.437z" fill="#0084f4"/><path d="M181.263 243.554c-9.326-.098-17.222-9.785-22.048-17.526a13.45 13.45 0 0 0 1.936-5.655c.839-7.949.52-15.398.591-19.928h0l2.393-1.733c1.149-.839 2.166-1.622 2.913-2.418 7.637 12.912 26.858 47.394 14.215 47.26z" fill="#0174d5"/><path d="M163.117 408.605h-24.284s-.582-3.703.687-6.511c1.215-2.696 3.118-3.921 2.663-7.182 1.543 1.59 4.058 3.369 7.568 2.897.431.698 2.777 4.431 4.214 5.464 1.587 1.14 8.663.734 9.152 5.332zm52.141 0h-24.284s-.908-3.875.687-6.511c1.411-2.333.87-3.662-.175-5.592 1.1.451 2.523.86 4.09.771 1.21-.07 2.489-.619 3.612-1.271 1.045 1.192 5.52 6.265 6.918 7.271 1.587 1.14 8.664.734 9.152 5.332z" fill="#233862"/><path d="M249.2 258.86l6.564 2.693a3.85 3.85 0 0 1 2.263 4.493l.703.288c2.67-9.278-.587-18.635-7.914-21.639-1.029-.423-2.087-.7-3.157-.834-3.373-.445-6.889.463-10.05 2.435-3.003 1.871-5.681 4.703-7.61 8.257l.968.397c.95-1.616 2.977-2.342 4.761-1.613l6.568 2.694c.512-1.253 1.732-2.013 3.011-2.013.404 0 .819.079 1.215.24l.909.374a3.25 3.25 0 0 1 1.769 4.228zm-31.245 11.414l5.771-14.082c.752-1.837 2.768-2.791 4.638-2.275 1.911-3.595 4.544-6.517 7.529-8.567 3.145-2.166 6.676-3.36 10.162-3.345 1.84.007 3.673.356 5.423 1.074 8.206 3.363 11.882 13.734 8.871 23.918l.449.183s1.403-.097 3.755-.097c7.432 0 24.326.988 36.178 9.222 0 0 .745.794.774 2.005a3.15 3.15 0 0 1-.25 1.329s-19.026-12.324-36.623.34a85.93 85.93 0 0 1-3.15 2.159l-1.578 3.853c-2.617 6.39-9.982 9.473-16.37 6.854l-16.116-6.607-3.359-1.377c-5.688-2.331-8.438-8.897-6.104-14.587z" fill="url(#g)"/><path opacity=".112" d="M261.483 282.138l3.149-2.159c17.597-12.664 36.623-.341 36.623-.341.198-.478.265-.928.251-1.328-2.663-1.754-12.646-7.591-25.014-5.597-14.493 2.339-17.115 4.355-15.009 9.425zm-37.423 2.723l3.358 1.377c-5.034-2.75 1.201-14.366 4.848-22.036s9.163-4.164 9.163-4.164c1.264-2.57 3.972-2.432 3.972-2.432.142-2.476 2.031-2.974 2.031-2.974l-.91-.375c-.396-.16-.811-.239-1.215-.239-1.279 0-2.498.76-3.011 2.013l-6.567-2.694a3.85 3.85 0 0 0-4.761 1.613l-.969-.397c1.93-3.554 4.608-6.386 7.611-8.257 3.16-1.972 6.676-2.881 10.049-2.435-.527-.427-1.095-1.022-1.604-1.856-3.485-.015-7.016 1.179-10.162 3.345-2.984 2.05-5.617 4.972-7.528 8.567-1.871-.516-3.886.438-4.638 2.275l-5.771 14.082c-2.334 5.69.415 12.256 6.104 14.587z" class="H"/><path d="M160.721 194.828c.073-10.585 5.327-12.045 5.327-12.045.109-.036.219-.073.365-.109.912-.146 1.861.474 2.846 1.679 1.24 1.496 2.554 3.942 3.904 6.898 2.08 4.709 4.269 10.804 6.313 16.863l3.32 9.709 1.824 5.22c1.131 3.065 2.153 5.547 3.065 7.117.584 1.022 2.263 2.445 4.488 4.051 3.868 2.811 9.524 6.205 14.45 8.979l5.582 3.103c1.35.291 8.21 1.752 11.421 1.022 3.612-.839 9.669 3.504 9.669 3.504s.657 1.387-1.678 2.336c-2.335.985-5.619 4.416-10.873 2.336-3.759-1.461-7.736-2.482-9.67-2.957-.766-.146-1.204-.255-1.204-.255-2.043-.402-4.488-.949-7.151-1.534h-.037c-4.561-1.094-9.669-2.408-13.975-3.869-3.029-1.058-5.656-2.189-7.443-3.321-.183-.109-.329-.219-.511-.365-4.269-3.102-9.341-12.227-13.282-22.009l-1.569-4.015c-1.825-4.891-3.284-9.709-4.159-13.87-.548-2.482-.913-4.745-.986-6.606-.036-.657-.073-1.278-.036-1.862z" class="K"/><path d="M174.341 191.761c-7.024-1.937-13.633 3.054-13.633 3.054.088-10.567 5.347-12.014 5.347-12.014 2.632-1.515 5.758 3.284 8.286 8.96z" fill="#0084f4"/><path d="M331.953 400.69l-.001 5.647c0 .45-.138.867-.373 1.214a2.19 2.19 0 0 1-1.021.815 2.01 2.01 0 0 1-.398.112c-.125.022-.253.035-.384.034l-89.921-.013c-1.159 0-2.113-.919-2.172-2.064l-.003-.113.001-5.647.003-.112c.054-1.058.875-1.924 1.916-2.048.084-.01.17-.015.257-.015l89.92.013a2.12 2.12 0 0 1 .384.035 2.02 2.02 0 0 1 .399.112c.416.161.773.449 1.02.814.236.348.373.765.373 1.216z" class="D"/><g class="C"><path d="M287.796 408.506l-48.174-.007c-1.034 0-1.887-.919-1.939-2.065l-.003-.112.001-5.647.002-.112c.049-1.058.782-1.924 1.711-2.048a1.45 1.45 0 0 1 .23-.015l42.258.006c.68 2.958 2.253 7.02 5.914 10zm33.215.006l-1.023-.001.002-10 1.022.001-.001 10z"/><use xlink:href="#h" x="134.284" y="-0.026"/><use xlink:href="#i" x="139.788" y="-0.025"/><path d="M307.043 408.509h-1.022l.002-9.999h1.022l-.002 9.999zm-6.724 0l-1.021-.001.001-9.999h1.022l-.002 10z"/><use xlink:href="#h" x="106.744" y="-0.03"/><path d="M280.359 408.506l-1.022-.001.002-10h1.022l-.002 10.001zm-8.618-.001l-1.022-.001.001-10 1.022.001-.001 10zm52.562.007h-1.022l.002-9.999 1.022-.001-.002 10z"/><use xlink:href="#h" x="143.212" y="-0.025"/><use xlink:href="#h" x="145.313" y="-0.024"/><path d="M330.161 398.548l-.001 9.93c-.125.023-.252.035-.383.035h-.639l.001-10.001.639.001c.131 0 .258.012.383.035zm1.419.926l-.001 8.077c-.248.367-.604.654-1.021.815l.001-9.706c.418.161.774.449 1.021.814z"/></g><path d="M316.15 390.704v5.647a2.15 2.15 0 0 1-.373 1.214c-.248.367-.604.654-1.021.815a2.05 2.05 0 0 1-.399.112l-.126.019-.1.01-.051.004-.106.002-89.92-.013c-1.16-.001-2.114-.92-2.173-2.066l-.003-.111.001-5.647.003-.112c.058-1.146 1.014-2.064 2.173-2.064l89.92.014c.039-.001.077.001.116.003a1.98 1.98 0 0 1 .268.031 2.01 2.01 0 0 1 .398.112 1.9 1.9 0 0 1 .189.084l.112.06.121.076c.008.004.014.009.018.012a1.15 1.15 0 0 1 .097.071 1.87 1.87 0 0 1 .217.189l.061.064.049.053.07.088.087.118c.236.347.373.765.372 1.215z" class="D"/><g class="C"><path d="M271.994 398.52l-48.174-.007c-1.034 0-1.887-.919-1.94-2.065l-.002-.111.001-5.647.002-.112c.053-1.146.906-2.064 1.94-2.064l42.258.006.056.231c.7 2.917 2.28 6.847 5.84 9.754.006.004.013.01.019.015z"/><use xlink:href="#j" x="140.212" y="-10.008"/><use xlink:href="#k" x="96.802" y="-0.262"/><use xlink:href="#j" x="132.604" y="-10.009"/><use xlink:href="#j" x="126.245" y="-10.01"/><path d="M284.517 398.523h-1.022l.002-10h1.021l-.001 10z"/><use xlink:href="#k" x="69.262" y="-0.266"/><use xlink:href="#h" x="81.29" y="-10.017"/><path d="M255.938 398.519l-1.022-.001.002-9.999h1.022l-.002 10zm52.563.007h-1.022l.001-9.999 1.022-.001-.001 10z"/><use xlink:href="#j" x="145.68" y="-10.007"/><path d="M312.777 398.527h-1.022l.002-10 1.022.001-.002 9.999zm1.582-9.965l-.001 9.93a2.12 2.12 0 0 1-.384.035h-.639l.002-10 .638.001a2.03 2.03 0 0 1 .384.034zm1.419.927l-.001 8.077a2.19 2.19 0 0 1-1.021.814l.002-9.706c.416.161.772.449 1.02.815z"/></g><path d="M328.348 380.936l-.001 5.647c0 .45-.137.867-.373 1.215-.248.366-.603.653-1.021.814a2.06 2.06 0 0 1-.398.113 2.31 2.31 0 0 1-.383.035l-89.921-.014a2.16 2.16 0 0 1-.972-.231c-.655-.329-1.124-.982-1.195-1.745l-.006-.089-.002-.111.001-5.648.002-.112c.054-1.059.876-1.925 1.916-2.048a1.97 1.97 0 0 1 .257-.016l89.921.014a2.12 2.12 0 0 1 .384.035 1.98 1.98 0 0 1 .397.111 2.19 2.19 0 0 1 1.021.815c.236.348.373.765.373 1.215z" class="D"/><g class="C"><path d="M284.192 388.753l-48.174-.007c-.312 0-.606-.083-.868-.232-.585-.328-1.002-.982-1.066-1.744l-.006-.089-.002-.111.001-5.648.002-.112c.048-1.059.782-1.924 1.711-2.049.074-.01.151-.015.229-.015l42.258.006c.662 2.883 2.173 6.814 5.638 9.77a9.15 9.15 0 0 0 .277.231z"/><use xlink:href="#i" x="143.791" y="-19.778"/><path d="M313.946 388.757h-1.022l.001-9.999h1.022l-.001 9.999zm-4.148 0l-1.023-.001.002-9.999h1.022l-.001 10zm-6.359-.002l-1.022.001.001-10h1.022l-.001 9.999zm-6.725 0h-1.022l.001-10h1.023l-.002 10z"/><use xlink:href="#k" x="81.459" y="-10.034"/><use xlink:href="#j" x="111.758" y="-19.782"/><use xlink:href="#i" x="94.521" y="-19.785"/><path d="M320.698 388.758h-1.022l.002-9.999h1.021l-.001 9.999zm2.176 0l-1.022.001.001-10h1.022l-.001 9.999zm2.1.001h-1.021l.001-10h1.022l-.002 10zm1.583-9.965l-.002 9.93c-.125.023-.252.035-.383.035h-.639l.001-10h.639a2.12 2.12 0 0 1 .384.035zm1.418.927l-.001 8.077c-.247.366-.604.653-1.021.814l.002-9.706c.417.161.773.449 1.02.815z"/></g><path d="M321.738 370.951v5.647a2.16 2.16 0 0 1-.374 1.215 2.18 2.18 0 0 1-1.021.814 1.99 1.99 0 0 1-.398.112l-.126.019-.071.008-.071.005-.115.003-89.921-.013c-1.159 0-2.114-.919-2.172-2.065l-.003-.112.001-5.647.002-.112c.059-1.145 1.014-2.064 2.174-2.064l89.92.013a2.11 2.11 0 0 1 .384.035c.137.025.271.062.398.112a2.19 2.19 0 0 1 1.021.815c.236.348.372.765.372 1.215z" class="D"/><g class="C"><path d="M277.582 378.768l-48.174-.007c-1.035 0-1.887-.919-1.939-2.065l-.003-.112.001-5.647.002-.112c.053-1.145.906-2.064 1.94-2.064l42.258.006c.673 2.939 2.241 7.001 5.895 9.985.006.005.013.011.02.016z"/><use xlink:href="#h" x="127.529" y="-29.764"/><path d="M307.336 378.772h-1.022l.002-10 1.022.001-.002 9.999z"/><use xlink:href="#h" x="119.921" y="-29.765"/><path d="M296.829 378.771l-1.022-.001.002-9.999h1.022l-.002 10zm-6.724-.001h-1.022l.001-10h1.023l-.002 10zm-10.309-.002h-1.022l.002-9.999h1.022l-.002 9.999z"/><use xlink:href="#i" x="96.53" y="-29.769"/><path d="M261.528 368.766l-.002 9.999-1.022.001.002-10.001 1.022.001zm52.561 10.007h-1.023l.002-10 1.022.001-.001 9.999zm2.175.001l-1.022-.001.002-9.999h1.021l-.001 10zm2.1 0l-1.021-.001.001-9.999h1.022l-.002 10zm1.583-9.965l-.002 9.93a2.1 2.1 0 0 1-.383.035h-.639l.002-10h.639c.131 0 .258.012.383.035zm1.419.927l-.001 8.077a2.19 2.19 0 0 1-1.021.814l.001-9.706a2.19 2.19 0 0 1 1.021.815z"/><path d="M266.393 387.612l7.147-2.15-1.199-6.688s-5.37-4.355-6.258-10.007l-35.473 8.847v20.246h8.996v8.049h34.093v-7.382s-4.857-.967-7.306-10.915z"/></g><path d="M312.267 286.238s34.577 27.696 46.724 67.92c0 0-8.279-30.811-46.724-67.92zm13.702 32.166s17.234 45.812 17.588 78.423c0 0 4.962-22.277-17.588-78.423zm-11.378-2.561s8.191 32.589 8.843 45.438c0 0 .465-17.505-8.843-45.438z" class="E"/></g><defs><linearGradient id="O" x1="512.142" y1="357.036" x2="512.142" y2="409.745" xlink:href="#m"><stop stop-color="#a1e48d"/><stop offset="1" stop-color="#68c454"/></linearGradient><linearGradient id="P" x1="65.865" y1="376.536" x2="65.865" y2="408.513" xlink:href="#m"><stop stop-color="#a1e48d"/><stop offset="1" stop-color="#68c454"/></linearGradient><linearGradient id="Q" x1="269.453" y1="92.649" x2="269.453" y2="398.524" xlink:href="#m"><stop stop-color="#fcb071"/><stop offset="1" stop-color="#f9783d"/></linearGradient><linearGradient id="R" x1="265.455" y1="222.058" x2="265.455" y2="398.524" xlink:href="#m"><stop stop-color="#ffc69c"/><stop offset="1" stop-color="#ff9463"/></linearGradient><linearGradient id="S" x1="300.898" y1="260.884" x2="300.898" y2="305.237" xlink:href="#m"><stop stop-color="#fdb070"/><stop offset="1" stop-color="#f9783d"/></linearGradient><linearGradient id="T" x1="326.896" y1="370.634" x2="326.896" y2="446.81" xlink:href="#m"><stop stop-color="#a1e48d"/><stop offset="1" stop-color="#68c454"/></linearGradient><linearGradient id="U" x1="260.787" y1="87.215" x2="260.787" y2="98.082" xlink:href="#m"><stop stop-color="#9fe18d"/><stop offset="1" stop-color="#66c054"/></linearGradient><linearGradient id="V" x1="285.332" y1="6.436" x2="285.332" y2="164.115" xlink:href="#m"><stop stop-color="#a1e48d"/><stop offset="1" stop-color="#68c454"/></linearGradient><linearGradient id="W" x1="166.124" y1="101.153" x2="166.124" y2="217.021" xlink:href="#m"><stop stop-color="#a1e48d"/><stop offset="1" stop-color="#68c454"/></linearGradient><linearGradient id="X" x1="331.884" y1="37.23" x2="331.884" y2="164.092" xlink:href="#m"><stop stop-color="#a1e48d"/><stop offset="1" stop-color="#68c454"/></linearGradient><linearGradient id="Y" x1="142.657" y1="166.432" x2="142.657" y2="301.889" xlink:href="#m"><stop stop-color="#a1e48d"/><stop offset="1" stop-color="#68c454"/></linearGradient><linearGradient id="Z" x1="359.494" y1="189.135" x2="359.494" y2="274.131" xlink:href="#m"><stop stop-color="#a1e48d"/><stop offset="1" stop-color="#68c454"/></linearGradient><linearGradient id="a" x1="222.673" y1="175.903" x2="222.673" y2="189.015" xlink:href="#m"><stop stop-color="#ffc400"/><stop offset="1" stop-color="#ff9200"/></linearGradient><linearGradient id="b" x1="442.125" y1="158.712" x2="442.125" y2="171.524" xlink:href="#m"><stop stop-color="#9fe18d"/><stop offset="1" stop-color="#66c054"/></linearGradient><linearGradient id="c" x1="472.293" y1="82.37" x2="472.293" y2="91.352" xlink:href="#m"><stop stop-color="#ffc400"/><stop offset="1" stop-color="#ff9200"/></linearGradient><linearGradient id="d" x1="385.147" y1="0" x2="385.147" y2="22.962" xlink:href="#m"><stop stop-color="#ffc400"/><stop offset="1" stop-color="#ff9200"/></linearGradient><linearGradient id="e" x1="416.407" y1="21.212" x2="416.407" y2="37.23" xlink:href="#m"><stop stop-color="#9fe18d"/><stop offset="1" stop-color="#66c054"/></linearGradient><linearGradient id="f" x1="300.73" y1="276.305" x2="300.73" y2="408.605" xlink:href="#m"><stop stop-color="#95ccff"/><stop offset="1" stop-color="#5c9cff"/></linearGradient><linearGradient id="g" x1="250.599" y1="233.753" x2="210.124" y2="295.109" xlink:href="#m"><stop stop-color="#40aefd"/><stop offset="1" stop-color="#4044fd"/></linearGradient><path id="h" d="M183.267 408.537h-1.022l.001-10h1.022l-.001 10z"/><path id="i" d="M173.615 408.536l-1.022-.001.001-9.999h1.022l-.001 10z"/><path id="j" d="M164.996 408.534h-1.022l.002-10h1.022l-.002 10z"/><path id="k" d="M204.947 398.787h-1.022l.001-10 1.022.001-.001 9.999z"/><path id="l" d="M224.382 398.79h-1.022l.002-10 1.021.001-.001 9.999z"/><linearGradient id="m" gradientUnits="userSpaceOnUse"/></defs></svg>